<?xml version="1.0" standalone="no"?>
<!DOCTYPE svg PUBLIC "-//W3C//DTD SVG 1.1//EN" "http://www.w3.org/Graphics/SVG/1.1/DTD/svg11.dtd" >
<svg>
<metadata>
Created by FontForge 20090622 at Fri Jul 13 01:32:18 2012
 By ffonts
</metadata>
<defs>
<font id="PlayfairDisplaySC" horiz-adv-x="0" >
  <font-face 
    font-family="Playfair Display SC"
    font-weight="400"
    font-stretch="normal"
    units-per-em="1000"
    panose-1="2 0 5 3 0 0 0 2 0 3"
    ascent="800"
    descent="-200"
    x-height="608"
    cap-height="708"
    bbox="-198 -241 1018 1039.24"
    underline-thickness="20"
    underline-position="-80"
    unicode-range="U+000D-U+F6C3"
  />
<missing-glyph horiz-adv-x="562" 
d="M60 772h442v-772h-442v772zM96 30h370v712h-370v-712z" />
    <glyph glyph-name=".notdef" horiz-adv-x="562" 
d="M60 772h442v-772h-442v772zM96 30h370v712h-370v-712z" />
    <glyph glyph-name="NULL" 
 />
    <glyph glyph-name="NULL" 
 />
    <glyph glyph-name="nonmarkingreturn" unicode="&#xd;" 
 />
    <glyph glyph-name="space" unicode=" " horiz-adv-x="247" 
 />
    <glyph glyph-name="period" unicode="." horiz-adv-x="234" 
d="M53 50q0 26 19 45t45 19t45 -19t19 -45t-19 -45t-45 -19t-45 19t-19 45z" />
    <glyph glyph-name="question" unicode="?" horiz-adv-x="460" 
d="M196 762q-24 0 -52.5 -7t-45.5 -29q19 -4 30.5 -17t11.5 -34q0 -26 -16 -40t-39 -14t-38 15t-15 38q0 21 13 39.5t34 32.5t54.5 25t81.5 11q47 0 85.5 -12.5t66.5 -35.5t43 -56.5t15 -75.5t-16.5 -77.5t-46 -63t-71 -48t-91.5 -33.5v-146h-20v155q50 18 80.5 40
t47.5 46.5t22.5 51.5t5.5 56q0 94 -39 136.5t-101 42.5zM127 50q0 26 19 45t45 19t45 -19t19 -45t-19 -45t-45 -19t-45 19t-19 45z" />
    <glyph glyph-name="quotedbl" unicode="&#x22;" horiz-adv-x="285" 
d="M52 468zM233 684q0 -25 -2.5 -46.5t-6.5 -45.5l-9 -53.5t-11 -70.5h-14q-6 39 -11 68l-9 53.5t-6.5 46.5t-2.5 47q0 22 10.5 34t25.5 13q15 0 25.5 -12t10.5 -34zM124 684q0 -25 -2.5 -46.5t-6.5 -45.5l-9 -53.5t-11 -70.5h-14q-6 39 -11 68l-9 53.5t-6.5 46.5t-2.5 47
q0 22 10.5 34t25.5 13q15 0 25.5 -12t10.5 -34z" />
    <glyph glyph-name="quotesingle" unicode="'" horiz-adv-x="176" 
d="M124 684q0 -25 -2.5 -46.5t-6.5 -45.5l-9 -53.5t-11 -70.5h-14q-6 39 -11 68l-9 53.5t-6.5 46.5t-2.5 47q0 22 10.5 34t25.5 13q15 0 25.5 -12t10.5 -34z" />
    <glyph glyph-name="quoteleft" unicode="&#x2018;" horiz-adv-x="231" 
d="M47 470zM187.003 534.003q0 -27.998 -18.999 -45.9971q-18.998 -17.999 -44.9971 -17.999q-21.998 0 -35.9971 9q-14 8.99902 -22.999 22.998q-10.999 16.999 -13.999 35.498t-3 30.498q0 48.9971 24.499 88.9941q24.498 39.998 78.4951 64.9961l8.99902 -17.999
q-14.999 -5.99902 -28.998 -16.998q-13.999 -11 -24.499 -23.999q-10.499 -12.999 -16.499 -27.498q-5.99902 -14.499 -5.99902 -29.498q0 -12 3 -20.999q15.999 12.999 36.9971 12.999q25.999 0 44.9971 -16.999q18.999 -16.999 18.999 -46.9971z" />
    <glyph glyph-name="comma" unicode="," horiz-adv-x="242" 
d="M53 50q0 28 19 46t45 18q22 0 36 -9t23 -23q11 -17 14 -35.5t3 -30.5q0 -49 -24.5 -89t-78.5 -65l-9 18q15 6 29 17t24.5 24t16.5 27.5t6 29.5q0 12 -3 21q-16 -13 -37 -13q-26 0 -45 17t-19 47z" />
    <glyph glyph-name="quoteright" unicode="&#x2019;" horiz-adv-x="229" 
d="M47 470zM47 658q0 28 19 46t45 18q22 0 36 -9t23 -23q11 -17 14 -35.5t3 -30.5q0 -49 -24.5 -89t-78.5 -65l-9 18q15 6 29 17t24.5 24t16.5 27.5t6 29.5q0 12 -3 21q-16 -13 -37 -13q-26 0 -45 17t-19 47z" />
    <glyph glyph-name="quotesinglbase" unicode="&#x201a;" horiz-adv-x="242" 
d="M53 0zM53 50q0 28 19 46t45 18q22 0 36 -9t23 -23q11 -17 14 -35.5t3 -30.5q0 -49 -24.5 -89t-78.5 -65l-9 18q15 6 29 17t24.5 24t16.5 27.5t6 29.5q0 12 -3 21q-16 -13 -37 -13q-26 0 -45 17t-19 47z" />
    <glyph glyph-name="quotedblleft" unicode="&#x201c;" horiz-adv-x="368" 
d="M39 470zM349.003 534.003q0 -27.998 -18.999 -45.9971t-44.9971 -17.999q-21.999 0 -35.998 9q-13.999 8.99902 -22.998 22.998q-11 16.999 -14 35.498q-2.99902 18.499 -2.99902 30.498q0 48.9971 24.498 88.9941q24.499 39.998 78.4951 64.9961l9 -17.999
q-14.999 -5.99902 -28.999 -16.998q-13.999 -11 -24.498 -23.999t-16.499 -27.498t-6 -29.498q0 -12 3 -20.999q15.999 12.999 36.998 12.999q25.998 0 44.9971 -16.999t18.999 -46.9971zM179.014 534.003q0 -27.998 -18.999 -45.9971t-44.9971 -17.999q-21.999 0 -35.998 9
q-13.999 8.99902 -22.999 22.998q-10.999 16.999 -13.999 35.498t-3 30.498q0 48.9971 24.499 88.9941q24.498 39.998 78.4951 64.9961l8.99902 -17.999q-14.999 -5.99902 -28.998 -16.998q-13.999 -11 -24.498 -23.999q-10.5 -12.999 -16.499 -27.498
q-6 -14.499 -6 -29.498q0 -12 3 -20.999q15.999 12.999 36.998 12.999q25.998 0 44.9971 -16.999t18.999 -46.9971z" />
    <glyph glyph-name="quotedblbase" unicode="&#x201e;" horiz-adv-x="378" 
d="M46 50q0 28 19 46t45 18q22 0 36 -9t23 -23q11 -17 14 -35.5t3 -30.5q0 -49 -24.5 -89t-78.5 -65l-9 18q15 6 29 17t24.5 24t16.5 27.5t6 29.5q0 12 -3 21q-16 -13 -37 -13q-26 0 -45 17t-19 47zM216 50q0 28 19 46t45 18q22 0 36 -9t23 -23q11 -17 14 -35.5t3 -30.5
q0 -49 -24.5 -89t-78.5 -65l-9 18q15 6 29 17t24.5 24t16.5 27.5t6 29.5q0 12 -3 21q-16 -13 -37 -13q-26 0 -45 17t-19 47z" />
    <glyph glyph-name="quotedblright" unicode="&#x201d;" horiz-adv-x="367" 
d="M42 470zM42 658q0 28 19 46t45 18q22 0 36 -9t23 -23q11 -17 14 -35.5t3 -30.5q0 -49 -24.5 -89t-78.5 -65l-9 18q15 6 29 17t24.5 24t16.5 27.5t6 29.5q0 12 -3 21q-16 -13 -37 -13q-26 0 -45 17t-19 47zM212 658q0 28 19 46t45 18q22 0 36 -9t23 -23q11 -17 14 -35.5
t3 -30.5q0 -49 -24.5 -89t-78.5 -65l-9 18q15 6 29 17t24.5 24t16.5 27.5t6 29.5q0 12 -3 21q-16 -13 -37 -13q-26 0 -45 17t-19 47z" />
    <glyph glyph-name="numbersign" unicode="#" horiz-adv-x="623" 
d="M192 267l32 167h-146l3 20h147l29 148h20l-29 -148h167l29 148h20l-29 -148h147l-3 -20h-148l-32 -167h147l-4 -20h-147l-28 -146h-20l28 146h-167l-28 -146h-20l28 146h-147l4 20h147zM212 267h167l32 167h-167z" />
    <glyph glyph-name="paragraph" unicode="&#xb6;" horiz-adv-x="647" 
d="M526 -75q0 -27 3 -43.5t12 -25.5t24.5 -12.5t41.5 -4.5v-20q-23 2 -57.5 2.5t-69.5 0.5q-45 0 -84.5 -0.5t-63.5 -2.5v20q31 1 51 6t31 16.5t15 29t4 44.5v52q-111 0 -187 28.5t-123 78.5t-68 118t-21 148q0 76 24 140.5t70 110.5t112.5 72t151.5 26q59 0 110 -3t101 2
v-19q-24 -1 -39.5 -5.5t-23.5 -13t-11 -21t-3 -28.5v-696zM403 337q1 -61 5 -114t9 -92t10 -61t7 -22v608q-2 0 -7 -23t-10 -63t-9 -92.5t-5 -111.5q-58 0 -109 -2t-89 -4.5t-60 -5t-22 -3.5q0 -2 22 -4t60 -4.5t89 -4t109 -1.5z" />
    <glyph glyph-name="ampersand" unicode="&#x26;" horiz-adv-x="827" 
d="M307 687q-53 0 -85.5 -30.5t-32.5 -83.5q0 -33 10.5 -62t40.5 -57q17 3 35 4.5t27 1.5q18 0 29 -6t11 -17q0 -19 -28 -19q-19 0 -40 8.5l-33 13.5q-28 -8 -51.5 -21.5t-41 -33t-27.5 -46.5t-10 -62q0 -52 21 -92.5t57 -68t83 -42t98 -14.5q57 0 107 12.5t86.5 36t57.5 57
t21 75.5q0 14 -3.5 34t-14 40.5t-30.5 40t-53 32.5l-63.5 -20.5t-51.5 -17.5q-38 -14 -63 -34t-25 -55q0 -18 9 -32.5t22.5 -24.5t30 -15.5t30.5 -5.5q7 0 16.5 1.5t18.5 4t16 6.5t9 10q-16 3 -31.5 14t-15.5 37q0 24 16 38t39 14q24 0 38.5 -15t14.5 -39q0 -21 -11.5 -37.5
t-28.5 -27t-38 -16t-40 -5.5q-22 0 -44 6.5t-40 20.5t-29.5 35.5t-11.5 51.5q0 56 34 90t104 59q19 7 50 15.5l65.5 18.5t68.5 21.5t60 23.5q51 24 68.5 47t17.5 48q0 22 -9 40.5t-25 32t-38 21.5t-47 8q-9 0 -17 -2t-10 -7q14 -7 21 -20t7 -26q0 -21 -17 -35t-38 -14
q-22 0 -38 12.5t-16 35.5q0 21 10.5 34.5t27 22t36.5 11.5t38 3q30 0 56 -9t45.5 -26.5t31 -43t11.5 -58.5q0 -50 -27.5 -84t-67.5 -54q-26 -12 -65 -25.5t-81 -26.5q30 -13 50 -33t33 -43t18.5 -46.5t5.5 -44.5q0 -47 -20.5 -90.5t-59.5 -77.5t-95.5 -54t-128.5 -20
q-65 0 -124 17t-103.5 49.5t-71 78.5t-26.5 104q0 54 21.5 92.5t51.5 63.5t61.5 38.5t50.5 18.5q-51 22 -76 57t-25 70q0 26 11 49t32.5 40.5t53 27.5t73.5 10q40 0 63.5 -9t39.5 -21q20 -16 28.5 -34.5t8.5 -34.5q0 -25 -17.5 -39t-38.5 -14q-20 0 -36 13t-16 37
q0 22 15 37.5t38 17.5q-5 13 -25 22.5t-49 9.5z" />
    <glyph glyph-name="section" unicode="&#xa7;" horiz-adv-x="507" 
d="M243 -169q31 0 52 9t34 23.5t18.5 32t5.5 34.5q0 30 -15 55t-39 47.5t-53.5 43.5l-58.5 41q-35 24 -62 45.5t-46 44t-29 48t-10 57.5q0 48 25.5 91.5t91.5 79.5q-34 30 -53.5 63.5t-19.5 78.5q0 35 12.5 64t35.5 49.5t55.5 32t72.5 11.5q30 0 52 -5.5t37 -11.5
q37 -15 57 -40t20 -51q0 -21 -13.5 -37t-39.5 -16q-23 0 -39 14.5t-16 38.5q0 17 10 32t33 21q-5 11 -17 18t-26 11t-28.5 5.5t-25.5 1.5q-31 0 -52 -9t-34 -23.5t-18.5 -32t-5.5 -34.5q0 -30 15 -55t39 -47.5t53.5 -43.5l58.5 -41q34 -24 61.5 -45.5t46.5 -44t29 -48
t10 -57.5q0 -47 -26 -91t-91 -80q33 -30 53 -63.5t20 -78.5q0 -35 -12.5 -64t-35.5 -49.5t-55.5 -32t-72.5 -11.5q-30 0 -52 5.5t-37 11.5q-37 15 -57 40t-20 51q0 21 13.5 37t39.5 16q23 0 39 -14.5t16 -38.5q0 -17 -10 -32t-33 -21q4 -11 16 -17.5t26 -11t29 -6t26 -1.5z
M269 400q-29 19 -54 37t-47 36q-74 -48 -74 -111q0 -25 12 -47t31.5 -42.5t45.5 -40t55 -38.5l53.5 -37.5t46.5 -35.5q36 23 55.5 51t19.5 60q0 25 -12 47t-31.5 42.5t-46 39.5z" />
    <glyph glyph-name="at" unicode="@" horiz-adv-x="874" 
d="M628 49q8 0 25 3.5t38.5 14t44 29.5t41.5 49.5t31 74.5t12 104q0 64 -19.5 121.5t-59 101.5t-100.5 70t-145 26q-75 0 -142.5 -32.5t-118.5 -90.5t-80.5 -137t-29.5 -173q0 -95 25.5 -161t68.5 -107t98 -60t115 -19q47 0 96.5 10t91.5 38l7 -13q-38 -26 -90 -42.5
t-128 -16.5q-75 0 -142 22t-118 67t-80.5 112.5t-29.5 158.5q0 103 34.5 189t94 148t138 97t165.5 35q92 0 161 -26.5t115 -73t69 -109t23 -135.5q0 -66 -14.5 -113.5t-37 -80.5t-50.5 -53.5t-55 -31.5t-50.5 -15t-36.5 -4q-20 0 -35.5 4.5t-26.5 18.5q-12 15 -12 40.5
t4 51.5q-26 -64 -59.5 -89.5t-80.5 -25.5q-27 0 -50 9.5t-40 29.5t-26.5 50.5t-9.5 73.5t14 93.5t42 94t70.5 72.5t99.5 29q33 0 57 -14.5t32 -48.5l9 49q23 0 46.5 3t43.5 11l-68 -367q-7 -34 -1.5 -48t24.5 -14zM419 56q34 0 67.5 45.5t56.5 145.5l24 129q0 22 -6.5 37
t-16.5 24.5t-22.5 13.5t-23.5 4q-37 0 -65 -26.5t-47 -66.5t-28.5 -88t-9.5 -90q0 -66 18.5 -97t52.5 -31z" />
    <glyph glyph-name="copyright" unicode="&#xa9;" horiz-adv-x="872" 
d="M459 156q40 0 80 23t66 80l19 -7q-8 -24 -22.5 -49t-37 -45t-53 -32.5t-70.5 -12.5q-47 0 -87.5 18t-70.5 52.5t-47 83.5t-17 111q0 61 17 112.5t48 88t74 57t95 20.5q34 0 65.5 -9t54.5 -26q20 -14 31 -32.5t11 -41.5q0 -27 -15 -41.5t-38 -14.5t-39 14t-16 40
q0 21 11.5 34t30.5 17q-10 18 -35.5 30t-54.5 12q-22 0 -44 -9t-42 -30q-25 -27 -41 -77.5t-16 -131.5q0 -65 11.5 -109.5t31.5 -72t45.5 -40t54.5 -12.5zM38 384q0 82 31 154.5t85 126.5t126.5 85.5t155.5 31.5q82 0 154.5 -31.5t126.5 -85.5t85.5 -126.5t31.5 -154.5
q0 -83 -31.5 -155.5t-85.5 -126.5t-126.5 -85t-154.5 -31q-83 0 -155.5 31t-126.5 85t-85 126.5t-31 155.5zM78 384q0 -76 28 -142.5t76.5 -116t114 -78.5t139.5 -29t139.5 29t114 78.5t76.5 116t28 142.5t-28 142.5t-76.5 116t-114 78.5t-139.5 29t-139.5 -29t-114 -78.5
t-76.5 -116t-28 -142.5z" />
    <glyph glyph-name="registered" unicode="&#xae;" horiz-adv-x="676" 
d="M497 365q-6 -12 -16.5 -16.5t-27.5 -4.5q-26 0 -38 10t-17 31l-17 74q-3 13 -7.5 22t-13.5 14t-25 7.5t-42 2.5v-101q0 -23 4.5 -29t18.5 -8v-15q-10 0 -23.5 0.5t-27.5 0.5q-16 0 -29.5 -0.5t-22.5 -0.5v15q14 2 18.5 8t4.5 29v219q0 24 -4.5 30t-18.5 8v15q9 -1 22 -1
h26q28 0 51.5 0.5t34.5 0.5q57 0 86.5 -20.5t29.5 -58.5q0 -13 -4 -26t-15.5 -24.5t-30.5 -20.5t-49 -14q43 -5 59.5 -19t21.5 -39l12 -57l5.5 -23t12.5 -10q8 0 12 8zM59 503q0 58 22 108.5t60 88.5t88.5 60t108.5 22t108.5 -22t88.5 -60t60 -88.5t22 -108.5t-22 -108.5
t-60 -88.5t-88.5 -60t-108.5 -22t-108.5 22t-88.5 60t-60 88.5t-22 108.5zM101 503q0 -51 18.5 -95.5t50.5 -78.5t75 -53.5t93 -19.5q49 0 92.5 19.5t75.5 53.5t50.5 78.5t18.5 95.5t-18.5 95.5t-50.5 78.5t-75.5 53.5t-92.5 19.5q-50 0 -93 -19.5t-75 -53.5t-50.5 -78.5
t-18.5 -95.5zM293 521h24q27 0 43.5 5t25.5 14t12 21t3 26q0 38 -15.5 56t-54.5 18q-24 0 -31 -6.5t-7 -26.5v-107z" />
    <glyph glyph-name="trademark" unicode="&#x2122;" horiz-adv-x="1039" 
d="M851 705h47q20 0 41.5 0.5t35.5 2.5v-20q-16 -1 -26 -3t-15.5 -8t-7.5 -16.5t-2 -28.5v-256q0 -18 2 -28.5t7 -16.5t15 -8t27 -3v-20q-17 2 -40.5 2.5t-46.5 0.5q-24 0 -44 -0.5t-34 -2.5v20q13 1 21 3t12.5 8t6 16.5t1.5 28.5v266l-131 -347h-16l-142 349v-268
q0 -18 1.5 -28.5t6 -16.5t12.5 -8t21 -3v-20q-21 3 -52 3q-17 0 -34.5 -0.5t-28.5 -2.5v20q16 1 26.5 3t15.5 8t7 16.5t2 28.5v256q0 18 -2 28.5t-7 16.5t-15.5 8t-26.5 3v20q11 -2 28.5 -2.5t34.5 -0.5q22 0 36.5 0.5t31.5 2.5l121 -297zM159 685q-29 0 -44 -25.5
t-20 -91.5h-23q2 10 2.5 23.5t0.5 28.5q0 13 -1.5 37.5t-5.5 50.5q20 -1 43.5 -1.5l48 -1t47.5 -0.5h43h42.5t47.5 0.5l47.5 1t43.5 1.5q-4 -26 -5.5 -50.5t-1.5 -37.5q0 -15 0.5 -28.5t2.5 -23.5h-23q-5 66 -20 91.5t-44 25.5h-54v-299q0 -21 2.5 -33.5t10 -19.5t21.5 -9.5
t37 -3.5v-20q-20 2 -49 2.5t-58 0.5q-33 0 -61.5 -0.5t-46.5 -2.5v20q22 1 36 3.5t22 9.5t10.5 19.5t2.5 33.5v299h-54z" />
    <glyph glyph-name="uni2105" unicode="&#x2105;" horiz-adv-x="770" 
d="M211 754q-18 0 -35 -7.5t-31 -26t-22.5 -49t-8.5 -75.5q0 -44 9 -73.5t23.5 -47.5t34 -25.5t40.5 -7.5q29 0 59 18t50 65l16 -7q-6 -19 -18 -38.5t-30 -35t-42 -25.5t-53 -10q-36 0 -67 11.5t-54.5 34t-37 55t-13.5 74.5q0 41 13.5 75.5t37.5 59.5t58 39t75 14
q51 0 86 -24q17 -11 26.5 -27t9.5 -35q0 -23 -13.5 -35.5t-33.5 -12.5t-34 12t-14 32q0 39 43 48q-8 9 -28 16.5t-46 7.5zM53 -42l585 866l19 -13l-585 -866zM400 167q0 45 15.5 78.5t40 56.5t56.5 34.5t65 11.5t65 -11.5t56.5 -34.5t40 -56.5t15.5 -78.5t-15.5 -78.5
t-40 -56.5t-56.5 -34.5t-65 -11.5t-65 11.5t-56.5 34.5t-40 56.5t-15.5 78.5zM483 167q0 -44 7.5 -74.5t20.5 -50.5t30 -29t36 -9t36 9t30 29t20.5 50.5t7.5 74.5q0 43 -7.5 74t-20.5 51t-30 29t-36 9t-36 -9t-30 -29t-20.5 -51t-7.5 -74z" />
    <glyph glyph-name="fraction" unicode="&#x2044;" horiz-adv-x="561" 
d="M-22 -42l585 866l19 -13l-585 -866z" />
    <glyph glyph-name="ordmasculine" unicode="&#xba;" horiz-adv-x="440" 
d="M43 541q0 45 15.5 78.5t40 56.5t56.5 34.5t65 11.5t65 -11.5t56.5 -34.5t40 -56.5t15.5 -78.5t-15.5 -78.5t-40 -56.5t-56.5 -34.5t-65 -11.5t-65 11.5t-56.5 34.5t-40 56.5t-15.5 78.5zM126 541q0 -44 7.5 -74.5t20.5 -50.5t30 -29t36 -9t36 9t30 29t20.5 50.5t7.5 74.5
q0 43 -7.5 74t-20.5 51t-30 29t-36 9t-36 -9t-30 -29t-20.5 -51t-7.5 -74z" />
    <glyph glyph-name="uni2116" unicode="&#x2116;" horiz-adv-x="956" 
d="M426 -5l-280 649v-538q0 -27 3 -43.5t12 -25.5t24.5 -12.5t41.5 -4.5v-20q-18 2 -42 2.5t-50 0.5t-51 -0.5t-42 -2.5v20q25 1 41 4.5t25 12.5t12 25.5t3 43.5v496q0 27 -3 43.5t-12 25.5t-25 12.5t-41 4.5v20q17 -2 42 -2.5t51 -0.5q25 0 49 0.5t43 2.5l199 -464v358
q0 27 -3 43.5t-12 25.5t-25 12.5t-41 4.5v20q18 -2 42 -2.5t50 -0.5t51 0.5t42 2.5v-20q-26 -1 -41.5 -4.5t-24.5 -12.5t-12 -25.5t-3 -43.5v-607h-23zM894 301v-20h-344v20h344zM894 228v-20h-344v20h344zM558 541q0 45 15.5 78.5t40 56.5t56.5 34.5t65 11.5t65 -11.5
t56.5 -34.5t40 -56.5t15.5 -78.5t-15.5 -78.5t-40 -56.5t-56.5 -34.5t-65 -11.5t-65 11.5t-56.5 34.5t-40 56.5t-15.5 78.5zM641 541q0 -44 7.5 -74.5t20.5 -50.5t30 -29t36 -9t36 9t30 29t20.5 50.5t7.5 74.5q0 43 -7.5 74t-20.5 51t-30 29t-36 9t-36 -9t-30 -29t-20.5 -51
t-7.5 -74z" />
    <glyph glyph-name="bar" unicode="|" horiz-adv-x="208" 
d="M124 858v-1053h-40v1053h40z" />
    <glyph glyph-name="brokenbar" unicode="&#xa6;" horiz-adv-x="208" 
d="M84 -195v521h40v-521h-40zM124 858v-474h-40v474h40z" />
    <glyph glyph-name="asterisk" unicode="*" horiz-adv-x="486" 
d="M426 623q7 -11 2 -27t-31 -31q-24 -14 -59.5 -22.5t-88.5 -24.5q51 -15 88 -24t61 -22q26 -15 30.5 -31.5t-3.5 -28.5q-6 -11 -22 -15t-42 11q-24 14 -49.5 40.5t-65.5 64.5q12 -51 23 -88t12 -64q-1 -30 -13 -42t-26 -12q-13 0 -24 11.5t-11 42.5q0 28 10 63t24 89
q-39 -36 -65.5 -64t-49.5 -42q-26 -15 -42.5 -10.5t-23.5 16.5q-7 11 -2 26.5t31 31.5q24 14 59.5 22t88.5 24q-51 15 -88 24t-61 23q-26 15 -30.5 31.5t3.5 28.5q6 11 22 15t42 -11q24 -14 49.5 -41t65.5 -65q-13 52 -23.5 88t-10.5 65q0 30 11.5 42t25.5 12t25 -12t11 -42
q0 -28 -10.5 -63.5t-23.5 -89.5l64.5 65t50.5 42q26 15 42.5 10.5t23.5 -16.5z" />
    <glyph glyph-name="ellipsis" unicode="&#x2026;" horiz-adv-x="795" 
d="M53 0zM334 50q0 26 19 45t45 19t45 -19t19 -45t-19 -45t-45 -19t-45 19t-19 45zM53 50q0 26 19 45t45 19t45 -19t19 -45t-19 -45t-45 -19t-45 19t-19 45zM614 50q0 26 19 45t45 19t45 -19t19 -45t-19 -45t-45 -19t-45 19t-19 45z" />
    <glyph glyph-name="colon" unicode=":" horiz-adv-x="260" 
d="M66 0zM66 50q0 26 19 45t45 19t45 -19t19 -45t-19 -45t-45 -19t-45 19t-19 45zM66 464q0 26 19 45t45 19t45 -19t19 -45t-19 -45t-45 -19t-45 19t-19 45z" />
    <glyph glyph-name="semicolon" unicode=";" horiz-adv-x="278" 
d="M70 0zM70 50q0 28 19 46t45 18q22 0 36 -9t23 -23q11 -17 14 -35.5t3 -30.5q0 -49 -24.5 -89t-78.5 -65l-9 18q15 6 29 17t24.5 24t16.5 27.5t6 29.5q0 12 -3 21q-16 -13 -37 -13q-26 0 -45 17t-19 47zM77 464q0 26 19 45t45 19t45 -19t19 -45t-19 -45t-45 -19t-45 19
t-19 45z" />
    <glyph glyph-name="softhyphen" unicode="&#xad;" horiz-adv-x="493" 
 />
    <glyph glyph-name="underscore" unicode="_" horiz-adv-x="471" 
d="M9 -115h453v-40h-453v40z" />
    <glyph glyph-name="slash" unicode="/" horiz-adv-x="373" 
d="M34 -14l272 736h33l-272 -736h-33z" />
    <glyph glyph-name="backslash" unicode="\" horiz-adv-x="373" 
d="M34 0zM339.002 -14l-271.983 736h-32.998l271.983 -736h32.998z" />
    <glyph glyph-name="A" unicode="A" horiz-adv-x="628" 
d="M395 268h-239l-63 -164q-10 -26 -11.5 -41.5t5.5 -24.5t22.5 -13t41.5 -5v-20q-15 2 -39.5 2.5t-51.5 0.5q-17 0 -35.5 -0.5t-31.5 -2.5v20q16 1 35 13.5t34 50.5l244 629h16l244 -629q15 -38 34 -50.5t35 -13.5v-20q-20 2 -49 2.5t-58 0.5q-39 0 -73 -0.5t-55 -2.5v20
q25 1 41 5t23 13t5.5 24.5t-11.5 41.5zM163 288h224l-111 291z" />
    <glyph glyph-name="B" unicode="B" horiz-adv-x="622" 
d="M315 707q106 0 158.5 -44t52.5 -113q0 -27 -8 -52.5t-26 -48.5t-47 -41.5t-71 -31.5v-2q59 -8 98.5 -25.5t63 -42t33 -53.5t9.5 -59q0 -43 -16.5 -78.5t-47.5 -61t-75.5 -40t-100.5 -14.5q-23 0 -66.5 1.5t-105.5 1.5q-35 0 -69 -0.5t-55 -2.5v20q25 1 41 4.5t25 12.5
t12 25.5t3 43.5v496q0 27 -3 43.5t-12 25.5t-25 12.5t-41 4.5v20q21 -2 55 -2.5t67 -0.5q24 0 47 0.5t43 0.5t36 0.5t25 0.5zM290 688q-23 0 -37.5 -3.5t-22.5 -13.5t-11 -26.5t-3 -42.5v-226h67q44 0 72.5 13t45 35.5t23 52t6.5 62.5q0 74 -32.5 111.5t-107.5 37.5z
M216 359v-253q0 -26 3 -42.5t11 -25.5t23 -12t38 -3q99 0 143 45t44 130q0 76 -41.5 118.5t-136.5 42.5h-84z" />
    <glyph glyph-name="C" unicode="C" horiz-adv-x="688" 
d="M597 478q-5 32 -9.5 54t-10 38.5t-13 29t-17.5 26.5q-32 41 -78.5 59.5t-98.5 18.5q-49 0 -88.5 -24.5t-68 -70t-44 -111t-15.5 -146.5q0 -84 17 -148.5t47.5 -108.5t72 -66.5t89.5 -22.5q22 0 46.5 4.5t47.5 13.5t43 23.5t34 34.5q11 15 18 30t12 33.5t8.5 41.5t7.5 53
h23q0 -91 1 -146.5t3 -93.5h-23q-4 43 -13.5 54t-31.5 -3q-18 -13 -37.5 -25t-41.5 -21t-48 -14t-58 -5q-71 0 -129.5 24.5t-100 71t-64.5 113.5t-23 153q0 84 23.5 153t65.5 118t100.5 76t128.5 27q66 0 108.5 -19.5t75.5 -45.5q20 -15 30.5 -3.5t14.5 54.5h23
q-2 -37 -3 -90t-1 -140h-23z" />
    <glyph glyph-name="D" unicode="D" horiz-adv-x="721" 
d="M668 362q0 -82 -24 -148.5t-70.5 -114t-114 -73.5t-153.5 -26q-11 0 -28.5 0.5t-37 1l-39 1t-35.5 0.5q-35 0 -69 -0.5t-55 -2.5v20q25 1 41 4.5t25 12.5t12 25.5t3 43.5v496q0 27 -3 43.5t-12 25.5t-25 12.5t-41 4.5v20q21 -2 55 -3t67 0q35 1 78.5 2t72.5 1
q178 0 265.5 -89.5t87.5 -256.5zM568 358q0 84 -14.5 146.5t-47 103.5t-85.5 61.5t-131 20.5q-23 0 -37.5 -3.5t-22.5 -13.5t-11 -26.5t-3 -42.5v-500q0 -26 3 -43t11 -26.5t23 -13t38 -3.5q82 0 135.5 22.5t85 66t44 106.5t12.5 145z" />
    <glyph glyph-name="E" unicode="E" horiz-adv-x="609" 
d="M420 23q37 0 57.5 9t32 30t16 54.5t8.5 83.5h23q-2 -14 -2.5 -32.5t-0.5 -39.5q0 -19 1.5 -54.5t5.5 -73.5q-26 1 -55.5 1.5l-59.5 1t-59.5 0.5h-54.5h-57t-73.5 -0.5l-81 -1t-78.5 -1.5v20q25 1 41 4.5t25 12.5t12 25.5t3 43.5v496q0 27 -3 43.5t-12 25.5t-25 12.5
t-41 4.5v20q37 -1 78.5 -1.5l81 -1t73.5 -0.5h57h49.5t54.5 0.5l55 1t50 1.5q-4 -35 -5.5 -68t-1.5 -50q0 -18 0.5 -34.5t2.5 -27.5h-23q-4 44 -9 74t-16 48.5t-29.5 26.5t-49.5 8h-113q-26 0 -41.5 -2.5t-24.5 -11.5t-12 -25.5t-3 -43.5v-236h113q26 0 39.5 12t20.5 29
t9 36.5t4 34.5h23q-2 -25 -2.5 -43t-0.5 -32v-25v-22v-22t1 -25t2 -32t3 -43h-23q-2 20 -4.5 40t-10 36t-21.5 26t-40 10h-113v-240q0 -27 3 -43.5t12 -25.5t24.5 -11.5t41.5 -2.5h123z" />
    <glyph glyph-name="F" unicode="F" horiz-adv-x="565" 
d="M316 0q-26 2 -66 2.5t-81 0.5q-39 0 -73 -0.5t-55 -2.5v20q25 1 41 4.5t25 12.5t12 25.5t3 43.5v496q0 27 -3 43.5t-12 25.5t-25 12.5t-41 4.5v20q37 -1 78.5 -1.5l81 -1t73.5 -0.5h57h49.5t54.5 0.5l55 1t50 1.5q-4 -35 -5.5 -68t-1.5 -50q0 -18 0.5 -34.5t2.5 -27.5
h-23q-4 44 -9 74t-16 48.5t-29.5 26.5t-49.5 8h-113q-26 0 -41.5 -2.5t-24.5 -11.5t-12 -25.5t-3 -43.5v-236h113q26 0 39.5 12t20.5 29t9 36.5t4 34.5h23q-2 -25 -2.5 -43t-0.5 -32v-25v-22v-22t1 -25t2 -32t3 -43h-23q-2 20 -4.5 40t-10 36t-21.5 26t-40 10h-113v-240
q0 -27 4 -43.5t15 -25.5t30.5 -12.5t51.5 -4.5v-20z" />
    <glyph glyph-name="G" unicode="G" horiz-adv-x="703" 
d="M572 57q-6 0 -12 -3t-21 -14q-33 -25 -70 -39.5t-86 -14.5q-78 0 -139 24.5t-103 70t-64 111.5t-22 150q0 87 24 157.5t67 120t102 76t129 26.5q33 0 58.5 -5.5t46.5 -14.5t39 -20.5t36 -24.5q13 -10 20 -10q19 0 25 61h23q-2 -37 -3 -90t-1 -140h-23q-7 42 -17 80.5
t-33 67.5q-29 37 -75.5 57.5t-97.5 20.5q-50 0 -90.5 -24.5t-69.5 -70.5t-44.5 -110.5t-15.5 -145.5q0 -180 58 -263.5t180 -83.5q36 0 62.5 10t41.5 21q19 13 24 24.5t5 30.5v96q0 30 -4 48.5t-15 28.5t-31 14t-51 5v20q13 -1 30.5 -1.5l36.5 -1t38 -0.5h36q68 0 104 3v-20
q-17 -1 -27 -4t-15 -12t-7 -25.5t-2 -44.5v-198h-20q0 9 -2 19t-5.5 18.5t-8.5 14t-11 5.5z" />
    <glyph glyph-name="H" unicode="H" horiz-adv-x="757" 
d="M123 602q0 27 -3 43.5t-12 25.5t-25 12.5t-41 4.5v20q21 -2 55 -2.5t73 -0.5q35 0 69.5 0.5t57.5 2.5v-20q-26 -1 -41.5 -4.5t-24.5 -12.5t-12 -25.5t-3 -43.5v-236h325v236q0 27 -3 43.5t-12 25.5t-25 12.5t-41 4.5v20q23 -2 57.5 -2.5t69.5 -0.5q39 0 73 0.5t55 2.5
v-20q-26 -1 -41.5 -4.5t-24.5 -12.5t-12 -25.5t-3 -43.5v-496q0 -27 3 -43.5t12 -25.5t24.5 -12.5t41.5 -4.5v-20q-21 2 -55 2.5t-73 0.5q-35 0 -69.5 -0.5t-57.5 -2.5v20q25 1 41 4.5t25 12.5t12 25.5t3 43.5v240h-325v-240q0 -27 3 -43.5t12 -25.5t24.5 -12.5t41.5 -4.5
v-20q-23 2 -57.5 2.5t-69.5 0.5q-39 0 -73 -0.5t-55 -2.5v20q25 1 41 4.5t25 12.5t12 25.5t3 43.5v496z" />
    <glyph glyph-name="I" unicode="I" horiz-adv-x="339" 
d="M216 106q0 -27 3 -43.5t12 -25.5t24.5 -12.5t41.5 -4.5v-20q-23 2 -57.5 2.5t-69.5 0.5q-39 0 -73 -0.5t-55 -2.5v20q25 1 41 4.5t25 12.5t12 25.5t3 43.5v496q0 27 -3 43.5t-12 25.5t-25 12.5t-41 4.5v20q21 -2 55 -2.5t73 -0.5q35 0 69.5 0.5t57.5 2.5v-20
q-26 -1 -41.5 -4.5t-24.5 -12.5t-12 -25.5t-3 -43.5v-496z" />
    <glyph glyph-name="J" unicode="J" horiz-adv-x="328" 
d="M-83 -153q10 -10 30.5 -13t33.5 -3q44 0 75 22.5t45 62.5q5 16 8.5 34t5.5 44.5t2.5 62.5t0.5 88v457q0 27 -3 43.5t-12 25.5t-25 12.5t-41 4.5v20q21 -2 55 -2.5t73 -0.5q35 0 69.5 0.5t57.5 2.5v-20q-26 -1 -41.5 -4.5t-24.5 -12.5t-12 -25.5t-3 -43.5v-366
q0 -31 -0.5 -66.5t-2 -70t-5 -67t-9.5 -57.5q-8 -35 -26 -64.5t-45 -51.5t-62 -34.5t-78 -12.5q-28 0 -49 5.5t-35 12.5q-48 25 -48 69q0 23 15 38t38 15t39 -14t16 -40q0 -22 -11.5 -34.5t-30.5 -16.5z" />
    <glyph glyph-name="K" unicode="K" horiz-adv-x="642" 
d="M501 652q13 17 -0.5 25.5t-64.5 11.5v19q54 -3 108 -3q42 0 71 3v-19q-29 -2 -55.5 -15t-47.5 -40l-178 -228l232 -325q17 -25 37 -39t51 -22v-20q-12 1 -27.5 1.5l-32 1t-32.5 0.5h-28q-20 0 -49 -0.5t-74 -2.5v20q26 1 39.5 3t18 7.5t1 13.5t-11.5 21l-146 220
l-24 33.5t-20.5 22t-22.5 12.5t-29 5v-252q0 -27 3 -43.5t12 -25.5t24.5 -12.5t41.5 -4.5v-20q-23 2 -57.5 2.5t-69.5 0.5q-39 0 -73 -0.5t-55 -2.5v20q25 1 41 4.5t25 12.5t12 25.5t3 43.5v496q0 27 -3 43.5t-12 25.5t-25 12.5t-41 4.5v20q21 -2 55 -2.5t73 -0.5
q35 0 69.5 0.5t57.5 2.5v-20q-26 -1 -41.5 -4.5t-24.5 -12.5t-12 -25.5t-3 -43.5v-224q40 2 67.5 17.5t46.5 38.5z" />
    <glyph glyph-name="L" unicode="L" horiz-adv-x="586" 
d="M557 210q-3 -32 -3 -82q0 -19 1.5 -54.5t5.5 -73.5q-26 1 -55.5 1.5l-59.5 1t-59.5 0.5h-54.5h-57t-73.5 -0.5l-81 -1t-78.5 -1.5v20q25 1 41 4.5t25 12.5t12 25.5t3 43.5v496q0 27 -3 43.5t-12 25.5t-25 12.5t-41 4.5v20q21 -2 55 -2.5t73 -0.5q35 0 69.5 0.5t57.5 2.5
v-20q-26 -1 -41.5 -4.5t-24.5 -12.5t-12 -25.5t-3 -43.5v-496q0 -27 3 -43.5t12 -25.5t24.5 -11.5t41.5 -2.5h123q25 0 44.5 9.5t33.5 31.5t23 58t13 88h23z" />
    <glyph glyph-name="M" unicode="M" horiz-adv-x="871" 
d="M135 705q25 0 49 0.5t43 2.5l224 -574l204 571h47q35 0 69.5 0.5t57.5 2.5v-20q-26 -1 -41.5 -4.5t-24.5 -12.5t-12 -25.5t-3 -43.5v-496q0 -27 3 -43.5t12 -25.5t24.5 -12.5t41.5 -4.5v-20q-23 2 -57.5 2.5t-69.5 0.5q-39 0 -73 -0.5t-55 -2.5v20q25 1 41 4.5t25 12.5
t12 25.5t3 43.5v536l-231 -647h-16l-262 649v-538q0 -27 3 -43.5t12 -25.5t24.5 -12.5t41.5 -4.5v-20q-18 2 -42 2.5t-50 0.5t-51 -0.5t-42 -2.5v20q25 1 41 4.5t25 12.5t12 25.5t3 43.5v496q0 27 -3 43.5t-12 25.5t-25 12.5t-41 4.5v20q17 -2 42 -2.5t51 -0.5z" />
    <glyph glyph-name="N" unicode="N" horiz-adv-x="707" 
d="M589 -5h-23l-420 649v-538q0 -27 3 -43.5t12 -25.5t24.5 -12.5t41.5 -4.5v-20q-18 2 -42 2.5t-50 0.5t-51 -0.5t-42 -2.5v20q25 1 41 4.5t25 12.5t12 25.5t3 43.5v496q0 27 -3 43.5t-12 25.5t-25 12.5t-41 4.5v20q17 -2 42 -2.5t51 -0.5q25 0 49 0.5t43 2.5l339 -524v418
q0 27 -3 43.5t-12 25.5t-25 12.5t-41 4.5v20q18 -2 42 -2.5t50 -0.5t51 0.5t42 2.5v-20q-26 -1 -41.5 -4.5t-24.5 -12.5t-12 -25.5t-3 -43.5v-607z" />
    <glyph glyph-name="O" unicode="O" horiz-adv-x="743" 
d="M54 348q0 84 23.5 153t65.5 118t100.5 76t128.5 27q71 0 129.5 -24.5t100 -71t64.5 -113.5t23 -153q0 -84 -23.5 -153t-65.5 -118t-100.5 -76t-128.5 -27q-71 0 -129.5 24.5t-100 71t-64.5 113.5t-23 153zM154 352q0 -80 17 -144.5t47 -109.5t70.5 -69.5t86.5 -24.5
q49 0 88.5 26t67.5 72.5t43 111t15 142.5q0 80 -17 144.5t-47 109.5t-70.5 69.5t-86.5 24.5q-49 0 -88.5 -26t-67.5 -72.5t-43 -111t-15 -142.5z" />
    <glyph glyph-name="P" unicode="P" horiz-adv-x="588" 
d="M216 286v-180q0 -27 3 -43.5t12 -25.5t24.5 -12.5t41.5 -4.5v-20q-23 2 -57.5 2.5t-69.5 0.5q-39 0 -73 -0.5t-55 -2.5v20q25 1 41 4.5t25 12.5t12 25.5t3 43.5v496q0 27 -3 43.5t-12 25.5t-25 12.5t-41 4.5v20q21 -2 55 -2.5t67 -0.5q24 0 47 0.5t43 0.5t36 0.5t25 0.5
q60 0 105.5 -14.5t75.5 -40.5t45 -62.5t15 -79.5q0 -36 -12 -75.5t-42 -72.5t-80.5 -54.5t-128.5 -21.5h-77zM216 306h67q53 0 87 16t53 42.5t26 61.5t7 73q0 95 -37.5 142t-128.5 47q-23 0 -37.5 -3.5t-22.5 -13.5t-11 -26.5t-3 -42.5v-296z" />
    <glyph glyph-name="Q" unicode="Q" horiz-adv-x="740" 
d="M50 348q0 84 23.5 153t65.5 118t100.5 76t128.5 27q71 0 129.5 -24.5t100 -71t64.5 -113.5t23 -153q0 -79 -21 -145t-58.5 -114.5t-90.5 -77.5t-116 -35v-1q-23 -3 -40.5 -8.5t-34 -12.5l-34 -14.5t-39.5 -13.5q37 -8 80.5 -16l86 -15.5t82 -12t68.5 -4.5q72 0 113 21
t64 66l15 -6q-12 -42 -27.5 -69t-35.5 -45q-19 -17 -51.5 -31t-83.5 -14q-40 0 -77 10.5t-75.5 26.5l-80 34.5t-89.5 34.5q-16 5 -18 5t-6 2q-20 -7 -41.5 -11t-41.5 -4t-33 4.5t-13 15.5q0 21 54 21q35 0 75 -8q35 10 60 22t53 23q-63 6 -114.5 33t-88 73t-56.5 110
t-20 144zM150 352q0 -80 17 -144.5t47 -109.5t70.5 -69.5t86.5 -24.5q49 0 88.5 26t67.5 72.5t43 111t15 142.5q0 80 -17 144.5t-47 109.5t-70.5 69.5t-86.5 24.5q-49 0 -88.5 -26t-67.5 -72.5t-43 -111t-15 -142.5z" />
    <glyph glyph-name="R" unicode="R" horiz-adv-x="647" 
d="M660 50q-21 -31 -43.5 -47.5t-63.5 -16.5q-19 0 -35.5 5t-30 17t-24 33t-17.5 53l-22 100q-7 32 -14.5 58t-19.5 45t-30.5 29t-48.5 10h-95v-230q0 -27 3 -43.5t12 -25.5t24.5 -12.5t41.5 -4.5v-20q-23 2 -57.5 2.5t-69.5 0.5q-39 0 -73 -0.5t-55 -2.5v20q25 1 41 4.5
t25 12.5t12 25.5t3 43.5v496q0 27 -3 43.5t-12 25.5t-25 12.5t-41 4.5v20q21 -2 55 -2.5t67 -0.5q24 0 47 0.5t43 0.5t36 0.5t25 0.5q60 0 105.5 -13.5t75.5 -37t45 -55t15 -68.5q0 -26 -9 -56t-31 -57.5t-59.5 -48.5t-93.5 -30q3 -1 5.5 -1.5t5.5 -0.5q33 -6 57 -15.5
t41 -25t28 -38t18 -53.5l23 -102q10 -45 19.5 -64t31.5 -18q17 1 28 11t25 27zM216 356h67q53 0 87 13t53 35.5t26 52.5t7 65q0 79 -37.5 122.5t-128.5 43.5q-23 0 -37.5 -3.5t-22.5 -13.5t-11 -26.5t-3 -42.5v-246z" />
    <glyph glyph-name="S" unicode="S" horiz-adv-x="540" 
d="M457 712q-1 -13 -2 -29t-1.5 -39t-1 -56t-0.5 -80h-23q-3 36 -13 70.5t-30 61.5t-49.5 43.5t-71.5 16.5q-54 0 -88 -32t-34 -84q0 -34 13.5 -59t36.5 -45.5t53.5 -39l64.5 -39.5q39 -24 72 -47.5t57 -49.5t37.5 -57t13.5 -71q0 -48 -17 -83.5t-45.5 -59t-67.5 -35.5
t-82 -12q-53 0 -84 11.5t-53 25.5t-34 14q-10 0 -14.5 -11t-7.5 -33h-23q1 15 2 35t1.5 47.5t0.5 66v91.5h23q3 -45 14 -86.5t32 -72.5t54.5 -49.5t81.5 -18.5q24 0 47.5 7.5t42 23.5t29.5 41.5t11 60.5q0 30 -11.5 54.5t-32 46t-49 41.5t-63.5 41q-36 21 -68 43t-56.5 48
t-39 58.5t-14.5 74.5q0 44 15.5 76.5t41.5 54t60 32t71 10.5q25 0 43 -3.5t32.5 -8.5t25.5 -11.5t21 -13.5q22 -14 34 -14q10 0 14.5 11t7.5 33h23z" />
    <glyph glyph-name="T" unicode="T" horiz-adv-x="637" 
d="M272 685h-104q-26 0 -45 -9.5t-33 -31.5t-23 -58t-13 -88h-23q2 16 2.5 37t0.5 45q0 19 -1.5 54.5t-5.5 73.5q32 -1 70 -1.5l76.5 -1t76 -0.5h69.5h69.5t76 0.5l76 1t69.5 1.5q-4 -38 -5.5 -73.5t-1.5 -54.5q0 -24 0.5 -45t2.5 -37h-23q-4 52 -13 88t-23 58t-33.5 31.5
t-44.5 9.5h-104v-569q0 -30 4 -48.5t15 -28.5t30.5 -14t51.5 -5v-20q-26 2 -66 2.5t-81 0.5q-45 0 -84.5 -0.5t-63.5 -2.5v20q31 1 51 5t31 14t15 28.5t4 48.5v569z" />
    <glyph glyph-name="U" unicode="U" horiz-adv-x="683" 
d="M109 602q0 27 -3 43.5t-12 25.5t-25 12.5t-41 4.5v20q21 -2 55 -2.5t73 -0.5q35 0 69.5 0.5t57.5 2.5v-20q-26 -1 -41.5 -4.5t-24.5 -12.5t-12 -25.5t-3 -43.5v-331q0 -51 4.5 -96.5t21 -79.5t48 -54t84.5 -20q57 0 94 19.5t58.5 54t30.5 82t9 103.5v322q0 27 -3 43.5
t-12 25.5t-25 12.5t-41 4.5v20q18 -2 42 -2.5t50 -0.5t51 0.5t42 2.5v-20q-26 -1 -41.5 -4.5t-24.5 -12.5t-12 -25.5t-3 -43.5v-311q0 -70 -9 -122t-32 -90q-25 -42 -73 -67.5t-110 -25.5q-48 0 -91.5 11.5t-76.5 42.5q-22 21 -36.5 43t-22.5 50.5t-11.5 66t-3.5 88.5v314z
" />
    <glyph glyph-name="V" unicode="V" horiz-adv-x="628" 
d="M62 624q-15 38 -34 50.5t-35 13.5v20q20 -2 49 -2.5t58 -0.5q39 0 73 0.5t55 2.5v-20q-36 -2 -53 -9.5t-17 -27.5q0 -17 12 -47l181 -475l184 475q12 30 12 47q0 20 -17 27.5t-53 9.5v20q15 -2 39.5 -2.5t51.5 -0.5q17 0 35.5 0.5t31.5 2.5v-20q-16 -1 -35 -13.5
t-34 -50.5l-244 -629h-16z" />
    <glyph glyph-name="W" unicode="W" horiz-adv-x="900" 
d="M60 624q-14 39 -33.5 51t-35.5 13v20q20 -2 49 -2.5t58 -0.5q33 0 61.5 0.5t46.5 2.5v-20q-23 -2 -35.5 -9t-12.5 -27q0 -19 10 -48l153 -466l136 342l-48 144q-13 39 -29 51t-30 13v20q18 -2 44.5 -2.5t52.5 -0.5q39 0 73 0.5t55 2.5v-20q-36 -2 -52 -8.5t-16 -27.5
q0 -18 10 -48l144 -445l142 445q9 30 9 47q0 22 -16 28.5t-52 8.5v20q15 -2 39.5 -2.5t51.5 -0.5q17 0 35.5 0.5t31.5 2.5v-20q-8 0 -17.5 -3t-19 -9.5t-18 -19t-14.5 -32.5l-196 -629h-16l-152 451l-181 -451h-16z" />
    <glyph glyph-name="X" unicode="X" horiz-adv-x="624" 
d="M17 709q11 -1 34.5 -2.5t46.5 -1.5q20 0 41 0.5t39.5 1t34.5 1.5t26 1v-21q-42 0 -55.5 -6.5t0.5 -27.5l154 -242l146 214q22 32 8 47t-71 15v20q29 -2 59 -2.5t54 -0.5q43 0 67 3v-20q-22 -2 -41 -9.5t-39 -37.5l-171 -248l205 -322q19 -29 30.5 -39t31.5 -11v-21
q-11 1 -34.5 2.5t-46.5 1.5q-20 0 -41 -0.5t-39.5 -1t-34.5 -1.5t-26 -1v21q42 0 55.5 6.5t-0.5 27.5l-166 261l-156 -234q-21 -32 -7.5 -47t70.5 -15v-20q-29 2 -59 2.5t-54 0.5q-43 0 -67 -3v20q22 2 41 10t39 37l180 268l-192 303q-19 29 -31 38.5t-31 11.5v21z" />
    <glyph glyph-name="Y" unicode="Y" horiz-adv-x="587" 
d="M176 20q25 1 41 4.5t25 12.5t12 25.5t3 43.5v150l-203 376q-20 37 -33.5 46.5t-24.5 9.5v21q39 -6 88 -6q33 0 70.5 2t69.5 4v-21q-19 0 -36 -1t-28 -4.5t-15 -11.5t3 -21l184 -352l176 351q7 14 4 22t-13.5 11.5t-26 4.5t-33.5 1v21q21 -2 44 -3t41 -1q37 0 57 4v-21
q-11 0 -24 -9t-33 -47l-174 -344v-182q0 -27 3 -43.5t12 -25.5t24.5 -12.5t41.5 -4.5v-20q-23 2 -57.5 2.5t-69.5 0.5q-39 0 -73 -0.5t-55 -2.5v20v0z" />
    <glyph glyph-name="Z" unicode="Z" horiz-adv-x="591" 
d="M203 685q-26 0 -45 -9.5t-33 -31.5t-23 -58t-13 -88h-23q2 16 2.5 37t0.5 45q0 19 -1.5 54.5t-5.5 73.5q28 -1 60 -1.5l65 -1t65 -0.5h59q57 0 122.5 0.5t120.5 2.5v-20l-399 -665h246q25 0 44.5 9.5t33.5 31.5t23 58t13 88h23q-3 -32 -3 -82q0 -19 1.5 -54.5t5.5 -73.5
q-28 1 -60 1.5l-65 1t-65 0.5h-59q-60 0 -125 -0.5t-122 -2.5v20l402 665h-245z" />
    <glyph glyph-name="Thorn" unicode="&#xde;" horiz-adv-x="590" 
d="M216 571q30 1 54.5 1.5t37.5 0.5q60 0 105.5 -14t75.5 -39.5t45 -60.5t15 -76q0 -38 -12 -79t-42 -74.5t-80.5 -55.5t-128.5 -22h-70v-46q0 -27 3 -43.5t12 -25.5t24.5 -12.5t41.5 -4.5v-20q-23 2 -57.5 2.5t-69.5 0.5q-39 0 -73 -0.5t-55 -2.5v20q25 1 41 4.5t25 12.5
t12 25.5t3 43.5v496q0 27 -3 43.5t-12 25.5t-25 12.5t-41 4.5v20q21 -2 55 -2.5t73 -0.5q35 0 69.5 0.5t57.5 2.5v-20q-26 -1 -41.5 -4.5t-24.5 -12.5t-12 -25.5t-3 -43.5v-31zM283 554h-33t-34 -1v-381h60q53 0 87 16t53 43.5t26 64t7 76.5q0 90 -37.5 136t-128.5 46z" />
    <glyph glyph-name="Agrave" unicode="&#xc0;" horiz-adv-x="628" 
d="M0 0zM395 268h-239l-63 -164q-10 -26 -11.5 -41.5t5.5 -24.5t22.5 -13t41.5 -5v-20q-15 2 -39.5 2.5t-51.5 0.5q-17 0 -35.5 -0.5t-31.5 -2.5v20q16 1 35 13.5t34 50.5l244 629h16l244 -629q15 -38 34 -50.5t35 -13.5v-20q-20 2 -49 2.5t-58 0.5q-39 0 -73 -0.5t-55 -2.5
v20q25 1 41 5t23 13t5.5 24.5t-11.5 41.5zM163 288h224l-111 291zM345 772q-39 19 -69 32t-54 22.5l-43 17t-35 17.5q-21 14 -25 29.5t4 28.5t24.5 16.5t36.5 -9.5q16 -10 31 -23.5l34 -31l43.5 -39t59.5 -47.5z" />
    <glyph glyph-name="grave.cap" horiz-adv-x="275" 
d="M248 772q-39 19 -69 32t-54 22.5l-43 17t-35 17.5q-21 14 -25 29.5t4 28.5t24.5 16.5t36.5 -9.5q16 -10 31 -23.5l34 -31l43.5 -39t59.5 -47.5z" />
    <glyph glyph-name="Aacute" unicode="&#xc1;" horiz-adv-x="628" 
d="M0 0zM395 268h-239l-63 -164q-10 -26 -11.5 -41.5t5.5 -24.5t22.5 -13t41.5 -5v-20q-15 2 -39.5 2.5t-51.5 0.5q-17 0 -35.5 -0.5t-31.5 -2.5v20q16 1 35 13.5t34 50.5l244 629h16l244 -629q15 -38 34 -50.5t35 -13.5v-20q-20 2 -49 2.5t-58 0.5q-39 0 -73 -0.5t-55 -2.5
v20q25 1 41 5t23 13t5.5 24.5t-11.5 41.5zM163 288h224l-111 291zM274 785q34 26 59 47.5l44 39l34 31t31 23.5q20 13 36.5 9.5t24.5 -16.5t4 -28.5t-25 -29.5q-16 -10 -35 -17.5l-43 -17t-54 -22.5t-69 -32z" />
    <glyph glyph-name="acute.cap" horiz-adv-x="275" 
d="M20 785q34 26 59 47.5l44 39l34 31t31 23.5q20 13 36.5 9.5t24.5 -16.5t4 -28.5t-25 -29.5q-16 -10 -35 -17.5l-43 -17t-54 -22.5t-69 -32z" />
    <glyph glyph-name="Acircumflex" unicode="&#xc2;" horiz-adv-x="628" 
d="M0 0zM395 268h-239l-63 -164q-10 -26 -11.5 -41.5t5.5 -24.5t22.5 -13t41.5 -5v-20q-15 2 -39.5 2.5t-51.5 0.5q-17 0 -35.5 -0.5t-31.5 -2.5v20q16 1 35 13.5t34 50.5l244 629h16l244 -629q15 -38 34 -50.5t35 -13.5v-20q-20 2 -49 2.5t-58 0.5q-39 0 -73 -0.5t-55 -2.5
v20q25 1 41 5t23 13t5.5 24.5t-11.5 41.5zM163 288h224l-111 291zM294 840q-29 -19 -76 -38t-95 -32l-5 14q66 23 115 58.5t72 73.5h18q23 -38 72 -73.5t115 -58.5l-5 -14q-30 6 -60.5 14.5t-58 17.5t-51.5 19t-41 19z" />
    <glyph glyph-name="circumflex.cap" horiz-adv-x="422" 
d="M191 840q-29 -19 -76 -38t-95 -32l-5 14q66 23 115 58.5t72 73.5h18q23 -38 72 -73.5t115 -58.5l-5 -14q-30 6 -60.5 14.5t-58 17.5t-51.5 19t-41 19z" />
    <glyph glyph-name="Atilde" unicode="&#xc3;" horiz-adv-x="628" 
d="M0 0zM395 268h-239l-63 -164q-10 -26 -11.5 -41.5t5.5 -24.5t22.5 -13t41.5 -5v-20q-15 2 -39.5 2.5t-51.5 0.5q-17 0 -35.5 -0.5t-31.5 -2.5v20q16 1 35 13.5t34 50.5l244 629h16l244 -629q15 -38 34 -50.5t35 -13.5v-20q-20 2 -49 2.5t-58 0.5q-39 0 -73 -0.5t-55 -2.5
v20q25 1 41 5t23 13t5.5 24.5t-11.5 41.5zM163 288h224l-111 291zM428 825q20 0 36.5 12t25.5 44l15 -3q-5 -50 -37 -78t-74 -28q-28 0 -52 12t-47 26.5t-46 26.5t-49 12q-21 0 -37 -12t-25 -44l-15 3q5 50 37 78t74 28q28 0 52 -12t47 -26.5t46 -26.5t49 -12z" />
    <glyph glyph-name="tilde.cap" horiz-adv-x="472" 
d="M350 825q20 0 36.5 12t25.5 44l15 -3q-5 -50 -37 -78t-74 -28q-28 0 -52 12t-47 26.5t-46 26.5t-49 12q-21 0 -37 -12t-25 -44l-15 3q5 50 37 78t74 28q28 0 52 -12t47 -26.5t46 -26.5t49 -12z" />
    <glyph glyph-name="Adieresis" unicode="&#xc4;" horiz-adv-x="628" 
d="M0 0zM395 268h-239l-63 -164q-10 -26 -11.5 -41.5t5.5 -24.5t22.5 -13t41.5 -5v-20q-15 2 -39.5 2.5t-51.5 0.5q-17 0 -35.5 -0.5t-31.5 -2.5v20q16 1 35 13.5t34 50.5l244 629h16l244 -629q15 -38 34 -50.5t35 -13.5v-20q-20 2 -49 2.5t-58 0.5q-39 0 -73 -0.5t-55 -2.5
v20q25 1 41 5t23 13t5.5 24.5t-11.5 41.5zM163 288h224l-111 291zM150 830q0 23 17 40.5t41 17.5q23 0 40.5 -17.5t17.5 -40.5q0 -24 -17.5 -41t-40.5 -17q-24 0 -41 17t-17 41zM362 830q0 23 17 40.5t41 17.5q23 0 40.5 -17.5t17.5 -40.5q0 -24 -17.5 -41t-40.5 -17
q-24 0 -41 17t-17 41z" />
    <glyph glyph-name="dieresis.cap" horiz-adv-x="378" 
d="M25 830q0 23 17 40.5t41 17.5q23 0 40.5 -17.5t17.5 -40.5q0 -24 -17.5 -41t-40.5 -17q-24 0 -41 17t-17 41zM237 830q0 23 17 40.5t41 17.5q23 0 40.5 -17.5t17.5 -40.5q0 -24 -17.5 -41t-40.5 -17q-24 0 -41 17t-17 41z" />
    <glyph glyph-name="Aring" unicode="&#xc5;" horiz-adv-x="628" 
d="M0 0zM395 268h-239l-63 -164q-10 -26 -11.5 -41.5t5.5 -24.5t22.5 -13t41.5 -5v-20q-15 2 -39.5 2.5t-51.5 0.5q-17 0 -35.5 -0.5t-31.5 -2.5v20q16 1 35 13.5t34 50.5l244 629h16l244 -629q15 -38 34 -50.5t35 -13.5v-20q-20 2 -49 2.5t-58 0.5q-39 0 -73 -0.5t-55 -2.5
v20q25 1 41 5t23 13t5.5 24.5t-11.5 41.5zM163 288h224l-111 291zM312 925q39 0 68 -24.5t29 -66.5q0 -43 -29 -67.5t-68 -24.5q-19 0 -36.5 6.5t-30.5 18.5t-21 29t-8 38t8 38t21 28.5t30.5 18t36.5 6.5zM312 763q25 0 47 17.5t22 52.5t-22 53t-47 18q-24 0 -46 -18
t-22 -53t22 -52.5t46 -17.5z" />
    <glyph glyph-name="ring.cap" horiz-adv-x="263" 
d="M131 925q39 0 68 -24.5t29 -66.5q0 -43 -29 -67.5t-68 -24.5q-19 0 -36.5 6.5t-30.5 18.5t-21 29t-8 38t8 38t21 28.5t30.5 18t36.5 6.5zM131 763q25 0 47 17.5t22 52.5t-22 53t-47 18q-24 0 -46 -18t-22 -53t22 -52.5t46 -17.5z" />
    <glyph glyph-name="Aringacute" unicode="&#x1fa;" horiz-adv-x="628" 
d="M314 875q39 0 68 -24.5t29 -66.5q0 -39 -24 -62.5t-58 -28.5l237 -609q15 -38 34 -50.5t35 -13.5v-20q-20 2 -49 2.5t-58 0.5q-39 0 -73 -0.5t-55 -2.5v20q25 1 41 5t23 13t5.5 24.5t-11.5 41.5l-63 164h-239l-63 -164q-10 -26 -11.5 -41.5t5.5 -24.5t22.5 -13t41.5 -5
v-20q-15 2 -39.5 2.5t-51.5 0.5q-17 0 -35.5 -0.5t-31.5 -2.5v20q16 1 35 13.5t34 50.5l236 609q-33 5 -56.5 29t-23.5 62q0 21 8 38t21 28.5t30.5 18t36.5 6.5zM319 713q23 2 43.5 19t20.5 51q0 35 -22 53t-47 18q-24 0 -46 -18t-22 -53t22 -52.5t46 -17.5h5zM219 888
q34 26 59 47.5l44 39l34 31t31 23.5q20 13 36.5 9.5t24.5 -16.5t4 -28.5t-25 -29.5q-16 -10 -35 -17.5l-43 -17t-54 -22.5t-69 -32zM163 288h224l-111 291z" />
    <glyph glyph-name="Amacron" unicode="&#x100;" horiz-adv-x="628" 
d="M0 0zM395 268h-239l-63 -164q-10 -26 -11.5 -41.5t5.5 -24.5t22.5 -13t41.5 -5v-20q-15 2 -39.5 2.5t-51.5 0.5q-17 0 -35.5 -0.5t-31.5 -2.5v20q16 1 35 13.5t34 50.5l244 629h16l244 -629q15 -38 34 -50.5t35 -13.5v-20q-20 2 -49 2.5t-58 0.5q-39 0 -73 -0.5t-55 -2.5
v20q25 1 41 5t23 13t5.5 24.5t-11.5 41.5zM163 288h224l-111 291zM491 844v-25h-352v25h352z" />
    <glyph glyph-name="macron.cap" horiz-adv-x="402" 
d="M377 844v-25h-352v25h352z" />
    <glyph glyph-name="Abreve" unicode="&#x102;" horiz-adv-x="628" 
d="M0 0zM395 268h-239l-63 -164q-10 -26 -11.5 -41.5t5.5 -24.5t22.5 -13t41.5 -5v-20q-15 2 -39.5 2.5t-51.5 0.5q-17 0 -35.5 -0.5t-31.5 -2.5v20q16 1 35 13.5t34 50.5l244 629h16l244 -629q15 -38 34 -50.5t35 -13.5v-20q-20 2 -49 2.5t-58 0.5q-39 0 -73 -0.5t-55 -2.5
v20q25 1 41 5t23 13t5.5 24.5t-11.5 41.5zM163 288h224l-111 291zM313 844q72 0 118 21t69 44l12 -11q-12 -20 -30.5 -40.5t-43 -37t-56 -27.5t-69.5 -11t-69.5 11t-56.5 27.5t-43 37t-30 40.5l13 10q23 -23 68.5 -43.5t117.5 -20.5z" />
    <glyph glyph-name="breve.cap" horiz-adv-x="448" 
d="M224 844q72 0 118 21t69 44l12 -11q-12 -20 -30.5 -40.5t-43 -37t-56 -27.5t-69.5 -11t-69.5 11t-56.5 27.5t-43 37t-30 40.5l13 10q23 -23 68.5 -43.5t117.5 -20.5z" />
    <glyph glyph-name="Aogonek" unicode="&#x104;" horiz-adv-x="628" 
d="M395 268h-239l-63 -164q-10 -26 -11.5 -41.5t5.5 -24.5t22.5 -13t41.5 -5v-20q-15 2 -39.5 2.5t-51.5 0.5q-17 0 -35.5 -0.5t-31.5 -2.5v20q16 1 35 13.5t34 50.5l244 629h16l244 -629q15 -38 34 -50.5t35 -13.5v-20q-5 0 -11.5 0.5t-12.5 0.5q-56 -16 -76.5 -44
t-20.5 -53q0 -20 11.5 -32t31.5 -12q19 0 35 9.5t26 23.5l15 -13q-23 -35 -51.5 -51.5t-61.5 -16.5q-36 0 -57.5 18t-21.5 47q0 39 35.5 71.5t101.5 53.5q-13 1 -25.5 1h-24.5q-39 0 -73 -0.5t-55 -2.5v20q25 1 41 5t23 13t5.5 24.5t-11.5 41.5zM163 288h224l-111 291z" />
    <glyph glyph-name="ogonek.cap" horiz-adv-x="242" 
d="M201 3q-30 -8 -49.5 -19.5t-31.5 -25t-17 -27.5t-5 -27q0 -20 11.5 -32t31.5 -12q19 0 35 9.5t26 23.5l15 -13q-23 -35 -51.5 -51.5t-61.5 -16.5q-36 0 -57.5 18t-21.5 47q0 39 36 71.5t102 54.5h38z" />
    <glyph glyph-name="AE" unicode="&#xc6;" horiz-adv-x="853" 
d="M664 23q37 0 57.5 9t32 30t16 54.5t8.5 83.5h23q-2 -14 -2.5 -32.5t-0.5 -39.5q0 -19 1.5 -54.5t5.5 -73.5q-23 1 -50 1.5l-55 1t-54.5 0.5h-49.5h-47t-60.5 -0.5l-67 -1t-65.5 -1.5v20q19 1 31 4.5t19 12.5t9 25.5t2 43.5v240h-175l-146 -242q-28 -47 -14 -64.5
t65 -19.5v-20q-15 2 -39.5 2.5t-51.5 0.5q-17 0 -35.5 -0.5t-31.5 -2.5v20q16 1 32 15t37 49l350 578q-8 15 -24.5 19.5t-47.5 6.5v20l98 -3l41 67h24l-41 -67h138h45t49 0.5l49.5 1t45.5 1.5q-4 -35 -5.5 -68t-1.5 -50q0 -18 0.5 -34.5t2.5 -27.5h-23q-4 44 -9 74t-16 48.5
t-29.5 26.5t-49.5 8h-63q-26 0 -41.5 -2.5t-24.5 -11.5t-12 -25.5t-3 -43.5v-236h73q26 0 40 12t20.5 29t8.5 36.5t4 34.5h23q-2 -25 -2.5 -43t-0.5 -32v-25v-22v-22t1 -25t2 -32t3 -43h-23q-2 20 -4.5 40t-10 36t-21.5 26t-40 10h-73v-240q0 -27 3 -43.5t12 -25.5
t24.5 -11.5t41.5 -2.5h73zM417 602q0 9 -0.5 17t-1.5 15l-161 -268h163v236z" />
    <glyph glyph-name="AEacute" unicode="&#x1fc;" horiz-adv-x="853" 
d="M0 0zM664 23q37 0 57.5 9t32 30t16 54.5t8.5 83.5h23q-2 -14 -2.5 -32.5t-0.5 -39.5q0 -19 1.5 -54.5t5.5 -73.5q-23 1 -50 1.5l-55 1t-54.5 0.5h-49.5h-47t-60.5 -0.5l-67 -1t-65.5 -1.5v20q19 1 31 4.5t19 12.5t9 25.5t2 43.5v240h-175l-146 -242q-28 -47 -14 -64.5
t65 -19.5v-20q-15 2 -39.5 2.5t-51.5 0.5q-17 0 -35.5 -0.5t-31.5 -2.5v20q16 1 32 15t37 49l350 578q-8 15 -24.5 19.5t-47.5 6.5v20l98 -3l41 67h24l-41 -67h138h45t49 0.5l49.5 1t45.5 1.5q-4 -35 -5.5 -68t-1.5 -50q0 -18 0.5 -34.5t2.5 -27.5h-23q-4 44 -9 74t-16 48.5
t-29.5 26.5t-49.5 8h-63q-26 0 -41.5 -2.5t-24.5 -11.5t-12 -25.5t-3 -43.5v-236h73q26 0 40 12t20.5 29t8.5 36.5t4 34.5h23q-2 -25 -2.5 -43t-0.5 -32v-25v-22v-22t1 -25t2 -32t3 -43h-23q-2 20 -4.5 40t-10 36t-21.5 26t-40 10h-73v-240q0 -27 3 -43.5t12 -25.5
t24.5 -11.5t41.5 -2.5h73zM417 602q0 9 -0.5 17t-1.5 15l-161 -268h163v236zM400 785q34 26 59 47.5l44 39l34 31t31 23.5q20 13 36.5 9.5t24.5 -16.5t4 -28.5t-25 -29.5q-16 -10 -35 -17.5l-43 -17t-54 -22.5t-69 -32z" />
    <glyph glyph-name="Ccedilla" unicode="&#xc7;" horiz-adv-x="689" 
d="M598 478q-5 32 -9.5 54t-10 38.5t-13 29t-17.5 26.5q-32 41 -78.5 59.5t-98.5 18.5q-49 0 -88.5 -24.5t-68 -70t-44 -111t-15.5 -146.5q0 -84 17 -148.5t47.5 -108.5t72 -66.5t89.5 -22.5q22 0 46.5 4.5t47.5 13.5t43 23.5t34 34.5q11 15 18 30t12 33.5t8.5 41.5t7.5 53
h23q0 -91 1 -146.5t3 -93.5h-23q-4 43 -13.5 54t-31.5 -3q-35 -25 -74 -44t-97 -21l-19 -58q13 3 27.5 5t31.5 2q28 0 44.5 -12t16.5 -35q0 -21 -11 -35.5t-27.5 -23.5t-36.5 -13t-38 -4q-28 0 -48.5 3t-34.5 8l4 18q5 -1 15.5 -2t22.5 -1q15 0 30.5 2t29 7t22 13.5
t8.5 22.5q0 28 -42 28q-8 0 -23 -1.5t-26 -5.5l27 82q-69 2 -125 27.5t-95.5 72t-61.5 112.5t-22 150t23.5 153t65.5 118t100.5 76t128.5 27q66 0 108.5 -19.5t75.5 -45.5q20 -15 30.5 -3.5t14.5 54.5h23q-2 -37 -3 -90t-1 -140h-23z" />
    <glyph glyph-name="cedilla.cap" horiz-adv-x="246" 
d="M119 5l-26 -77q13 3 27.5 5t31.5 2q28 0 44.5 -12t16.5 -35q0 -21 -11 -35.5t-27.5 -23.5t-36.5 -13t-38 -4q-28 0 -48.5 3t-34.5 8l4 18q5 -1 15.5 -2t22.5 -1q15 0 30.5 2t29 7t22 13.5t8.5 22.5q0 28 -42 28q-8 0 -23 -1.5t-26 -5.5l34 101h27z" />
    <glyph glyph-name="Cacute" unicode="&#x106;" horiz-adv-x="688" 
d="M54 0zM597 478q-5 32 -9.5 54t-10 38.5t-13 29t-17.5 26.5q-32 41 -78.5 59.5t-98.5 18.5q-49 0 -88.5 -24.5t-68 -70t-44 -111t-15.5 -146.5q0 -84 17 -148.5t47.5 -108.5t72 -66.5t89.5 -22.5q22 0 46.5 4.5t47.5 13.5t43 23.5t34 34.5q11 15 18 30t12 33.5t8.5 41.5
t7.5 53h23q0 -91 1 -146.5t3 -93.5h-23q-4 43 -13.5 54t-31.5 -3q-18 -13 -37.5 -25t-41.5 -21t-48 -14t-58 -5q-71 0 -129.5 24.5t-100 71t-64.5 113.5t-23 153q0 84 23.5 153t65.5 118t100.5 76t128.5 27q66 0 108.5 -19.5t75.5 -45.5q20 -15 30.5 -3.5t14.5 54.5h23
q-2 -37 -3 -90t-1 -140h-23zM309 785q34 26 59 47.5l44 39l34 31t31 23.5q20 13 36.5 9.5t24.5 -16.5t4 -28.5t-25 -29.5q-16 -10 -35 -17.5l-43 -17t-54 -22.5t-69 -32z" />
    <glyph glyph-name="Ckreska" horiz-adv-x="688" 
d="M54 0zM597 478q-5 32 -9.5 54t-10 38.5t-13 29t-17.5 26.5q-32 41 -78.5 59.5t-98.5 18.5q-49 0 -88.5 -24.5t-68 -70t-44 -111t-15.5 -146.5q0 -84 17 -148.5t47.5 -108.5t72 -66.5t89.5 -22.5q22 0 46.5 4.5t47.5 13.5t43 23.5t34 34.5q11 15 18 30t12 33.5t8.5 41.5
t7.5 53h23q0 -91 1 -146.5t3 -93.5h-23q-4 43 -13.5 54t-31.5 -3q-18 -13 -37.5 -25t-41.5 -21t-48 -14t-58 -5q-71 0 -129.5 24.5t-100 71t-64.5 113.5t-23 153q0 84 23.5 153t65.5 118t100.5 76t128.5 27q66 0 108.5 -19.5t75.5 -45.5q20 -15 30.5 -3.5t14.5 54.5h23
q-2 -37 -3 -90t-1 -140h-23zM342 765q7 26 10.5 47.5t6 39.5t5 33.5t7.5 28.5q8 18 22.5 21.5t29.5 -1.5q13 -6 20 -20t-1 -31q-6 -13 -15 -25.5t-20.5 -27l-24.5 -31.5t-27 -40z" />
    <glyph glyph-name="kreska.cap" horiz-adv-x="154" 
d="M25 765q7 26 10.5 47.5t6 39.5t5 33.5t7.5 28.5q8 18 22.5 21.5t29.5 -1.5q13 -6 20 -20t-1 -31q-6 -13 -15 -25.5t-20.5 -27l-24.5 -31.5t-27 -40z" />
    <glyph glyph-name="Ccircumflex" unicode="&#x108;" horiz-adv-x="688" 
d="M54 0zM597 478q-5 32 -9.5 54t-10 38.5t-13 29t-17.5 26.5q-32 41 -78.5 59.5t-98.5 18.5q-49 0 -88.5 -24.5t-68 -70t-44 -111t-15.5 -146.5q0 -84 17 -148.5t47.5 -108.5t72 -66.5t89.5 -22.5q22 0 46.5 4.5t47.5 13.5t43 23.5t34 34.5q11 15 18 30t12 33.5t8.5 41.5
t7.5 53h23q0 -91 1 -146.5t3 -93.5h-23q-4 43 -13.5 54t-31.5 -3q-18 -13 -37.5 -25t-41.5 -21t-48 -14t-58 -5q-71 0 -129.5 24.5t-100 71t-64.5 113.5t-23 153q0 84 23.5 153t65.5 118t100.5 76t128.5 27q66 0 108.5 -19.5t75.5 -45.5q20 -15 30.5 -3.5t14.5 54.5h23
q-2 -37 -3 -90t-1 -140h-23zM350 840q-29 -19 -76 -38t-95 -32l-5 14q66 23 115 58.5t72 73.5h18q23 -38 72 -73.5t115 -58.5l-5 -14q-30 6 -60.5 14.5t-58 17.5t-51.5 19t-41 19z" />
    <glyph glyph-name="Cdotaccent" unicode="&#x10a;" horiz-adv-x="688" 
d="M54 0zM597 478q-5 32 -9.5 54t-10 38.5t-13 29t-17.5 26.5q-32 41 -78.5 59.5t-98.5 18.5q-49 0 -88.5 -24.5t-68 -70t-44 -111t-15.5 -146.5q0 -84 17 -148.5t47.5 -108.5t72 -66.5t89.5 -22.5q22 0 46.5 4.5t47.5 13.5t43 23.5t34 34.5q11 15 18 30t12 33.5t8.5 41.5
t7.5 53h23q0 -91 1 -146.5t3 -93.5h-23q-4 43 -13.5 54t-31.5 -3q-18 -13 -37.5 -25t-41.5 -21t-48 -14t-58 -5q-71 0 -129.5 24.5t-100 71t-64.5 113.5t-23 153q0 84 23.5 153t65.5 118t100.5 76t128.5 27q66 0 108.5 -19.5t75.5 -45.5q20 -15 30.5 -3.5t14.5 54.5h23
q-2 -37 -3 -90t-1 -140h-23zM313 836q0 26 19 45t45 19t45 -19t19 -45t-19 -45t-45 -19t-45 19t-19 45z" />
    <glyph glyph-name="dotaccent.cap" horiz-adv-x="198" 
d="M35 836q0 26 19 45t45 19t45 -19t19 -45t-19 -45t-45 -19t-45 19t-19 45z" />
    <glyph glyph-name="Ccaron" unicode="&#x10c;" horiz-adv-x="688" 
d="M54 0zM597 478q-5 32 -9.5 54t-10 38.5t-13 29t-17.5 26.5q-32 41 -78.5 59.5t-98.5 18.5q-49 0 -88.5 -24.5t-68 -70t-44 -111t-15.5 -146.5q0 -84 17 -148.5t47.5 -108.5t72 -66.5t89.5 -22.5q22 0 46.5 4.5t47.5 13.5t43 23.5t34 34.5q11 15 18 30t12 33.5t8.5 41.5
t7.5 53h23q0 -91 1 -146.5t3 -93.5h-23q-4 43 -13.5 54t-31.5 -3q-18 -13 -37.5 -25t-41.5 -21t-48 -14t-58 -5q-71 0 -129.5 24.5t-100 71t-64.5 113.5t-23 153q0 84 23.5 153t65.5 118t100.5 76t128.5 27q66 0 108.5 -19.5t75.5 -45.5q20 -15 30.5 -3.5t14.5 54.5h23
q-2 -37 -3 -90t-1 -140h-23zM387 856q29 19 76 38t95 32l5 -14q-66 -23 -115 -58.5t-72 -73.5h-18q-23 38 -72 73.5t-115 58.5l5 14q30 -6 60 -14.5t58 -17.5t52 -19t41 -19z" />
    <glyph glyph-name="caron.cap" horiz-adv-x="422" 
d="M231 856q29 19 76 38t95 32l5 -14q-66 -23 -115 -58.5t-72 -73.5h-18q-23 38 -72 73.5t-115 58.5l5 14q30 -6 60 -14.5t58 -17.5t52 -19t41 -19z" />
    <glyph glyph-name="Dcaron" unicode="&#x10e;" horiz-adv-x="721" 
d="M42 0zM668 362q0 -82 -24 -148.5t-70.5 -114t-114 -73.5t-153.5 -26q-11 0 -28.5 0.5t-37 1l-39 1t-35.5 0.5q-35 0 -69 -0.5t-55 -2.5v20q25 1 41 4.5t25 12.5t12 25.5t3 43.5v496q0 27 -3 43.5t-12 25.5t-25 12.5t-41 4.5v20q21 -2 55 -3t67 0q35 1 78.5 2t72.5 1
q178 0 265.5 -89.5t87.5 -256.5zM568 358q0 84 -14.5 146.5t-47 103.5t-85.5 61.5t-131 20.5q-23 0 -37.5 -3.5t-22.5 -13.5t-11 -26.5t-3 -42.5v-500q0 -26 3 -43t11 -26.5t23 -13t38 -3.5q82 0 135.5 22.5t85 66t44 106.5t12.5 145zM375 856q29 19 76 38t95 32l5 -14
q-66 -23 -115 -58.5t-72 -73.5h-18q-23 38 -72 73.5t-115 58.5l5 14q30 -6 60 -14.5t58 -17.5t52 -19t41 -19z" />
    <glyph glyph-name="Dcroat" unicode="&#x110;" horiz-adv-x="721" 
d="M676 362q0 -82 -24 -148.5t-70.5 -114t-114 -73.5t-153.5 -26q-11 0 -28.5 0.5t-37 1l-39 1t-35.5 0.5q-35 0 -69 -0.5t-55 -2.5v20q25 1 41 4.5t25 12.5t12 25.5t3 43.5v240h-81v20h81v236q0 27 -3 43.5t-12 25.5t-25 12.5t-41 4.5v20q21 -2 55 -3t67 0q35 1 78.5 2
t72.5 1q178 0 265.5 -89.5t87.5 -256.5zM576 358q0 84 -14.5 146.5t-47 103.5t-85.5 61.5t-131 20.5q-23 0 -37.5 -3.5t-22.5 -13.5t-11 -26.5t-3 -42.5v-238h139v-20h-139v-242q0 -26 3 -43t11 -26.5t23 -13t38 -3.5q82 0 135.5 22.5t85 66t44 106.5t12.5 145z" />
    <glyph glyph-name="Eth" unicode="&#xd0;" horiz-adv-x="721" 
d="M676 362q0 -82 -24 -148.5t-70.5 -114t-114 -73.5t-153.5 -26q-11 0 -28.5 0.5t-37 1l-39 1t-35.5 0.5q-35 0 -69 -0.5t-55 -2.5v20q25 1 41 4.5t25 12.5t12 25.5t3 43.5v240h-81v20h81v236q0 27 -3 43.5t-12 25.5t-25 12.5t-41 4.5v20q21 -2 55 -3t67 0q35 1 78.5 2
t72.5 1q178 0 265.5 -89.5t87.5 -256.5zM576 358q0 84 -14.5 146.5t-47 103.5t-85.5 61.5t-131 20.5q-23 0 -37.5 -3.5t-22.5 -13.5t-11 -26.5t-3 -42.5v-238h139v-20h-139v-242q0 -26 3 -43t11 -26.5t23 -13t38 -3.5q82 0 135.5 22.5t85 66t44 106.5t12.5 145z" />
    <glyph glyph-name="Egrave" unicode="&#xc8;" horiz-adv-x="609" 
d="M42 0zM420 23q37 0 57.5 9t32 30t16 54.5t8.5 83.5h23q-2 -14 -2.5 -32.5t-0.5 -39.5q0 -19 1.5 -54.5t5.5 -73.5q-26 1 -55.5 1.5l-59.5 1t-59.5 0.5h-54.5h-57t-73.5 -0.5l-81 -1t-78.5 -1.5v20q25 1 41 4.5t25 12.5t12 25.5t3 43.5v496q0 27 -3 43.5t-12 25.5
t-25 12.5t-41 4.5v20q37 -1 78.5 -1.5l81 -1t73.5 -0.5h57h49.5t54.5 0.5l55 1t50 1.5q-4 -35 -5.5 -68t-1.5 -50q0 -18 0.5 -34.5t2.5 -27.5h-23q-4 44 -9 74t-16 48.5t-29.5 26.5t-49.5 8h-113q-26 0 -41.5 -2.5t-24.5 -11.5t-12 -25.5t-3 -43.5v-236h113q26 0 39.5 12
t20.5 29t9 36.5t4 34.5h23q-2 -25 -2.5 -43t-0.5 -32v-25v-22v-22t1 -25t2 -32t3 -43h-23q-2 20 -4.5 40t-10 36t-21.5 26t-40 10h-113v-240q0 -27 3 -43.5t12 -25.5t24.5 -11.5t41.5 -2.5h123zM373 772q-39 19 -69 32t-54 22.5l-43 17t-35 17.5q-21 14 -25 29.5t4 28.5
t24.5 16.5t36.5 -9.5q16 -10 31 -23.5l34 -31l43.5 -39t59.5 -47.5z" />
    <glyph glyph-name="Eacute" unicode="&#xc9;" horiz-adv-x="609" 
d="M42 0zM420 23q37 0 57.5 9t32 30t16 54.5t8.5 83.5h23q-2 -14 -2.5 -32.5t-0.5 -39.5q0 -19 1.5 -54.5t5.5 -73.5q-26 1 -55.5 1.5l-59.5 1t-59.5 0.5h-54.5h-57t-73.5 -0.5l-81 -1t-78.5 -1.5v20q25 1 41 4.5t25 12.5t12 25.5t3 43.5v496q0 27 -3 43.5t-12 25.5
t-25 12.5t-41 4.5v20q37 -1 78.5 -1.5l81 -1t73.5 -0.5h57h49.5t54.5 0.5l55 1t50 1.5q-4 -35 -5.5 -68t-1.5 -50q0 -18 0.5 -34.5t2.5 -27.5h-23q-4 44 -9 74t-16 48.5t-29.5 26.5t-49.5 8h-113q-26 0 -41.5 -2.5t-24.5 -11.5t-12 -25.5t-3 -43.5v-236h113q26 0 39.5 12
t20.5 29t9 36.5t4 34.5h23q-2 -25 -2.5 -43t-0.5 -32v-25v-22v-22t1 -25t2 -32t3 -43h-23q-2 20 -4.5 40t-10 36t-21.5 26t-40 10h-113v-240q0 -27 3 -43.5t12 -25.5t24.5 -11.5t41.5 -2.5h123zM252 785q34 26 59 47.5l44 39l34 31t31 23.5q20 13 36.5 9.5t24.5 -16.5
t4 -28.5t-25 -29.5q-16 -10 -35 -17.5l-43 -17t-54 -22.5t-69 -32z" />
    <glyph glyph-name="Ecircumflex" unicode="&#xca;" horiz-adv-x="609" 
d="M42 0zM420 23q37 0 57.5 9t32 30t16 54.5t8.5 83.5h23q-2 -14 -2.5 -32.5t-0.5 -39.5q0 -19 1.5 -54.5t5.5 -73.5q-26 1 -55.5 1.5l-59.5 1t-59.5 0.5h-54.5h-57t-73.5 -0.5l-81 -1t-78.5 -1.5v20q25 1 41 4.5t25 12.5t12 25.5t3 43.5v496q0 27 -3 43.5t-12 25.5
t-25 12.5t-41 4.5v20q37 -1 78.5 -1.5l81 -1t73.5 -0.5h57h49.5t54.5 0.5l55 1t50 1.5q-4 -35 -5.5 -68t-1.5 -50q0 -18 0.5 -34.5t2.5 -27.5h-23q-4 44 -9 74t-16 48.5t-29.5 26.5t-49.5 8h-113q-26 0 -41.5 -2.5t-24.5 -11.5t-12 -25.5t-3 -43.5v-236h113q26 0 39.5 12
t20.5 29t9 36.5t4 34.5h23q-2 -25 -2.5 -43t-0.5 -32v-25v-22v-22t1 -25t2 -32t3 -43h-23q-2 20 -4.5 40t-10 36t-21.5 26t-40 10h-113v-240q0 -27 3 -43.5t12 -25.5t24.5 -11.5t41.5 -2.5h123zM293 840q-29 -19 -76 -38t-95 -32l-5 14q66 23 115 58.5t72 73.5h18
q23 -38 72 -73.5t115 -58.5l-5 -14q-30 6 -60.5 14.5t-58 17.5t-51.5 19t-41 19z" />
    <glyph glyph-name="Edieresis" unicode="&#xcb;" horiz-adv-x="609" 
d="M42 0zM420 23q37 0 57.5 9t32 30t16 54.5t8.5 83.5h23q-2 -14 -2.5 -32.5t-0.5 -39.5q0 -19 1.5 -54.5t5.5 -73.5q-26 1 -55.5 1.5l-59.5 1t-59.5 0.5h-54.5h-57t-73.5 -0.5l-81 -1t-78.5 -1.5v20q25 1 41 4.5t25 12.5t12 25.5t3 43.5v496q0 27 -3 43.5t-12 25.5
t-25 12.5t-41 4.5v20q37 -1 78.5 -1.5l81 -1t73.5 -0.5h57h49.5t54.5 0.5l55 1t50 1.5q-4 -35 -5.5 -68t-1.5 -50q0 -18 0.5 -34.5t2.5 -27.5h-23q-4 44 -9 74t-16 48.5t-29.5 26.5t-49.5 8h-113q-26 0 -41.5 -2.5t-24.5 -11.5t-12 -25.5t-3 -43.5v-236h113q26 0 39.5 12
t20.5 29t9 36.5t4 34.5h23q-2 -25 -2.5 -43t-0.5 -32v-25v-22v-22t1 -25t2 -32t3 -43h-23q-2 20 -4.5 40t-10 36t-21.5 26t-40 10h-113v-240q0 -27 3 -43.5t12 -25.5t24.5 -11.5t41.5 -2.5h123zM149 830q0 23 17 40.5t41 17.5q23 0 40.5 -17.5t17.5 -40.5q0 -24 -17.5 -41
t-40.5 -17q-24 0 -41 17t-17 41zM361 830q0 23 17 40.5t41 17.5q23 0 40.5 -17.5t17.5 -40.5q0 -24 -17.5 -41t-40.5 -17q-24 0 -41 17t-17 41z" />
    <glyph glyph-name="Emacron" unicode="&#x112;" horiz-adv-x="609" 
d="M42 0zM420 23q37 0 57.5 9t32 30t16 54.5t8.5 83.5h23q-2 -14 -2.5 -32.5t-0.5 -39.5q0 -19 1.5 -54.5t5.5 -73.5q-26 1 -55.5 1.5l-59.5 1t-59.5 0.5h-54.5h-57t-73.5 -0.5l-81 -1t-78.5 -1.5v20q25 1 41 4.5t25 12.5t12 25.5t3 43.5v496q0 27 -3 43.5t-12 25.5
t-25 12.5t-41 4.5v20q37 -1 78.5 -1.5l81 -1t73.5 -0.5h57h49.5t54.5 0.5l55 1t50 1.5q-4 -35 -5.5 -68t-1.5 -50q0 -18 0.5 -34.5t2.5 -27.5h-23q-4 44 -9 74t-16 48.5t-29.5 26.5t-49.5 8h-113q-26 0 -41.5 -2.5t-24.5 -11.5t-12 -25.5t-3 -43.5v-236h113q26 0 39.5 12
t20.5 29t9 36.5t4 34.5h23q-2 -25 -2.5 -43t-0.5 -32v-25v-22v-22t1 -25t2 -32t3 -43h-23q-2 20 -4.5 40t-10 36t-21.5 26t-40 10h-113v-240q0 -27 3 -43.5t12 -25.5t24.5 -11.5t41.5 -2.5h123zM489 844v-25h-352v25h352z" />
    <glyph glyph-name="Ebreve" unicode="&#x114;" horiz-adv-x="609" 
d="M42 0zM420 23q37 0 57.5 9t32 30t16 54.5t8.5 83.5h23q-2 -14 -2.5 -32.5t-0.5 -39.5q0 -19 1.5 -54.5t5.5 -73.5q-26 1 -55.5 1.5l-59.5 1t-59.5 0.5h-54.5h-57t-73.5 -0.5l-81 -1t-78.5 -1.5v20q25 1 41 4.5t25 12.5t12 25.5t3 43.5v496q0 27 -3 43.5t-12 25.5
t-25 12.5t-41 4.5v20q37 -1 78.5 -1.5l81 -1t73.5 -0.5h57h49.5t54.5 0.5l55 1t50 1.5q-4 -35 -5.5 -68t-1.5 -50q0 -18 0.5 -34.5t2.5 -27.5h-23q-4 44 -9 74t-16 48.5t-29.5 26.5t-49.5 8h-113q-26 0 -41.5 -2.5t-24.5 -11.5t-12 -25.5t-3 -43.5v-236h113q26 0 39.5 12
t20.5 29t9 36.5t4 34.5h23q-2 -25 -2.5 -43t-0.5 -32v-25v-22v-22t1 -25t2 -32t3 -43h-23q-2 20 -4.5 40t-10 36t-21.5 26t-40 10h-113v-240q0 -27 3 -43.5t12 -25.5t24.5 -11.5t41.5 -2.5h123zM313 844q72 0 118 21t69 44l12 -11q-12 -20 -30.5 -40.5t-43 -37t-56 -27.5
t-69.5 -11t-69.5 11t-56.5 27.5t-43 37t-30 40.5l13 10q23 -23 68.5 -43.5t117.5 -20.5z" />
    <glyph glyph-name="Edotaccent" unicode="&#x116;" horiz-adv-x="609" 
d="M42 0zM420 23q37 0 57.5 9t32 30t16 54.5t8.5 83.5h23q-2 -14 -2.5 -32.5t-0.5 -39.5q0 -19 1.5 -54.5t5.5 -73.5q-26 1 -55.5 1.5l-59.5 1t-59.5 0.5h-54.5h-57t-73.5 -0.5l-81 -1t-78.5 -1.5v20q25 1 41 4.5t25 12.5t12 25.5t3 43.5v496q0 27 -3 43.5t-12 25.5
t-25 12.5t-41 4.5v20q37 -1 78.5 -1.5l81 -1t73.5 -0.5h57h49.5t54.5 0.5l55 1t50 1.5q-4 -35 -5.5 -68t-1.5 -50q0 -18 0.5 -34.5t2.5 -27.5h-23q-4 44 -9 74t-16 48.5t-29.5 26.5t-49.5 8h-113q-26 0 -41.5 -2.5t-24.5 -11.5t-12 -25.5t-3 -43.5v-236h113q26 0 39.5 12
t20.5 29t9 36.5t4 34.5h23q-2 -25 -2.5 -43t-0.5 -32v-25v-22v-22t1 -25t2 -32t3 -43h-23q-2 20 -4.5 40t-10 36t-21.5 26t-40 10h-113v-240q0 -27 3 -43.5t12 -25.5t24.5 -11.5t41.5 -2.5h123zM255 836q0 26 19 45t45 19t45 -19t19 -45t-19 -45t-45 -19t-45 19t-19 45z" />
    <glyph glyph-name="Eogonek" unicode="&#x118;" horiz-adv-x="609" 
d="M420 23q37 0 57.5 9t32 30t16 54.5t8.5 83.5h23q-2 -14 -2.5 -32.5t-0.5 -39.5q0 -19 1.5 -54.5t5.5 -73.5q-12 0 -25.5 0.5t-27.5 1.5q-28 -8 -47 -19.5t-30 -24.5t-16 -27t-5 -27q0 -20 11.5 -32t31.5 -12q19 0 35 9.5t26 23.5l15 -13q-23 -35 -51.5 -51.5t-61.5 -16.5
q-36 0 -57.5 18t-21.5 47q0 39 35 71.5t101 53.5q-37 1 -73.5 1h-67.5h-57t-73.5 -0.5l-81 -1t-78.5 -1.5v20q25 1 41 4.5t25 12.5t12 25.5t3 43.5v496q0 27 -3 43.5t-12 25.5t-25 12.5t-41 4.5v20q37 -1 78.5 -1.5l81 -1t73.5 -0.5h57h49.5t54.5 0.5l55 1t50 1.5
q-4 -35 -5.5 -68t-1.5 -50q0 -18 0.5 -34.5t2.5 -27.5h-23q-4 44 -9 74t-16 48.5t-29.5 26.5t-49.5 8h-113q-26 0 -41.5 -2.5t-24.5 -11.5t-12 -25.5t-3 -43.5v-236h113q26 0 39.5 12t20.5 29t9 36.5t4 34.5h23q-2 -25 -2.5 -43t-0.5 -32v-25v-22v-22t1 -25t2 -32t3 -43h-23
q-2 20 -4.5 40t-10 36t-21.5 26t-40 10h-113v-240q0 -27 3 -43.5t12 -25.5t24.5 -11.5t41.5 -2.5h123z" />
    <glyph glyph-name="Ecaron" unicode="&#x11a;" horiz-adv-x="609" 
d="M42 0zM420 23q37 0 57.5 9t32 30t16 54.5t8.5 83.5h23q-2 -14 -2.5 -32.5t-0.5 -39.5q0 -19 1.5 -54.5t5.5 -73.5q-26 1 -55.5 1.5l-59.5 1t-59.5 0.5h-54.5h-57t-73.5 -0.5l-81 -1t-78.5 -1.5v20q25 1 41 4.5t25 12.5t12 25.5t3 43.5v496q0 27 -3 43.5t-12 25.5
t-25 12.5t-41 4.5v20q37 -1 78.5 -1.5l81 -1t73.5 -0.5h57h49.5t54.5 0.5l55 1t50 1.5q-4 -35 -5.5 -68t-1.5 -50q0 -18 0.5 -34.5t2.5 -27.5h-23q-4 44 -9 74t-16 48.5t-29.5 26.5t-49.5 8h-113q-26 0 -41.5 -2.5t-24.5 -11.5t-12 -25.5t-3 -43.5v-236h113q26 0 39.5 12
t20.5 29t9 36.5t4 34.5h23q-2 -25 -2.5 -43t-0.5 -32v-25v-22v-22t1 -25t2 -32t3 -43h-23q-2 20 -4.5 40t-10 36t-21.5 26t-40 10h-113v-240q0 -27 3 -43.5t12 -25.5t24.5 -11.5t41.5 -2.5h123zM330 856q29 19 76 38t95 32l5 -14q-66 -23 -115 -58.5t-72 -73.5h-18
q-23 38 -72 73.5t-115 58.5l5 14q30 -6 60 -14.5t58 -17.5t52 -19t41 -19z" />
    <glyph glyph-name="Gacute" unicode="&#x1f4;" horiz-adv-x="703" 
d="M55 0zM572 57q-6 0 -12 -3t-21 -14q-33 -25 -70 -39.5t-86 -14.5q-78 0 -139 24.5t-103 70t-64 111.5t-22 150q0 87 24 157.5t67 120t102 76t129 26.5q33 0 58.5 -5.5t46.5 -14.5t39 -20.5t36 -24.5q13 -10 20 -10q19 0 25 61h23q-2 -37 -3 -90t-1 -140h-23
q-7 42 -17 80.5t-33 67.5q-29 37 -75.5 57.5t-97.5 20.5q-50 0 -90.5 -24.5t-69.5 -70.5t-44.5 -110.5t-15.5 -145.5q0 -180 58 -263.5t180 -83.5q36 0 62.5 10t41.5 21q19 13 24 24.5t5 30.5v96q0 30 -4 48.5t-15 28.5t-31 14t-51 5v20q13 -1 30.5 -1.5l36.5 -1t38 -0.5h36
q68 0 104 3v-20q-17 -1 -27 -4t-15 -12t-7 -25.5t-2 -44.5v-198h-20q0 9 -2 19t-5.5 18.5t-8.5 14t-11 5.5zM315 785q34 26 59 47.5l44 39l34 31t31 23.5q20 13 36.5 9.5t24.5 -16.5t4 -28.5t-25 -29.5q-16 -10 -35 -17.5l-43 -17t-54 -22.5t-69 -32z" />
    <glyph glyph-name="Gcircumflex" unicode="&#x11c;" horiz-adv-x="703" 
d="M55 0zM572 57q-6 0 -12 -3t-21 -14q-33 -25 -70 -39.5t-86 -14.5q-78 0 -139 24.5t-103 70t-64 111.5t-22 150q0 87 24 157.5t67 120t102 76t129 26.5q33 0 58.5 -5.5t46.5 -14.5t39 -20.5t36 -24.5q13 -10 20 -10q19 0 25 61h23q-2 -37 -3 -90t-1 -140h-23
q-7 42 -17 80.5t-33 67.5q-29 37 -75.5 57.5t-97.5 20.5q-50 0 -90.5 -24.5t-69.5 -70.5t-44.5 -110.5t-15.5 -145.5q0 -180 58 -263.5t180 -83.5q36 0 62.5 10t41.5 21q19 13 24 24.5t5 30.5v96q0 30 -4 48.5t-15 28.5t-31 14t-51 5v20q13 -1 30.5 -1.5l36.5 -1t38 -0.5h36
q68 0 104 3v-20q-17 -1 -27 -4t-15 -12t-7 -25.5t-2 -44.5v-198h-20q0 9 -2 19t-5.5 18.5t-8.5 14t-11 5.5zM347 840q-29 -19 -76 -38t-95 -32l-5 14q66 23 115 58.5t72 73.5h18q23 -38 72 -73.5t115 -58.5l-5 -14q-30 6 -60.5 14.5t-58 17.5t-51.5 19t-41 19z" />
    <glyph glyph-name="Gbreve" unicode="&#x11e;" horiz-adv-x="703" 
d="M55 0zM572 57q-6 0 -12 -3t-21 -14q-33 -25 -70 -39.5t-86 -14.5q-78 0 -139 24.5t-103 70t-64 111.5t-22 150q0 87 24 157.5t67 120t102 76t129 26.5q33 0 58.5 -5.5t46.5 -14.5t39 -20.5t36 -24.5q13 -10 20 -10q19 0 25 61h23q-2 -37 -3 -90t-1 -140h-23
q-7 42 -17 80.5t-33 67.5q-29 37 -75.5 57.5t-97.5 20.5q-50 0 -90.5 -24.5t-69.5 -70.5t-44.5 -110.5t-15.5 -145.5q0 -180 58 -263.5t180 -83.5q36 0 62.5 10t41.5 21q19 13 24 24.5t5 30.5v96q0 30 -4 48.5t-15 28.5t-31 14t-51 5v20q13 -1 30.5 -1.5l36.5 -1t38 -0.5h36
q68 0 104 3v-20q-17 -1 -27 -4t-15 -12t-7 -25.5t-2 -44.5v-198h-20q0 9 -2 19t-5.5 18.5t-8.5 14t-11 5.5zM367 844q72 0 118 21t69 44l12 -11q-12 -20 -30.5 -40.5t-43 -37t-56 -27.5t-69.5 -11t-69.5 11t-56.5 27.5t-43 37t-30 40.5l13 10q23 -23 68.5 -43.5t117.5 -20.5
z" />
    <glyph glyph-name="Gdotaccent" unicode="&#x120;" horiz-adv-x="703" 
d="M55 0zM572 57q-6 0 -12 -3t-21 -14q-33 -25 -70 -39.5t-86 -14.5q-78 0 -139 24.5t-103 70t-64 111.5t-22 150q0 87 24 157.5t67 120t102 76t129 26.5q33 0 58.5 -5.5t46.5 -14.5t39 -20.5t36 -24.5q13 -10 20 -10q19 0 25 61h23q-2 -37 -3 -90t-1 -140h-23
q-7 42 -17 80.5t-33 67.5q-29 37 -75.5 57.5t-97.5 20.5q-50 0 -90.5 -24.5t-69.5 -70.5t-44.5 -110.5t-15.5 -145.5q0 -180 58 -263.5t180 -83.5q36 0 62.5 10t41.5 21q19 13 24 24.5t5 30.5v96q0 30 -4 48.5t-15 28.5t-31 14t-51 5v20q13 -1 30.5 -1.5l36.5 -1t38 -0.5h36
q68 0 104 3v-20q-17 -1 -27 -4t-15 -12t-7 -25.5t-2 -44.5v-198h-20q0 9 -2 19t-5.5 18.5t-8.5 14t-11 5.5zM319 836q0 26 19 45t45 19t45 -19t19 -45t-19 -45t-45 -19t-45 19t-19 45z" />
    <glyph glyph-name="Gcommaaccent" unicode="&#x122;" horiz-adv-x="703" 
d="M55 0zM572 57q-6 0 -12 -3t-21 -14q-33 -25 -70 -39.5t-86 -14.5q-78 0 -139 24.5t-103 70t-64 111.5t-22 150q0 87 24 157.5t67 120t102 76t129 26.5q33 0 58.5 -5.5t46.5 -14.5t39 -20.5t36 -24.5q13 -10 20 -10q19 0 25 61h23q-2 -37 -3 -90t-1 -140h-23
q-7 42 -17 80.5t-33 67.5q-29 37 -75.5 57.5t-97.5 20.5q-50 0 -90.5 -24.5t-69.5 -70.5t-44.5 -110.5t-15.5 -145.5q0 -180 58 -263.5t180 -83.5q36 0 62.5 10t41.5 21q19 13 24 24.5t5 30.5v96q0 30 -4 48.5t-15 28.5t-31 14t-51 5v20q13 -1 30.5 -1.5l36.5 -1t38 -0.5h36
q68 0 104 3v-20q-17 -1 -27 -4t-15 -12t-7 -25.5t-2 -44.5v-198h-20q0 9 -2 19t-5.5 18.5t-8.5 14t-11 5.5zM321 -122q0 23 16.5 38t39.5 15q29 0 47 -20.5t18 -49.5q0 -36 -17 -60.5t-65 -41.5l-7 18q23 7 42.5 23t19.5 40q-8 -7 -18.5 -11.5t-23.5 -4.5q-22 0 -37 14
t-15 40z" />
    <glyph glyph-name="commaaccent.cap" horiz-adv-x="210" 
d="M43 -122q0 23 16.5 38t39.5 15q29 0 47 -20.5t18 -49.5q0 -36 -17 -60.5t-65 -41.5l-7 18q23 7 42.5 23t19.5 40q-8 -7 -18.5 -11.5t-23.5 -4.5q-22 0 -37 14t-15 40z" />
    <glyph glyph-name="Hcircumflex" unicode="&#x124;" horiz-adv-x="757" 
d="M42 0zM123 602q0 27 -3 43.5t-12 25.5t-25 12.5t-41 4.5v20q21 -2 55 -2.5t73 -0.5q35 0 69.5 0.5t57.5 2.5v-20q-26 -1 -41.5 -4.5t-24.5 -12.5t-12 -25.5t-3 -43.5v-236h325v236q0 27 -3 43.5t-12 25.5t-25 12.5t-41 4.5v20q23 -2 57.5 -2.5t69.5 -0.5q39 0 73 0.5
t55 2.5v-20q-26 -1 -41.5 -4.5t-24.5 -12.5t-12 -25.5t-3 -43.5v-496q0 -27 3 -43.5t12 -25.5t24.5 -12.5t41.5 -4.5v-20q-21 2 -55 2.5t-73 0.5q-35 0 -69.5 -0.5t-57.5 -2.5v20q25 1 41 4.5t25 12.5t12 25.5t3 43.5v240h-325v-240q0 -27 3 -43.5t12 -25.5t24.5 -12.5
t41.5 -4.5v-20q-23 2 -57.5 2.5t-69.5 0.5q-39 0 -73 -0.5t-55 -2.5v20q25 1 41 4.5t25 12.5t12 25.5t3 43.5v496zM354 840q-29 -19 -76 -38t-95 -32l-5 14q66 23 115 58.5t72 73.5h18q23 -38 72 -73.5t115 -58.5l-5 -14q-30 6 -60.5 14.5t-58 17.5t-51.5 19t-41 19z" />
    <glyph glyph-name="Hbar" unicode="&#x126;" horiz-adv-x="757" 
d="M130 513h-81v20h81v69q0 27 -3 43.5t-12 25.5t-25 12.5t-41 4.5v20q21 -2 55 -2.5t73 -0.5q35 0 69.5 0.5t57.5 2.5v-20q-26 -1 -41.5 -4.5t-24.5 -12.5t-12 -25.5t-3 -43.5v-69h325v69q0 27 -3 43.5t-12 25.5t-25 12.5t-41 4.5v20q23 -2 57.5 -2.5t69.5 -0.5
q39 0 73 0.5t55 2.5v-20q-26 -1 -41.5 -4.5t-24.5 -12.5t-12 -25.5t-3 -43.5v-69h81v-20h-81v-407q0 -27 3 -43.5t12 -25.5t24.5 -12.5t41.5 -4.5v-20q-21 2 -55 2.5t-73 0.5q-35 0 -69.5 -0.5t-57.5 -2.5v20q25 1 41 4.5t25 12.5t12 25.5t3 43.5v240h-325v-240
q0 -27 3 -43.5t12 -25.5t24.5 -12.5t41.5 -4.5v-20q-23 2 -57.5 2.5t-69.5 0.5q-39 0 -73 -0.5t-55 -2.5v20q25 1 41 4.5t25 12.5t12 25.5t3 43.5v407zM548 366v147h-325v-147h325z" />
    <glyph glyph-name="Igrave" unicode="&#xcc;" horiz-adv-x="339" 
d="M0 0zM223 106q0 -27 3 -43.5t12 -25.5t24.5 -12.5t41.5 -4.5v-20q-23 2 -57.5 2.5t-69.5 0.5q-39 0 -73 -0.5t-55 -2.5v20q25 1 41 4.5t25 12.5t12 25.5t3 43.5v496q0 27 -3 43.5t-12 25.5t-25 12.5t-41 4.5v20q21 -2 55 -2.5t73 -0.5q35 0 69.5 0.5t57.5 2.5v-20
q-26 -1 -41.5 -4.5t-24.5 -12.5t-12 -25.5t-3 -43.5v-496zM221 772q-39 19 -69 32t-54 22.5l-43 17t-35 17.5q-21 14 -25 29.5t4 28.5t24.5 16.5t36.5 -9.5q16 -10 31 -23.5l34 -31l43.5 -39t59.5 -47.5z" />
    <glyph glyph-name="Iacute" unicode="&#xcd;" horiz-adv-x="339" 
d="M42 0zM216 106q0 -27 3 -43.5t12 -25.5t24.5 -12.5t41.5 -4.5v-20q-23 2 -57.5 2.5t-69.5 0.5q-39 0 -73 -0.5t-55 -2.5v20q25 1 41 4.5t25 12.5t12 25.5t3 43.5v496q0 27 -3 43.5t-12 25.5t-25 12.5t-41 4.5v20q21 -2 55 -2.5t73 -0.5q35 0 69.5 0.5t57.5 2.5v-20
q-26 -1 -41.5 -4.5t-24.5 -12.5t-12 -25.5t-3 -43.5v-496zM102 785q34 26 59 47.5l44 39l34 31t31 23.5q20 13 36.5 9.5t24.5 -16.5t4 -28.5t-25 -29.5q-16 -10 -35 -17.5l-43 -17t-54 -22.5t-69 -32z" />
    <glyph glyph-name="Icircumflex" unicode="&#xce;" horiz-adv-x="339" 
d="M0 0zM223 106q0 -27 3 -43.5t12 -25.5t24.5 -12.5t41.5 -4.5v-20q-23 2 -57.5 2.5t-69.5 0.5q-39 0 -73 -0.5t-55 -2.5v20q25 1 41 4.5t25 12.5t12 25.5t3 43.5v496q0 27 -3 43.5t-12 25.5t-25 12.5t-41 4.5v20q21 -2 55 -2.5t73 -0.5q35 0 69.5 0.5t57.5 2.5v-20
q-26 -1 -41.5 -4.5t-24.5 -12.5t-12 -25.5t-3 -43.5v-496zM158 840q-29 -19 -76 -38t-95 -32l-5 14q66 23 115 58.5t72 73.5h18q23 -38 72 -73.5t115 -58.5l-5 -14q-30 6 -60.5 14.5t-58 17.5t-51.5 19t-41 19z" />
    <glyph glyph-name="Idieresis" unicode="&#xcf;" horiz-adv-x="339" 
d="M14 0zM223 106q0 -27 3 -43.5t12 -25.5t24.5 -12.5t41.5 -4.5v-20q-23 2 -57.5 2.5t-69.5 0.5q-39 0 -73 -0.5t-55 -2.5v20q25 1 41 4.5t25 12.5t12 25.5t3 43.5v496q0 27 -3 43.5t-12 25.5t-25 12.5t-41 4.5v20q21 -2 55 -2.5t73 -0.5q35 0 69.5 0.5t57.5 2.5v-20
q-26 -1 -41.5 -4.5t-24.5 -12.5t-12 -25.5t-3 -43.5v-496zM14 830q0 23 17 40.5t41 17.5q23 0 40.5 -17.5t17.5 -40.5q0 -24 -17.5 -41t-40.5 -17q-24 0 -41 17t-17 41zM226 830q0 23 17 40.5t41 17.5q23 0 40.5 -17.5t17.5 -40.5q0 -24 -17.5 -41t-40.5 -17q-24 0 -41 17
t-17 41z" />
    <glyph glyph-name="Itilde" unicode="&#x128;" horiz-adv-x="339" 
d="M0 0zM223 106q0 -27 3 -43.5t12 -25.5t24.5 -12.5t41.5 -4.5v-20q-23 2 -57.5 2.5t-69.5 0.5q-39 0 -73 -0.5t-55 -2.5v20q25 1 41 4.5t25 12.5t12 25.5t3 43.5v496q0 27 -3 43.5t-12 25.5t-25 12.5t-41 4.5v20q21 -2 55 -2.5t73 -0.5q35 0 69.5 0.5t57.5 2.5v-20
q-26 -1 -41.5 -4.5t-24.5 -12.5t-12 -25.5t-3 -43.5v-496zM291 825q20 0 36.5 12t25.5 44l15 -3q-5 -50 -37 -78t-74 -28q-28 0 -52 12t-47 26.5t-46 26.5t-49 12q-21 0 -37 -12t-25 -44l-15 3q5 50 37 78t74 28q28 0 52 -12t47 -26.5t46 -26.5t49 -12z" />
    <glyph glyph-name="Imacron" unicode="&#x12a;" horiz-adv-x="339" 
d="M2 0zM223 106q0 -27 3 -43.5t12 -25.5t24.5 -12.5t41.5 -4.5v-20q-23 2 -57.5 2.5t-69.5 0.5q-39 0 -73 -0.5t-55 -2.5v20q25 1 41 4.5t25 12.5t12 25.5t3 43.5v496q0 27 -3 43.5t-12 25.5t-25 12.5t-41 4.5v20q21 -2 55 -2.5t73 -0.5q35 0 69.5 0.5t57.5 2.5v-20
q-26 -1 -41.5 -4.5t-24.5 -12.5t-12 -25.5t-3 -43.5v-496zM354 844v-25h-352v25h352z" />
    <glyph glyph-name="Ibreve" unicode="&#x12c;" horiz-adv-x="339" 
d="M0 0zM223 106q0 -27 3 -43.5t12 -25.5t24.5 -12.5t41.5 -4.5v-20q-23 2 -57.5 2.5t-69.5 0.5q-39 0 -73 -0.5t-55 -2.5v20q25 1 41 4.5t25 12.5t12 25.5t3 43.5v496q0 27 -3 43.5t-12 25.5t-25 12.5t-41 4.5v20q21 -2 55 -2.5t73 -0.5q35 0 69.5 0.5t57.5 2.5v-20
q-26 -1 -41.5 -4.5t-24.5 -12.5t-12 -25.5t-3 -43.5v-496zM178 844q72 0 118 21t69 44l12 -11q-12 -20 -30.5 -40.5t-43 -37t-56 -27.5t-69.5 -11t-69.5 11t-56.5 27.5t-43 37t-30 40.5l13 10q23 -23 68.5 -43.5t117.5 -20.5z" />
    <glyph glyph-name="Iogonek" unicode="&#x12e;" horiz-adv-x="339" 
d="M216 106q0 -27 3 -43.5t12 -25.5t24.5 -12.5t41.5 -4.5v-20q-7 0 -15 0.5t-17 0.5q-28 -8 -46.5 -19.5t-30 -24.5t-16 -27t-4.5 -26q0 -20 11.5 -32t31.5 -12q19 0 35 9.5t26 23.5l15 -13q-23 -35 -51.5 -51.5t-61.5 -16.5q-36 0 -57.5 18t-21.5 47q0 39 35.5 71.5
t101.5 53.5q-15 1 -31 1h-31q-39 0 -73 -0.5t-55 -2.5v20q25 1 41 4.5t25 12.5t12 25.5t3 43.5v496q0 27 -3 43.5t-12 25.5t-25 12.5t-41 4.5v20q21 -2 55 -2.5t73 -0.5q35 0 69.5 0.5t57.5 2.5v-20q-26 -1 -41.5 -4.5t-24.5 -12.5t-12 -25.5t-3 -43.5v-496z" />
    <glyph glyph-name="Idotaccent" unicode="&#x130;" horiz-adv-x="339" 
d="M106 836q0 26 19 45t45 19t45 -19t19 -45t-19 -45t-45 -19t-45 19t-19 45zM216 106q0 -27 3 -43.5t12 -25.5t24.5 -12.5t41.5 -4.5v-20q-23 2 -57.5 2.5t-69.5 0.5q-39 0 -73 -0.5t-55 -2.5v20q25 1 41 4.5t25 12.5t12 25.5t3 43.5v496q0 27 -3 43.5t-12 25.5t-25 12.5
t-41 4.5v20q21 -2 55 -2.5t73 -0.5q35 0 69.5 0.5t57.5 2.5v-20q-26 -1 -41.5 -4.5t-24.5 -12.5t-12 -25.5t-3 -43.5v-496z" />
    <glyph glyph-name="Jcircumflex" unicode="&#x134;" horiz-adv-x="328" 
d="M0 0zM-83 -153q10 -10 30.5 -13t33.5 -3q44 0 75 22.5t45 62.5q5 16 8.5 34t5.5 44.5t2.5 62.5t0.5 88v457q0 27 -3 43.5t-12 25.5t-25 12.5t-41 4.5v20q21 -2 55 -2.5t73 -0.5q35 0 69.5 0.5t57.5 2.5v-20q-26 -1 -41.5 -4.5t-24.5 -12.5t-12 -25.5t-3 -43.5v-366
q0 -31 -0.5 -66.5t-2 -70t-5 -67t-9.5 -57.5q-8 -35 -26 -64.5t-45 -51.5t-62 -34.5t-78 -12.5q-28 0 -49 5.5t-35 12.5q-48 25 -48 69q0 23 15 38t38 15t39 -14t16 -40q0 -22 -11.5 -34.5t-30.5 -16.5zM147 840q-29 -19 -76 -38t-95 -32l-5 14q66 23 115 58.5t72 73.5h18
q23 -38 72 -73.5t115 -58.5l-5 -14q-30 6 -60.5 14.5t-58 17.5t-51.5 19t-41 19z" />
    <glyph glyph-name="IJ" unicode="&#x132;" horiz-adv-x="658" 
d="M42 0zM216 106q0 -27 3 -43.5t12 -25.5t24.5 -12.5t41.5 -4.5v-20q-23 2 -57.5 2.5t-69.5 0.5q-39 0 -73 -0.5t-55 -2.5v20q25 1 41 4.5t25 12.5t12 25.5t3 43.5v496q0 27 -3 43.5t-12 25.5t-25 12.5t-41 4.5v20q21 -2 55 -2.5t73 -0.5q35 0 69.5 0.5t57.5 2.5v-20
q-26 -1 -41.5 -4.5t-24.5 -12.5t-12 -25.5t-3 -43.5v-496zM242 -153q10 -10 30.5 -13t33.5 -3q44 0 75 22.5t45 62.5q5 16 8.5 34t5.5 44.5t2.5 62.5t0.5 88v457q0 27 -3 43.5t-12 25.5t-25 12.5t-41 4.5v20q21 -2 55 -2.5t73 -0.5q35 0 69.5 0.5t57.5 2.5v-20
q-26 -1 -41.5 -4.5t-24.5 -12.5t-12 -25.5t-3 -43.5v-366q0 -31 -0.5 -66.5t-2 -70t-5 -67t-9.5 -57.5q-8 -35 -26 -64.5t-45 -51.5t-62 -34.5t-78 -12.5q-28 0 -49 5.5t-35 12.5q-48 25 -48 69q0 23 15 38t38 15t39 -14t16 -40q0 -22 -11.5 -34.5t-30.5 -16.5z" />
    <glyph glyph-name="Kcommaaccent" unicode="&#x136;" horiz-adv-x="643" 
d="M42 0zM501 652q13 17 -0.5 25.5t-64.5 11.5v19q54 -3 108 -3q42 0 71 3v-19q-29 -2 -55.5 -15t-47.5 -40l-178 -228l232 -325q17 -25 37 -39t51 -22v-20q-12 1 -27.5 1.5l-32 1t-32.5 0.5h-28q-20 0 -49 -0.5t-74 -2.5v20q26 1 39.5 3t18 7.5t1 13.5t-11.5 21l-146 220
l-24 33.5t-20.5 22t-22.5 12.5t-29 5v-252q0 -27 3 -43.5t12 -25.5t24.5 -12.5t41.5 -4.5v-20q-23 2 -57.5 2.5t-69.5 0.5q-39 0 -73 -0.5t-55 -2.5v20q25 1 41 4.5t25 12.5t12 25.5t3 43.5v496q0 27 -3 43.5t-12 25.5t-25 12.5t-41 4.5v20q21 -2 55 -2.5t73 -0.5
q35 0 69.5 0.5t57.5 2.5v-20q-26 -1 -41.5 -4.5t-24.5 -12.5t-12 -25.5t-3 -43.5v-224q40 2 67.5 17.5t46.5 38.5zM277 -122q0 23 16.5 38t39.5 15q29 0 47 -20.5t18 -49.5q0 -36 -17 -60.5t-65 -41.5l-7 18q23 7 42.5 23t19.5 40q-8 -7 -18.5 -11.5t-23.5 -4.5
q-22 0 -37 14t-15 40z" />
    <glyph glyph-name="Lacute" unicode="&#x139;" horiz-adv-x="586" 
d="M42 0zM557 210q-3 -32 -3 -82q0 -19 1.5 -54.5t5.5 -73.5q-26 1 -55.5 1.5l-59.5 1t-59.5 0.5h-54.5h-57t-73.5 -0.5l-81 -1t-78.5 -1.5v20q25 1 41 4.5t25 12.5t12 25.5t3 43.5v496q0 27 -3 43.5t-12 25.5t-25 12.5t-41 4.5v20q21 -2 55 -2.5t73 -0.5q35 0 69.5 0.5
t57.5 2.5v-20q-26 -1 -41.5 -4.5t-24.5 -12.5t-12 -25.5t-3 -43.5v-496q0 -27 3 -43.5t12 -25.5t24.5 -11.5t41.5 -2.5h123q25 0 44.5 9.5t33.5 31.5t23 58t13 88h23zM102 785q34 26 59 47.5l44 39l34 31t31 23.5q20 13 36.5 9.5t24.5 -16.5t4 -28.5t-25 -29.5
q-16 -10 -35 -17.5l-43 -17t-54 -22.5t-69 -32z" />
    <glyph glyph-name="Lcommaaccent" unicode="&#x13b;" horiz-adv-x="585" 
d="M42 0zM557 210q-3 -32 -3 -82q0 -19 1.5 -54.5t5.5 -73.5q-26 1 -55.5 1.5l-59.5 1t-59.5 0.5h-54.5h-57t-73.5 -0.5l-81 -1t-78.5 -1.5v20q25 1 41 4.5t25 12.5t12 25.5t3 43.5v496q0 27 -3 43.5t-12 25.5t-25 12.5t-41 4.5v20q21 -2 55 -2.5t73 -0.5q35 0 69.5 0.5
t57.5 2.5v-20q-26 -1 -41.5 -4.5t-24.5 -12.5t-12 -25.5t-3 -43.5v-496q0 -27 3 -43.5t12 -25.5t24.5 -11.5t41.5 -2.5h123q25 0 44.5 9.5t33.5 31.5t23 58t13 88h23zM263 -122q0 23 16.5 38t39.5 15q29 0 47 -20.5t18 -49.5q0 -36 -17 -60.5t-65 -41.5l-7 18q23 7 42.5 23
t19.5 40q-8 -7 -18.5 -11.5t-23.5 -4.5q-22 0 -37 14t-15 40z" />
    <glyph glyph-name="Lcaron" unicode="&#x13d;" horiz-adv-x="587" 
d="M42 0zM557 210q-3 -32 -3 -82q0 -19 1.5 -54.5t5.5 -73.5q-26 1 -55.5 1.5l-59.5 1t-59.5 0.5h-54.5h-57t-73.5 -0.5l-81 -1t-78.5 -1.5v20q25 1 41 4.5t25 12.5t12 25.5t3 43.5v496q0 27 -3 43.5t-12 25.5t-25 12.5t-41 4.5v20q21 -2 55 -2.5t73 -0.5q35 0 69.5 0.5
t57.5 2.5v-20q-26 -1 -41.5 -4.5t-24.5 -12.5t-12 -25.5t-3 -43.5v-496q0 -27 3 -43.5t12 -25.5t24.5 -11.5t41.5 -2.5h123q25 0 44.5 9.5t33.5 31.5t23 58t13 88h23zM374 482q12 76 16 113t4 52q0 20 -5.5 30t-24.5 10v21q38 -4 61.5 -1.5t44.5 7.5q2 -5 3.5 -16t1.5 -20
q0 -32 -23.5 -80t-63.5 -120z" />
    <glyph glyph-name="hacek.cap" horiz-adv-x="161" 
d="M45 482q12 76 16 113t4 52q0 20 -5.5 30t-24.5 10v21q38 -4 61.5 -1.5t44.5 7.5q2 -5 3.5 -16t1.5 -20q0 -32 -23.5 -80t-63.5 -120z" />
    <glyph glyph-name="Ldot" unicode="&#x13f;" horiz-adv-x="696" 
d="M42 0zM557 210q-3 -32 -3 -82q0 -19 1.5 -54.5t5.5 -73.5q-26 1 -55.5 1.5l-59.5 1t-59.5 0.5h-54.5h-57t-73.5 -0.5l-81 -1t-78.5 -1.5v20q25 1 41 4.5t25 12.5t12 25.5t3 43.5v496q0 27 -3 43.5t-12 25.5t-25 12.5t-41 4.5v20q21 -2 55 -2.5t73 -0.5q35 0 69.5 0.5
t57.5 2.5v-20q-26 -1 -41.5 -4.5t-24.5 -12.5t-12 -25.5t-3 -43.5v-496q0 -27 3 -43.5t12 -25.5t24.5 -11.5t41.5 -2.5h123q25 0 44.5 9.5t33.5 31.5t23 58t13 88h23zM562 356q0 26 19 45t45 19t45 -19t19 -45t-19 -45t-45 -19t-45 19t-19 45z" />
    <glyph glyph-name="Lslash" unicode="&#x141;" horiz-adv-x="588" 
d="M566 210q-3 -32 -3 -82q0 -19 1.5 -54.5t5.5 -73.5q-26 1 -55.5 1.5l-59.5 1t-59.5 0.5h-54.5h-57t-73.5 -0.5l-81 -1t-78.5 -1.5v20q25 1 41 4.5t25 12.5t12 25.5t3 43.5v151l-81 -47v23l81 47v322q0 27 -3 43.5t-12 25.5t-25 12.5t-41 4.5v20q21 -2 55 -2.5t73 -0.5
q35 0 69.5 0.5t57.5 2.5v-20q-26 -1 -41.5 -4.5t-24.5 -12.5t-12 -25.5t-3 -43.5v-279l257 150v-23l-257 -150v-194q0 -27 3 -43.5t12 -25.5t24.5 -11.5t41.5 -2.5h123q25 0 44.5 9.5t33.5 31.5t23 58t13 88h23z" />
    <glyph glyph-name="Ntilde" unicode="&#xd1;" horiz-adv-x="707" 
d="M42 0zM589 -5h-23l-420 649v-538q0 -27 3 -43.5t12 -25.5t24.5 -12.5t41.5 -4.5v-20q-18 2 -42 2.5t-50 0.5t-51 -0.5t-42 -2.5v20q25 1 41 4.5t25 12.5t12 25.5t3 43.5v496q0 27 -3 43.5t-12 25.5t-25 12.5t-41 4.5v20q17 -2 42 -2.5t51 -0.5q25 0 49 0.5t43 2.5
l339 -524v418q0 27 -3 43.5t-12 25.5t-25 12.5t-41 4.5v20q18 -2 42 -2.5t50 -0.5t51 0.5t42 2.5v-20q-26 -1 -41.5 -4.5t-24.5 -12.5t-12 -25.5t-3 -43.5v-607zM480 825q20 0 36.5 12t25.5 44l15 -3q-5 -50 -37 -78t-74 -28q-28 0 -52 12t-47 26.5t-46 26.5t-49 12
q-21 0 -37 -12t-25 -44l-15 3q5 50 37 78t74 28q28 0 52 -12t47 -26.5t46 -26.5t49 -12z" />
    <glyph glyph-name="Nacute" unicode="&#x143;" horiz-adv-x="707" 
d="M42 0zM589 -5h-23l-420 649v-538q0 -27 3 -43.5t12 -25.5t24.5 -12.5t41.5 -4.5v-20q-18 2 -42 2.5t-50 0.5t-51 -0.5t-42 -2.5v20q25 1 41 4.5t25 12.5t12 25.5t3 43.5v496q0 27 -3 43.5t-12 25.5t-25 12.5t-41 4.5v20q17 -2 42 -2.5t51 -0.5q25 0 49 0.5t43 2.5
l339 -524v418q0 27 -3 43.5t-12 25.5t-25 12.5t-41 4.5v20q18 -2 42 -2.5t50 -0.5t51 0.5t42 2.5v-20q-26 -1 -41.5 -4.5t-24.5 -12.5t-12 -25.5t-3 -43.5v-607zM306 785q34 26 59 47.5l44 39l34 31t31 23.5q20 13 36.5 9.5t24.5 -16.5t4 -28.5t-25 -29.5q-16 -10 -35 -17.5
l-43 -17t-54 -22.5t-69 -32z" />
    <glyph glyph-name="Ncommaaccent" unicode="&#x145;" horiz-adv-x="707" 
d="M42 0zM589 -5h-23l-420 649v-538q0 -27 3 -43.5t12 -25.5t24.5 -12.5t41.5 -4.5v-20q-18 2 -42 2.5t-50 0.5t-51 -0.5t-42 -2.5v20q25 1 41 4.5t25 12.5t12 25.5t3 43.5v496q0 27 -3 43.5t-12 25.5t-25 12.5t-41 4.5v20q17 -2 42 -2.5t51 -0.5q25 0 49 0.5t43 2.5
l339 -524v418q0 27 -3 43.5t-12 25.5t-25 12.5t-41 4.5v20q18 -2 42 -2.5t50 -0.5t51 0.5t42 2.5v-20q-26 -1 -41.5 -4.5t-24.5 -12.5t-12 -25.5t-3 -43.5v-607zM306 -122q0 23 16.5 38t39.5 15q29 0 47 -20.5t18 -49.5q0 -36 -17 -60.5t-65 -41.5l-7 18q23 7 42.5 23
t19.5 40q-8 -7 -18.5 -11.5t-23.5 -4.5q-22 0 -37 14t-15 40z" />
    <glyph glyph-name="Nkreska" horiz-adv-x="707" 
d="M42 0zM589 -5h-23l-420 649v-538q0 -27 3 -43.5t12 -25.5t24.5 -12.5t41.5 -4.5v-20q-18 2 -42 2.5t-50 0.5t-51 -0.5t-42 -2.5v20q25 1 41 4.5t25 12.5t12 25.5t3 43.5v496q0 27 -3 43.5t-12 25.5t-25 12.5t-41 4.5v20q17 -2 42 -2.5t51 -0.5q25 0 49 0.5t43 2.5
l339 -524v418q0 27 -3 43.5t-12 25.5t-25 12.5t-41 4.5v20q18 -2 42 -2.5t50 -0.5t51 0.5t42 2.5v-20q-26 -1 -41.5 -4.5t-24.5 -12.5t-12 -25.5t-3 -43.5v-607zM355 765q7 26 10.5 47.5t6 39.5t5 33.5t7.5 28.5q8 18 22.5 21.5t29.5 -1.5q13 -6 20 -20t-1 -31
q-6 -13 -15 -25.5t-20.5 -27l-24.5 -31.5t-27 -40z" />
    <glyph glyph-name="Ncaron" unicode="&#x147;" horiz-adv-x="707" 
d="M42 0zM589 -5h-23l-420 649v-538q0 -27 3 -43.5t12 -25.5t24.5 -12.5t41.5 -4.5v-20q-18 2 -42 2.5t-50 0.5t-51 -0.5t-42 -2.5v20q25 1 41 4.5t25 12.5t12 25.5t3 43.5v496q0 27 -3 43.5t-12 25.5t-25 12.5t-41 4.5v20q17 -2 42 -2.5t51 -0.5q25 0 49 0.5t43 2.5
l339 -524v418q0 27 -3 43.5t-12 25.5t-25 12.5t-41 4.5v20q18 -2 42 -2.5t50 -0.5t51 0.5t42 2.5v-20q-26 -1 -41.5 -4.5t-24.5 -12.5t-12 -25.5t-3 -43.5v-607zM384 856q29 19 76 38t95 32l5 -14q-66 -23 -115 -58.5t-72 -73.5h-18q-23 38 -72 73.5t-115 58.5l5 14
q30 -6 60 -14.5t58 -17.5t52 -19t41 -19z" />
    <glyph glyph-name="Eng" unicode="&#x14a;" horiz-adv-x="707" 
d="M589 91q0 -86 -11 -140.5t-30.5 -85.5t-45 -42t-55.5 -11q-18 0 -34 3.5t-28.5 11t-20 19t-7.5 28.5q0 23 13.5 36.5t33.5 13.5t35 -13.5t15 -33.5q0 -14 -7.5 -26.5t-18.5 -19.5q5 -1 11 -1.5t12 -0.5q53 0 80 45t33 124l-418 646v-538q0 -27 3 -43.5t12 -25.5
t24.5 -12.5t41.5 -4.5v-20q-18 2 -42 2.5t-50 0.5t-51 -0.5t-42 -2.5v20q25 1 41 4.5t25 12.5t12 25.5t3 43.5v496q0 27 -3 43.5t-12 25.5t-25 12.5t-41 4.5v20q17 -2 42 -2.5t51 -0.5q25 0 49 0.5t43 2.5l339 -524v418q0 27 -3 43.5t-12 25.5t-25 12.5t-41 4.5v20
q18 -2 42 -2.5t50 -0.5t51 0.5t42 2.5v-20q-26 -1 -41.5 -4.5t-24.5 -12.5t-12 -25.5t-3 -43.5v-511z" />
    <glyph glyph-name="Ograve" unicode="&#xd2;" horiz-adv-x="743" 
d="M54 0zM54 348q0 84 23.5 153t65.5 118t100.5 76t128.5 27q71 0 129.5 -24.5t100 -71t64.5 -113.5t23 -153q0 -84 -23.5 -153t-65.5 -118t-100.5 -76t-128.5 -27q-71 0 -129.5 24.5t-100 71t-64.5 113.5t-23 153zM154 352q0 -80 17 -144.5t47 -109.5t70.5 -69.5
t86.5 -24.5q49 0 88.5 26t67.5 72.5t43 111t15 142.5q0 80 -17 144.5t-47 109.5t-70.5 69.5t-86.5 24.5q-49 0 -88.5 -26t-67.5 -72.5t-43 -111t-15 -142.5zM436 772q-39 19 -69 32t-54 22.5l-43 17t-35 17.5q-21 14 -25 29.5t4 28.5t24.5 16.5t36.5 -9.5q16 -10 31 -23.5
l34 -31l43.5 -39t59.5 -47.5z" />
    <glyph glyph-name="Oacute" unicode="&#xd3;" horiz-adv-x="743" 
d="M54 0zM54 348q0 84 23.5 153t65.5 118t100.5 76t128.5 27q71 0 129.5 -24.5t100 -71t64.5 -113.5t23 -153q0 -84 -23.5 -153t-65.5 -118t-100.5 -76t-128.5 -27q-71 0 -129.5 24.5t-100 71t-64.5 113.5t-23 153zM154 352q0 -80 17 -144.5t47 -109.5t70.5 -69.5
t86.5 -24.5q49 0 88.5 26t67.5 72.5t43 111t15 142.5q0 80 -17 144.5t-47 109.5t-70.5 69.5t-86.5 24.5q-49 0 -88.5 -26t-67.5 -72.5t-43 -111t-15 -142.5zM315 785q34 26 59 47.5l44 39l34 31t31 23.5q20 13 36.5 9.5t24.5 -16.5t4 -28.5t-25 -29.5q-16 -10 -35 -17.5
l-43 -17t-54 -22.5t-69 -32z" />
    <glyph glyph-name="Okreska" horiz-adv-x="743" 
d="M54 0zM54 348q0 84 23.5 153t65.5 118t100.5 76t128.5 27q71 0 129.5 -24.5t100 -71t64.5 -113.5t23 -153q0 -84 -23.5 -153t-65.5 -118t-100.5 -76t-128.5 -27q-71 0 -129.5 24.5t-100 71t-64.5 113.5t-23 153zM154 352q0 -80 17 -144.5t47 -109.5t70.5 -69.5
t86.5 -24.5q49 0 88.5 26t67.5 72.5t43 111t15 142.5q0 80 -17 144.5t-47 109.5t-70.5 69.5t-86.5 24.5q-49 0 -88.5 -26t-67.5 -72.5t-43 -111t-15 -142.5zM363 765q7 26 10.5 47.5t6 39.5t5 33.5t7.5 28.5q8 18 22.5 21.5t29.5 -1.5q13 -6 20 -20t-1 -31q-6 -13 -15 -25.5
t-20.5 -27l-24.5 -31.5t-27 -40z" />
    <glyph glyph-name="Ocircumflex" unicode="&#xd4;" horiz-adv-x="743" 
d="M54 0zM54 348q0 84 23.5 153t65.5 118t100.5 76t128.5 27q71 0 129.5 -24.5t100 -71t64.5 -113.5t23 -153q0 -84 -23.5 -153t-65.5 -118t-100.5 -76t-128.5 -27q-71 0 -129.5 24.5t-100 71t-64.5 113.5t-23 153zM154 352q0 -80 17 -144.5t47 -109.5t70.5 -69.5
t86.5 -24.5q49 0 88.5 26t67.5 72.5t43 111t15 142.5q0 80 -17 144.5t-47 109.5t-70.5 69.5t-86.5 24.5q-49 0 -88.5 -26t-67.5 -72.5t-43 -111t-15 -142.5zM356 840q-29 -19 -76 -38t-95 -32l-5 14q66 23 115 58.5t72 73.5h18q23 -38 72 -73.5t115 -58.5l-5 -14
q-30 6 -60.5 14.5t-58 17.5t-51.5 19t-41 19z" />
    <glyph glyph-name="Otilde" unicode="&#xd5;" horiz-adv-x="743" 
d="M54 0zM54 348q0 84 23.5 153t65.5 118t100.5 76t128.5 27q71 0 129.5 -24.5t100 -71t64.5 -113.5t23 -153q0 -84 -23.5 -153t-65.5 -118t-100.5 -76t-128.5 -27q-71 0 -129.5 24.5t-100 71t-64.5 113.5t-23 153zM154 352q0 -80 17 -144.5t47 -109.5t70.5 -69.5
t86.5 -24.5q49 0 88.5 26t67.5 72.5t43 111t15 142.5q0 80 -17 144.5t-47 109.5t-70.5 69.5t-86.5 24.5q-49 0 -88.5 -26t-67.5 -72.5t-43 -111t-15 -142.5zM489 825q20 0 36.5 12t25.5 44l15 -3q-5 -50 -37 -78t-74 -28q-28 0 -52 12t-47 26.5t-46 26.5t-49 12
q-21 0 -37 -12t-25 -44l-15 3q5 50 37 78t74 28q28 0 52 -12t47 -26.5t46 -26.5t49 -12z" />
    <glyph glyph-name="Odieresis" unicode="&#xd6;" horiz-adv-x="743" 
d="M54 0zM54 348q0 84 23.5 153t65.5 118t100.5 76t128.5 27q71 0 129.5 -24.5t100 -71t64.5 -113.5t23 -153q0 -84 -23.5 -153t-65.5 -118t-100.5 -76t-128.5 -27q-71 0 -129.5 24.5t-100 71t-64.5 113.5t-23 153zM154 352q0 -80 17 -144.5t47 -109.5t70.5 -69.5
t86.5 -24.5q49 0 88.5 26t67.5 72.5t43 111t15 142.5q0 80 -17 144.5t-47 109.5t-70.5 69.5t-86.5 24.5q-49 0 -88.5 -26t-67.5 -72.5t-43 -111t-15 -142.5zM212 830q0 23 17 40.5t41 17.5q23 0 40.5 -17.5t17.5 -40.5q0 -24 -17.5 -41t-40.5 -17q-24 0 -41 17t-17 41z
M424 830q0 23 17 40.5t41 17.5q23 0 40.5 -17.5t17.5 -40.5q0 -24 -17.5 -41t-40.5 -17q-24 0 -41 17t-17 41z" />
    <glyph glyph-name="Omacron" unicode="&#x14c;" horiz-adv-x="743" 
d="M54 0zM54 348q0 84 23.5 153t65.5 118t100.5 76t128.5 27q71 0 129.5 -24.5t100 -71t64.5 -113.5t23 -153q0 -84 -23.5 -153t-65.5 -118t-100.5 -76t-128.5 -27q-71 0 -129.5 24.5t-100 71t-64.5 113.5t-23 153zM154 352q0 -80 17 -144.5t47 -109.5t70.5 -69.5
t86.5 -24.5q49 0 88.5 26t67.5 72.5t43 111t15 142.5q0 80 -17 144.5t-47 109.5t-70.5 69.5t-86.5 24.5q-49 0 -88.5 -26t-67.5 -72.5t-43 -111t-15 -142.5zM552 844v-25h-352v25h352z" />
    <glyph glyph-name="Obreve" unicode="&#x14e;" horiz-adv-x="743" 
d="M54 0zM54 348q0 84 23.5 153t65.5 118t100.5 76t128.5 27q71 0 129.5 -24.5t100 -71t64.5 -113.5t23 -153q0 -84 -23.5 -153t-65.5 -118t-100.5 -76t-128.5 -27q-71 0 -129.5 24.5t-100 71t-64.5 113.5t-23 153zM154 352q0 -80 17 -144.5t47 -109.5t70.5 -69.5
t86.5 -24.5q49 0 88.5 26t67.5 72.5t43 111t15 142.5q0 80 -17 144.5t-47 109.5t-70.5 69.5t-86.5 24.5q-49 0 -88.5 -26t-67.5 -72.5t-43 -111t-15 -142.5zM376 844q72 0 118 21t69 44l12 -11q-12 -20 -30.5 -40.5t-43 -37t-56 -27.5t-69.5 -11t-69.5 11t-56.5 27.5t-43 37
t-30 40.5l13 10q23 -23 68.5 -43.5t117.5 -20.5z" />
    <glyph glyph-name="Ohungarumlaut" unicode="&#x150;" horiz-adv-x="743" 
d="M54 0zM54 348q0 84 23.5 153t65.5 118t100.5 76t128.5 27q71 0 129.5 -24.5t100 -71t64.5 -113.5t23 -153q0 -84 -23.5 -153t-65.5 -118t-100.5 -76t-128.5 -27q-71 0 -129.5 24.5t-100 71t-64.5 113.5t-23 153zM154 352q0 -80 17 -144.5t47 -109.5t70.5 -69.5
t86.5 -24.5q49 0 88.5 26t67.5 72.5t43 111t15 142.5q0 80 -17 144.5t-47 109.5t-70.5 69.5t-86.5 24.5q-49 0 -88.5 -26t-67.5 -72.5t-43 -111t-15 -142.5zM258 784q36 36 62 74.5t55 63.5q18 16 34.5 14.5t26.5 -12.5q11 -12 9 -28t-21 -33q-15 -12 -33.5 -22l-39 -20.5
l-42 -22t-42.5 -26.5zM445 784q36 36 62 74.5t55 63.5q18 16 34.5 14.5t26.5 -12.5q11 -12 9 -28t-21 -33q-15 -12 -33.5 -22l-39 -20.5l-42 -22t-42.5 -26.5z" />
    <glyph glyph-name="hungarumlaut.cap" horiz-adv-x="455" 
d="M55 784q36 36 62 74.5t55 63.5q18 16 34.5 14.5t26.5 -12.5q11 -12 9 -28t-21 -33q-15 -12 -33.5 -22l-39 -20.5l-42 -22t-42.5 -26.5zM242 784q36 36 62 74.5t55 63.5q18 16 34.5 14.5t26.5 -12.5q11 -12 9 -28t-21 -33q-15 -12 -33.5 -22l-39 -20.5l-42 -22
t-42.5 -26.5z" />
    <glyph glyph-name="Oslash" unicode="&#xd8;" horiz-adv-x="743" 
d="M54 348q0 84 23.5 153t65.5 118t100.5 76t128.5 27q57 0 106 -16t88 -46l78 113l19 -13l-79 -116q50 -46 77.5 -117.5t27.5 -166.5q0 -84 -23.5 -153t-65.5 -118t-100.5 -76t-128.5 -27q-115 0 -194 62l-82 -121l-21 14l84 123q-50 46 -77 117.5t-27 166.5zM154 352
q0 -71 13.5 -128.5t36.5 -102.5l321 488q-30 46 -70 70.5t-87 24.5q-49 0 -88.5 -26t-67.5 -72.5t-43 -111t-15 -142.5zM589 356q0 70 -13.5 128t-37.5 102l-320 -488q30 -46 70 -70t87 -24q49 0 88.5 26t67.5 72.5t43 111t15 142.5z" />
    <glyph glyph-name="Oslashacute" unicode="&#x1fe;" horiz-adv-x="743" 
d="M54 348q0 84 23.5 153t65.5 118t100.5 76t128.5 27q57 0 106 -16t88 -46l78 113l19 -13l-79 -116q50 -46 77.5 -117.5t27.5 -166.5q0 -84 -23.5 -153t-65.5 -118t-100.5 -76t-128.5 -27q-115 0 -194 62l-82 -121l-21 14l84 123q-50 46 -77 117.5t-27 166.5zM316 785
q34 26 59 47.5l44 39l34 31t31 23.5q20 13 36.5 9.5t24.5 -16.5t4 -28.5t-25 -29.5q-16 -10 -35 -17.5l-43 -17t-54 -22.5t-69 -32zM589 356q0 70 -13.5 128t-37.5 102l-320 -488q30 -46 70 -70t87 -24q49 0 88.5 26t67.5 72.5t43 111t15 142.5zM154 352q0 -71 13.5 -128.5
t36.5 -102.5l321 488q-30 46 -70 70.5t-87 24.5q-49 0 -88.5 -26t-67.5 -72.5t-43 -111t-15 -142.5z" />
    <glyph glyph-name="OE" unicode="&#x152;" horiz-adv-x="929" 
d="M460 707q30 -1 60.5 -1.5t58.5 -0.5h52h41h45t49 0.5l49.5 1t45.5 1.5q-4 -35 -5.5 -68t-1.5 -50q0 -18 0.5 -34.5t2.5 -27.5h-23q-4 44 -9 74t-16 48.5t-29.5 26.5t-49.5 8h-63q-26 0 -41.5 -2.5t-24.5 -11.5t-12 -25.5t-3 -43.5v-236h78q24 1 37 13t19 29.5t8 36
t4 33.5h23q-2 -25 -2.5 -43t-0.5 -32v-25v-22v-22t1 -25t2 -32t3 -43h-23q-2 20 -4.5 40t-10 36t-21.5 26t-40 10h-73v-240q0 -27 3 -43.5t12 -25.5t24.5 -11.5t41.5 -2.5h73q37 0 57.5 9t32 30t16 54.5t8.5 83.5h23q-2 -14 -2.5 -32.5t-0.5 -39.5q0 -19 1.5 -54.5
t5.5 -73.5q-23 1 -50 1.5l-55 1t-54.5 0.5h-49.5h-42.5h-54.5t-60.5 -0.5t-61.5 -1.5q-39 -15 -82 -15q-71 0 -129.5 24.5t-100 71t-64.5 113.5t-23 153q0 84 23.5 153t65.5 118t100.5 76t128.5 27q47 0 88 -15zM493 602q0 27 -10 46.5t-27 32t-40 18t-48 5.5
q-49 0 -88.5 -26t-67.5 -72.5t-43 -111t-15 -142.5q0 -80 17 -144.5t47 -109.5t70.5 -69.5t86.5 -24.5q19 0 40 5.5t38.5 18t28.5 32t11 46.5v496z" />
    <glyph glyph-name="Racute" unicode="&#x154;" horiz-adv-x="647" 
d="M42 0zM660 50q-21 -31 -43.5 -47.5t-63.5 -16.5q-19 0 -35.5 5t-30 17t-24 33t-17.5 53l-22 100q-7 32 -14.5 58t-19.5 45t-30.5 29t-48.5 10h-95v-230q0 -27 3 -43.5t12 -25.5t24.5 -12.5t41.5 -4.5v-20q-23 2 -57.5 2.5t-69.5 0.5q-39 0 -73 -0.5t-55 -2.5v20
q25 1 41 4.5t25 12.5t12 25.5t3 43.5v496q0 27 -3 43.5t-12 25.5t-25 12.5t-41 4.5v20q21 -2 55 -2.5t67 -0.5q24 0 47 0.5t43 0.5t36 0.5t25 0.5q60 0 105.5 -13.5t75.5 -37t45 -55t15 -68.5q0 -26 -9 -56t-31 -57.5t-59.5 -48.5t-93.5 -30q3 -1 5.5 -1.5t5.5 -0.5
q33 -6 57 -15.5t41 -25t28 -38t18 -53.5l23 -102q10 -45 19.5 -64t31.5 -18q17 1 28 11t25 27zM216 356h67q53 0 87 13t53 35.5t26 52.5t7 65q0 79 -37.5 122.5t-128.5 43.5q-23 0 -37.5 -3.5t-22.5 -13.5t-11 -26.5t-3 -42.5v-246zM238 785q34 26 59 47.5l44 39l34 31
t31 23.5q20 13 36.5 9.5t24.5 -16.5t4 -28.5t-25 -29.5q-16 -10 -35 -17.5l-43 -17t-54 -22.5t-69 -32z" />
    <glyph glyph-name="Rcommaaccent" unicode="&#x156;" horiz-adv-x="647" 
d="M42 0zM660 50q-21 -31 -43.5 -47.5t-63.5 -16.5q-19 0 -35.5 5t-30 17t-24 33t-17.5 53l-22 100q-7 32 -14.5 58t-19.5 45t-30.5 29t-48.5 10h-95v-230q0 -27 3 -43.5t12 -25.5t24.5 -12.5t41.5 -4.5v-20q-23 2 -57.5 2.5t-69.5 0.5q-39 0 -73 -0.5t-55 -2.5v20
q25 1 41 4.5t25 12.5t12 25.5t3 43.5v496q0 27 -3 43.5t-12 25.5t-25 12.5t-41 4.5v20q21 -2 55 -2.5t67 -0.5q24 0 47 0.5t43 0.5t36 0.5t25 0.5q60 0 105.5 -13.5t75.5 -37t45 -55t15 -68.5q0 -26 -9 -56t-31 -57.5t-59.5 -48.5t-93.5 -30q3 -1 5.5 -1.5t5.5 -0.5
q33 -6 57 -15.5t41 -25t28 -38t18 -53.5l23 -102q10 -45 19.5 -64t31.5 -18q17 1 28 11t25 27zM216 356h67q53 0 87 13t53 35.5t26 52.5t7 65q0 79 -37.5 122.5t-128.5 43.5q-23 0 -37.5 -3.5t-22.5 -13.5t-11 -26.5t-3 -42.5v-246zM286 -122q0 23 16.5 38t39.5 15
q29 0 47 -20.5t18 -49.5q0 -36 -17 -60.5t-65 -41.5l-7 18q23 7 42.5 23t19.5 40q-8 -7 -18.5 -11.5t-23.5 -4.5q-22 0 -37 14t-15 40z" />
    <glyph glyph-name="Rcaron" unicode="&#x158;" horiz-adv-x="647" 
d="M42 0zM660 50q-21 -31 -43.5 -47.5t-63.5 -16.5q-19 0 -35.5 5t-30 17t-24 33t-17.5 53l-22 100q-7 32 -14.5 58t-19.5 45t-30.5 29t-48.5 10h-95v-230q0 -27 3 -43.5t12 -25.5t24.5 -12.5t41.5 -4.5v-20q-23 2 -57.5 2.5t-69.5 0.5q-39 0 -73 -0.5t-55 -2.5v20
q25 1 41 4.5t25 12.5t12 25.5t3 43.5v496q0 27 -3 43.5t-12 25.5t-25 12.5t-41 4.5v20q21 -2 55 -2.5t67 -0.5q24 0 47 0.5t43 0.5t36 0.5t25 0.5q60 0 105.5 -13.5t75.5 -37t45 -55t15 -68.5q0 -26 -9 -56t-31 -57.5t-59.5 -48.5t-93.5 -30q3 -1 5.5 -1.5t5.5 -0.5
q33 -6 57 -15.5t41 -25t28 -38t18 -53.5l23 -102q10 -45 19.5 -64t31.5 -18q17 1 28 11t25 27zM216 356h67q53 0 87 13t53 35.5t26 52.5t7 65q0 79 -37.5 122.5t-128.5 43.5q-23 0 -37.5 -3.5t-22.5 -13.5t-11 -26.5t-3 -42.5v-246zM304 856q29 19 76 38t95 32l5 -14
q-66 -23 -115 -58.5t-72 -73.5h-18q-23 38 -72 73.5t-115 58.5l5 14q30 -6 60 -14.5t58 -17.5t52 -19t41 -19z" />
    <glyph glyph-name="Sacute" unicode="&#x15a;" horiz-adv-x="540" 
d="M63 0zM457 712q-1 -13 -2 -29t-1.5 -39t-1 -56t-0.5 -80h-23q-3 36 -13 70.5t-30 61.5t-49.5 43.5t-71.5 16.5q-54 0 -88 -32t-34 -84q0 -34 13.5 -59t36.5 -45.5t53.5 -39l64.5 -39.5q39 -24 72 -47.5t57 -49.5t37.5 -57t13.5 -71q0 -48 -17 -83.5t-45.5 -59
t-67.5 -35.5t-82 -12q-53 0 -84 11.5t-53 25.5t-34 14q-10 0 -14.5 -11t-7.5 -33h-23q1 15 2 35t1.5 47.5t0.5 66v91.5h23q3 -45 14 -86.5t32 -72.5t54.5 -49.5t81.5 -18.5q24 0 47.5 7.5t42 23.5t29.5 41.5t11 60.5q0 30 -11.5 54.5t-32 46t-49 41.5t-63.5 41
q-36 21 -68 43t-56.5 48t-39 58.5t-14.5 74.5q0 44 15.5 76.5t41.5 54t60 32t71 10.5q25 0 43 -3.5t32.5 -8.5t25.5 -11.5t21 -13.5q22 -14 34 -14q10 0 14.5 11t7.5 33h23zM221 785q34 26 59 47.5l44 39l34 31t31 23.5q20 13 36.5 9.5t24.5 -16.5t4 -28.5t-25 -29.5
q-16 -10 -35 -17.5l-43 -17t-54 -22.5t-69 -32z" />
    <glyph glyph-name="Skreska" horiz-adv-x="540" 
d="M63 0zM457 712q-1 -13 -2 -29t-1.5 -39t-1 -56t-0.5 -80h-23q-3 36 -13 70.5t-30 61.5t-49.5 43.5t-71.5 16.5q-54 0 -88 -32t-34 -84q0 -34 13.5 -59t36.5 -45.5t53.5 -39l64.5 -39.5q39 -24 72 -47.5t57 -49.5t37.5 -57t13.5 -71q0 -48 -17 -83.5t-45.5 -59
t-67.5 -35.5t-82 -12q-53 0 -84 11.5t-53 25.5t-34 14q-10 0 -14.5 -11t-7.5 -33h-23q1 15 2 35t1.5 47.5t0.5 66v91.5h23q3 -45 14 -86.5t32 -72.5t54.5 -49.5t81.5 -18.5q24 0 47.5 7.5t42 23.5t29.5 41.5t11 60.5q0 30 -11.5 54.5t-32 46t-49 41.5t-63.5 41
q-36 21 -68 43t-56.5 48t-39 58.5t-14.5 74.5q0 44 15.5 76.5t41.5 54t60 32t71 10.5q25 0 43 -3.5t32.5 -8.5t25.5 -11.5t21 -13.5q22 -14 34 -14q10 0 14.5 11t7.5 33h23zM257 765q7 26 10.5 47.5t6 39.5t5 33.5t7.5 28.5q8 18 22.5 21.5t29.5 -1.5q13 -6 20 -20t-1 -31
q-6 -13 -15 -25.5t-20.5 -27l-24.5 -31.5t-27 -40z" />
    <glyph glyph-name="Scircumflex" unicode="&#x15c;" horiz-adv-x="540" 
d="M63 0zM457 712q-1 -13 -2 -29t-1.5 -39t-1 -56t-0.5 -80h-23q-3 36 -13 70.5t-30 61.5t-49.5 43.5t-71.5 16.5q-54 0 -88 -32t-34 -84q0 -34 13.5 -59t36.5 -45.5t53.5 -39l64.5 -39.5q39 -24 72 -47.5t57 -49.5t37.5 -57t13.5 -71q0 -48 -17 -83.5t-45.5 -59
t-67.5 -35.5t-82 -12q-53 0 -84 11.5t-53 25.5t-34 14q-10 0 -14.5 -11t-7.5 -33h-23q1 15 2 35t1.5 47.5t0.5 66v91.5h23q3 -45 14 -86.5t32 -72.5t54.5 -49.5t81.5 -18.5q24 0 47.5 7.5t42 23.5t29.5 41.5t11 60.5q0 30 -11.5 54.5t-32 46t-49 41.5t-63.5 41
q-36 21 -68 43t-56.5 48t-39 58.5t-14.5 74.5q0 44 15.5 76.5t41.5 54t60 32t71 10.5q25 0 43 -3.5t32.5 -8.5t25.5 -11.5t21 -13.5q22 -14 34 -14q10 0 14.5 11t7.5 33h23zM262 840q-29 -19 -76 -38t-95 -32l-5 14q66 23 115 58.5t72 73.5h18q23 -38 72 -73.5t115 -58.5
l-5 -14q-30 6 -60.5 14.5t-58 17.5t-51.5 19t-41 19z" />
    <glyph glyph-name="Scedilla" unicode="&#x15e;" horiz-adv-x="541" 
d="M457 712q-1 -13 -2 -29t-1.5 -39t-1 -56t-0.5 -80h-23q-3 36 -13 70.5t-30 61.5t-49.5 43.5t-71.5 16.5q-54 0 -88 -32t-34 -84q0 -34 13.5 -59t36.5 -45.5t53.5 -39l64.5 -39.5q39 -24 72 -47.5t57 -49.5t37.5 -57t13.5 -71q0 -47 -16 -82t-44 -58.5t-65 -36t-79 -13.5
l-19 -58q13 3 27.5 5t31.5 2q28 0 44.5 -12t16.5 -35q0 -21 -11 -35.5t-27.5 -23.5t-36.5 -13t-38 -4q-28 0 -48.5 3t-34.5 8l4 18q5 -1 15.5 -2t22.5 -1q15 0 30.5 2t29 7t22 13.5t8.5 22.5q0 28 -42 28q-8 0 -23 -1.5t-26 -5.5l27 83q-45 2 -71.5 12.5t-46.5 23.5
q-22 14 -34 14q-10 0 -14.5 -11t-7.5 -33h-23q1 15 2 35t1.5 47.5t0.5 66v91.5h23q3 -45 14 -86.5t32 -72.5t54.5 -49.5t81.5 -18.5q24 0 47.5 7.5t42 23.5t29.5 41.5t11 60.5q0 30 -11.5 54.5t-32 46t-49 41.5t-63.5 41q-36 21 -68 43t-56.5 48t-39 58.5t-14.5 74.5
q0 44 15.5 76.5t41.5 54t60 32t71 10.5q25 0 43 -3.5t32.5 -8.5t25.5 -11.5t21 -13.5q22 -14 34 -14q10 0 14.5 11t7.5 33h23z" />
    <glyph glyph-name="Scaron" unicode="&#x160;" horiz-adv-x="540" 
d="M63 0zM457 712q-1 -13 -2 -29t-1.5 -39t-1 -56t-0.5 -80h-23q-3 36 -13 70.5t-30 61.5t-49.5 43.5t-71.5 16.5q-54 0 -88 -32t-34 -84q0 -34 13.5 -59t36.5 -45.5t53.5 -39l64.5 -39.5q39 -24 72 -47.5t57 -49.5t37.5 -57t13.5 -71q0 -48 -17 -83.5t-45.5 -59
t-67.5 -35.5t-82 -12q-53 0 -84 11.5t-53 25.5t-34 14q-10 0 -14.5 -11t-7.5 -33h-23q1 15 2 35t1.5 47.5t0.5 66v91.5h23q3 -45 14 -86.5t32 -72.5t54.5 -49.5t81.5 -18.5q24 0 47.5 7.5t42 23.5t29.5 41.5t11 60.5q0 30 -11.5 54.5t-32 46t-49 41.5t-63.5 41
q-36 21 -68 43t-56.5 48t-39 58.5t-14.5 74.5q0 44 15.5 76.5t41.5 54t60 32t71 10.5q25 0 43 -3.5t32.5 -8.5t25.5 -11.5t21 -13.5q22 -14 34 -14q10 0 14.5 11t7.5 33h23zM299 856q29 19 76 38t95 32l5 -14q-66 -23 -115 -58.5t-72 -73.5h-18q-23 38 -72 73.5t-115 58.5
l5 14q30 -6 60 -14.5t58 -17.5t52 -19t41 -19z" />
    <glyph glyph-name="uni0218" unicode="&#x218;" horiz-adv-x="540" 
d="M63 0zM457 712q-1 -13 -2 -29t-1.5 -39t-1 -56t-0.5 -80h-23q-3 36 -13 70.5t-30 61.5t-49.5 43.5t-71.5 16.5q-54 0 -88 -32t-34 -84q0 -34 13.5 -59t36.5 -45.5t53.5 -39l64.5 -39.5q39 -24 72 -47.5t57 -49.5t37.5 -57t13.5 -71q0 -48 -17 -83.5t-45.5 -59
t-67.5 -35.5t-82 -12q-53 0 -84 11.5t-53 25.5t-34 14q-10 0 -14.5 -11t-7.5 -33h-23q1 15 2 35t1.5 47.5t0.5 66v91.5h23q3 -45 14 -86.5t32 -72.5t54.5 -49.5t81.5 -18.5q24 0 47.5 7.5t42 23.5t29.5 41.5t11 60.5q0 30 -11.5 54.5t-32 46t-49 41.5t-63.5 41
q-36 21 -68 43t-56.5 48t-39 58.5t-14.5 74.5q0 44 15.5 76.5t41.5 54t60 32t71 10.5q25 0 43 -3.5t32.5 -8.5t25.5 -11.5t21 -13.5q22 -14 34 -14q10 0 14.5 11t7.5 33h23zM225 -122q0 23 16.5 38t39.5 15q29 0 47 -20.5t18 -49.5q0 -36 -17 -60.5t-65 -41.5l-7 18
q23 7 42.5 23t19.5 40q-8 -7 -18.5 -11.5t-23.5 -4.5q-22 0 -37 14t-15 40z" />
    <glyph glyph-name="germandbls.cap" unicode="&#x1e9e;" horiz-adv-x="702" 
d="M405 5q39 0 67.5 16t47.5 43t28.5 61.5t9.5 71.5q0 48 -15 86t-42 66t-65 45.5t-84 24.5l157 256q-20 15 -52 22t-62 7q-37 0 -71 -12t-60.5 -41.5t-42 -79.5t-15.5 -127v-338q0 -25 2 -41.5t8 -26.5t17 -14t28 -4v-20q-11 0 -22 0.5t-23.5 1t-29 1t-39.5 0.5h-28.5
t-31.5 -0.5t-30.5 -1t-24.5 -1.5v20q25 1 41 4.5t25 12.5t12 25.5t3 43.5v277q0 176 71 257.5t200 81.5q63 0 113.5 -18t95.5 -53l-151 -239q46 -10 85.5 -29.5t68.5 -47t45.5 -63.5t16.5 -78t-17 -80t-49 -66.5t-78 -45t-104 -16.5q-35 0 -58 5.5t-37 12.5q-26 13 -37.5 31
t-11.5 38q0 23 15 38t38 15t39 -14t16 -40q0 -22 -11.5 -34.5t-30.5 -16.5q6 -5 15 -8t19.5 -5t21 -2.5t17.5 -0.5z" />
    <glyph glyph-name="uni0162" unicode="&#x162;" horiz-adv-x="637" 
d="M272 685h-104q-26 0 -45 -9.5t-33 -31.5t-23 -58t-13 -88h-23q2 16 2.5 37t0.5 45q0 19 -1.5 54.5t-5.5 73.5q32 -1 70 -1.5l76.5 -1t76 -0.5h69.5h69.5t76 0.5l76 1t69.5 1.5q-4 -38 -5.5 -73.5t-1.5 -54.5q0 -24 0.5 -45t2.5 -37h-23q-4 52 -13 88t-23 58t-33.5 31.5
t-44.5 9.5h-104v-569q0 -30 4 -48.5t15 -28.5t30.5 -14t51.5 -5v-20q-26 2 -63.5 2.5t-76.5 0.5l-25 -75q13 3 27.5 5t31.5 2q28 0 44.5 -12t16.5 -35q0 -21 -11 -35.5t-27.5 -23.5t-36.5 -13t-38 -4q-28 0 -48.5 3t-34.5 8l4 18q5 -1 15.5 -2t22.5 -1q15 0 30.5 2t29 7
t22 13.5t8.5 22.5q0 28 -42 28q-8 0 -23 -1.5t-26 -5.5l33 99q-39 0 -73 -0.5t-55 -2.5v20q31 1 51 5t31 14t15 28.5t4 48.5v569z" />
    <glyph glyph-name="Tcaron" unicode="&#x164;" horiz-adv-x="637" 
d="M27 0zM272 685h-104q-26 0 -45 -9.5t-33 -31.5t-23 -58t-13 -88h-23q2 16 2.5 37t0.5 45q0 19 -1.5 54.5t-5.5 73.5q32 -1 70 -1.5l76.5 -1t76 -0.5h69.5h69.5t76 0.5l76 1t69.5 1.5q-4 -38 -5.5 -73.5t-1.5 -54.5q0 -24 0.5 -45t2.5 -37h-23q-4 52 -13 88t-23 58
t-33.5 31.5t-44.5 9.5h-104v-569q0 -30 4 -48.5t15 -28.5t30.5 -14t51.5 -5v-20q-26 2 -66 2.5t-81 0.5q-45 0 -84.5 -0.5t-63.5 -2.5v20q31 1 51 5t31 14t15 28.5t4 48.5v569zM339 856q29 19 76 38t95 32l5 -14q-66 -23 -115 -58.5t-72 -73.5h-18q-23 38 -72 73.5
t-115 58.5l5 14q30 -6 60 -14.5t58 -17.5t52 -19t41 -19z" />
    <glyph glyph-name="Tbar" unicode="&#x166;" horiz-adv-x="637" 
d="M272 346h-161v20h161v319h-104q-26 0 -45 -9.5t-33 -31.5t-23 -58t-13 -88h-23q2 16 2.5 37t0.5 45q0 19 -1.5 54.5t-5.5 73.5q32 -1 70 -1.5l76.5 -1t76 -0.5h69.5h69.5t76 0.5l76 1t69.5 1.5q-4 -38 -5.5 -73.5t-1.5 -54.5q0 -24 0.5 -45t2.5 -37h-23q-4 52 -13 88
t-23 58t-33.5 31.5t-44.5 9.5h-104v-319h160v-20h-160v-230q0 -30 4 -48.5t15 -28.5t30.5 -14t51.5 -5v-20q-26 2 -66 2.5t-81 0.5q-45 0 -84.5 -0.5t-63.5 -2.5v20q31 1 51 5t31 14t15 28.5t4 48.5v230z" />
    <glyph glyph-name="uni021A" unicode="&#x21a;" horiz-adv-x="639" 
d="M28 0zM273 685h-104q-26 0 -45 -9.5t-33 -31.5t-23 -58t-13 -88h-23q2 16 2.5 37t0.5 45q0 19 -1.5 54.5t-5.5 73.5q32 -1 70 -1.5l76.5 -1t76 -0.5h69.5h69.5t76 0.5l76 1t69.5 1.5q-4 -38 -5.5 -73.5t-1.5 -54.5q0 -24 0.5 -45t2.5 -37h-23q-4 52 -13 88t-23 58
t-33.5 31.5t-44.5 9.5h-104v-569q0 -30 4 -48.5t15 -28.5t30.5 -14t51.5 -5v-20q-26 2 -66 2.5t-81 0.5q-45 0 -84.5 -0.5t-63.5 -2.5v20q31 1 51 5t31 14t15 28.5t4 48.5v569zM263 -122q0 23 16.5 38t39.5 15q29 0 47 -20.5t18 -49.5q0 -36 -17 -60.5t-65 -41.5l-7 18
q23 7 42.5 23t19.5 40q-8 -7 -18.5 -11.5t-23.5 -4.5q-22 0 -37 14t-15 40z" />
    <glyph glyph-name="Ugrave" unicode="&#xd9;" horiz-adv-x="683" 
d="M28 0zM109 602q0 27 -3 43.5t-12 25.5t-25 12.5t-41 4.5v20q21 -2 55 -2.5t73 -0.5q35 0 69.5 0.5t57.5 2.5v-20q-26 -1 -41.5 -4.5t-24.5 -12.5t-12 -25.5t-3 -43.5v-331q0 -51 4.5 -96.5t21 -79.5t48 -54t84.5 -20q57 0 94 19.5t58.5 54t30.5 82t9 103.5v322
q0 27 -3 43.5t-12 25.5t-25 12.5t-41 4.5v20q18 -2 42 -2.5t50 -0.5t51 0.5t42 2.5v-20q-26 -1 -41.5 -4.5t-24.5 -12.5t-12 -25.5t-3 -43.5v-311q0 -70 -9 -122t-32 -90q-25 -42 -73 -67.5t-110 -25.5q-48 0 -91.5 11.5t-76.5 42.5q-22 21 -36.5 43t-22.5 50.5t-11.5 66
t-3.5 88.5v314zM413 772q-39 19 -69 32t-54 22.5l-43 17t-35 17.5q-21 14 -25 29.5t4 28.5t24.5 16.5t36.5 -9.5q16 -10 31 -23.5l34 -31l43.5 -39t59.5 -47.5z" />
    <glyph glyph-name="Uacute" unicode="&#xda;" horiz-adv-x="683" 
d="M28 0zM109 602q0 27 -3 43.5t-12 25.5t-25 12.5t-41 4.5v20q21 -2 55 -2.5t73 -0.5q35 0 69.5 0.5t57.5 2.5v-20q-26 -1 -41.5 -4.5t-24.5 -12.5t-12 -25.5t-3 -43.5v-331q0 -51 4.5 -96.5t21 -79.5t48 -54t84.5 -20q57 0 94 19.5t58.5 54t30.5 82t9 103.5v322
q0 27 -3 43.5t-12 25.5t-25 12.5t-41 4.5v20q18 -2 42 -2.5t50 -0.5t51 0.5t42 2.5v-20q-26 -1 -41.5 -4.5t-24.5 -12.5t-12 -25.5t-3 -43.5v-311q0 -70 -9 -122t-32 -90q-25 -42 -73 -67.5t-110 -25.5q-48 0 -91.5 11.5t-76.5 42.5q-22 21 -36.5 43t-22.5 50.5t-11.5 66
t-3.5 88.5v314zM292 785q34 26 59 47.5l44 39l34 31t31 23.5q20 13 36.5 9.5t24.5 -16.5t4 -28.5t-25 -29.5q-16 -10 -35 -17.5l-43 -17t-54 -22.5t-69 -32z" />
    <glyph glyph-name="Ucircumflex" unicode="&#xdb;" horiz-adv-x="683" 
d="M28 0zM109 602q0 27 -3 43.5t-12 25.5t-25 12.5t-41 4.5v20q21 -2 55 -2.5t73 -0.5q35 0 69.5 0.5t57.5 2.5v-20q-26 -1 -41.5 -4.5t-24.5 -12.5t-12 -25.5t-3 -43.5v-331q0 -51 4.5 -96.5t21 -79.5t48 -54t84.5 -20q57 0 94 19.5t58.5 54t30.5 82t9 103.5v322
q0 27 -3 43.5t-12 25.5t-25 12.5t-41 4.5v20q18 -2 42 -2.5t50 -0.5t51 0.5t42 2.5v-20q-26 -1 -41.5 -4.5t-24.5 -12.5t-12 -25.5t-3 -43.5v-311q0 -70 -9 -122t-32 -90q-25 -42 -73 -67.5t-110 -25.5q-48 0 -91.5 11.5t-76.5 42.5q-22 21 -36.5 43t-22.5 50.5t-11.5 66
t-3.5 88.5v314zM333 840q-29 -19 -76 -38t-95 -32l-5 14q66 23 115 58.5t72 73.5h18q23 -38 72 -73.5t115 -58.5l-5 -14q-30 6 -60.5 14.5t-58 17.5t-51.5 19t-41 19z" />
    <glyph glyph-name="Udieresis" unicode="&#xdc;" horiz-adv-x="683" 
d="M28 0zM109 602q0 27 -3 43.5t-12 25.5t-25 12.5t-41 4.5v20q21 -2 55 -2.5t73 -0.5q35 0 69.5 0.5t57.5 2.5v-20q-26 -1 -41.5 -4.5t-24.5 -12.5t-12 -25.5t-3 -43.5v-331q0 -51 4.5 -96.5t21 -79.5t48 -54t84.5 -20q57 0 94 19.5t58.5 54t30.5 82t9 103.5v322
q0 27 -3 43.5t-12 25.5t-25 12.5t-41 4.5v20q18 -2 42 -2.5t50 -0.5t51 0.5t42 2.5v-20q-26 -1 -41.5 -4.5t-24.5 -12.5t-12 -25.5t-3 -43.5v-311q0 -70 -9 -122t-32 -90q-25 -42 -73 -67.5t-110 -25.5q-48 0 -91.5 11.5t-76.5 42.5q-22 21 -36.5 43t-22.5 50.5t-11.5 66
t-3.5 88.5v314zM200 830q0 23 17 40.5t41 17.5q23 0 40.5 -17.5t17.5 -40.5q0 -24 -17.5 -41t-40.5 -17q-24 0 -41 17t-17 41zM412 830q0 23 17 40.5t41 17.5q23 0 40.5 -17.5t17.5 -40.5q0 -24 -17.5 -41t-40.5 -17q-24 0 -41 17t-17 41z" />
    <glyph glyph-name="Utilde" unicode="&#x168;" horiz-adv-x="683" 
d="M28 0zM109 602q0 27 -3 43.5t-12 25.5t-25 12.5t-41 4.5v20q21 -2 55 -2.5t73 -0.5q35 0 69.5 0.5t57.5 2.5v-20q-26 -1 -41.5 -4.5t-24.5 -12.5t-12 -25.5t-3 -43.5v-331q0 -51 4.5 -96.5t21 -79.5t48 -54t84.5 -20q57 0 94 19.5t58.5 54t30.5 82t9 103.5v322
q0 27 -3 43.5t-12 25.5t-25 12.5t-41 4.5v20q18 -2 42 -2.5t50 -0.5t51 0.5t42 2.5v-20q-26 -1 -41.5 -4.5t-24.5 -12.5t-12 -25.5t-3 -43.5v-311q0 -70 -9 -122t-32 -90q-25 -42 -73 -67.5t-110 -25.5q-48 0 -91.5 11.5t-76.5 42.5q-22 21 -36.5 43t-22.5 50.5t-11.5 66
t-3.5 88.5v314zM466 825q20 0 36.5 12t25.5 44l15 -3q-5 -50 -37 -78t-74 -28q-28 0 -52 12t-47 26.5t-46 26.5t-49 12q-21 0 -37 -12t-25 -44l-15 3q5 50 37 78t74 28q28 0 52 -12t47 -26.5t46 -26.5t49 -12z" />
    <glyph glyph-name="Umacron" unicode="&#x16a;" horiz-adv-x="683" 
d="M28 0zM109 602q0 27 -3 43.5t-12 25.5t-25 12.5t-41 4.5v20q21 -2 55 -2.5t73 -0.5q35 0 69.5 0.5t57.5 2.5v-20q-26 -1 -41.5 -4.5t-24.5 -12.5t-12 -25.5t-3 -43.5v-331q0 -51 4.5 -96.5t21 -79.5t48 -54t84.5 -20q57 0 94 19.5t58.5 54t30.5 82t9 103.5v322
q0 27 -3 43.5t-12 25.5t-25 12.5t-41 4.5v20q18 -2 42 -2.5t50 -0.5t51 0.5t42 2.5v-20q-26 -1 -41.5 -4.5t-24.5 -12.5t-12 -25.5t-3 -43.5v-311q0 -70 -9 -122t-32 -90q-25 -42 -73 -67.5t-110 -25.5q-48 0 -91.5 11.5t-76.5 42.5q-22 21 -36.5 43t-22.5 50.5t-11.5 66
t-3.5 88.5v314zM529 844v-25h-352v25h352z" />
    <glyph glyph-name="Ubreve" unicode="&#x16c;" horiz-adv-x="683" 
d="M28 0zM109 602q0 27 -3 43.5t-12 25.5t-25 12.5t-41 4.5v20q21 -2 55 -2.5t73 -0.5q35 0 69.5 0.5t57.5 2.5v-20q-26 -1 -41.5 -4.5t-24.5 -12.5t-12 -25.5t-3 -43.5v-331q0 -51 4.5 -96.5t21 -79.5t48 -54t84.5 -20q57 0 94 19.5t58.5 54t30.5 82t9 103.5v322
q0 27 -3 43.5t-12 25.5t-25 12.5t-41 4.5v20q18 -2 42 -2.5t50 -0.5t51 0.5t42 2.5v-20q-26 -1 -41.5 -4.5t-24.5 -12.5t-12 -25.5t-3 -43.5v-311q0 -70 -9 -122t-32 -90q-25 -42 -73 -67.5t-110 -25.5q-48 0 -91.5 11.5t-76.5 42.5q-22 21 -36.5 43t-22.5 50.5t-11.5 66
t-3.5 88.5v314zM353 844q72 0 118 21t69 44l12 -11q-12 -20 -30.5 -40.5t-43 -37t-56 -27.5t-69.5 -11t-69.5 11t-56.5 27.5t-43 37t-30 40.5l13 10q23 -23 68.5 -43.5t117.5 -20.5z" />
    <glyph glyph-name="Uring" unicode="&#x16e;" horiz-adv-x="683" 
d="M362 925q39 0 68 -24.5t29 -66.5q0 -43 -29 -67.5t-68 -24.5q-19 0 -36.5 6.5t-30.5 18.5t-21 29t-8 38t8 38t21 28.5t30.5 18t36.5 6.5zM362 763q25 0 47 17.5t22 52.5t-22 53t-47 18q-24 0 -46 -18t-22 -53t22 -52.5t46 -17.5zM109 602q0 27 -3 43.5t-12 25.5t-25 12.5
t-41 4.5v20q21 -2 55 -2.5t73 -0.5q35 0 69.5 0.5t57.5 2.5v-20q-26 -1 -41.5 -4.5t-24.5 -12.5t-12 -25.5t-3 -43.5v-331q0 -51 4.5 -96.5t21 -79.5t48 -54t84.5 -20q57 0 94 19.5t58.5 54t30.5 82t9 103.5v322q0 27 -3 43.5t-12 25.5t-25 12.5t-41 4.5v20q18 -2 42 -2.5
t50 -0.5t51 0.5t42 2.5v-20q-26 -1 -41.5 -4.5t-24.5 -12.5t-12 -25.5t-3 -43.5v-311q0 -70 -9 -122t-32 -90q-25 -42 -73 -67.5t-110 -25.5q-48 0 -91.5 11.5t-76.5 42.5q-22 21 -36.5 43t-22.5 50.5t-11.5 66t-3.5 88.5v314z" />
    <glyph glyph-name="Uhungarumlaut" unicode="&#x170;" horiz-adv-x="683" 
d="M28 0zM109 602q0 27 -3 43.5t-12 25.5t-25 12.5t-41 4.5v20q21 -2 55 -2.5t73 -0.5q35 0 69.5 0.5t57.5 2.5v-20q-26 -1 -41.5 -4.5t-24.5 -12.5t-12 -25.5t-3 -43.5v-331q0 -51 4.5 -96.5t21 -79.5t48 -54t84.5 -20q57 0 94 19.5t58.5 54t30.5 82t9 103.5v322
q0 27 -3 43.5t-12 25.5t-25 12.5t-41 4.5v20q18 -2 42 -2.5t50 -0.5t51 0.5t42 2.5v-20q-26 -1 -41.5 -4.5t-24.5 -12.5t-12 -25.5t-3 -43.5v-311q0 -70 -9 -122t-32 -90q-25 -42 -73 -67.5t-110 -25.5q-48 0 -91.5 11.5t-76.5 42.5q-22 21 -36.5 43t-22.5 50.5t-11.5 66
t-3.5 88.5v314zM195 784q36 36 62 74.5t55 63.5q18 16 34.5 14.5t26.5 -12.5q11 -12 9 -28t-21 -33q-15 -12 -33.5 -22l-39 -20.5l-42 -22t-42.5 -26.5zM382 784q36 36 62 74.5t55 63.5q18 16 34.5 14.5t26.5 -12.5q11 -12 9 -28t-21 -33q-15 -12 -33.5 -22l-39 -20.5
l-42 -22t-42.5 -26.5z" />
    <glyph glyph-name="Uogonek" unicode="&#x172;" horiz-adv-x="688" 
d="M111 602q0 27 -3 43.5t-12 25.5t-25 12.5t-41 4.5v20q21 -2 55 -2.5t73 -0.5q35 0 69.5 0.5t57.5 2.5v-20q-26 -1 -41.5 -4.5t-24.5 -12.5t-12 -25.5t-3 -43.5v-331q0 -51 4.5 -96.5t21 -79.5t48 -54t84.5 -20q57 0 94 19.5t58.5 54t30.5 82t9 103.5v322q0 27 -3 43.5
t-12 25.5t-25 12.5t-41 4.5v20q18 -2 42 -2.5t50 -0.5t51 0.5t42 2.5v-20q-26 -1 -41.5 -4.5t-24.5 -12.5t-12 -25.5t-3 -43.5v-311q0 -70 -9 -122t-32 -90q-18 -31 -49 -52.5t-70 -32.5q-44 -17 -60 -42.5t-16 -47.5q0 -20 11.5 -32t31.5 -12q19 0 35 9.5t26 23.5l15 -13
q-23 -35 -51.5 -51.5t-61.5 -16.5q-36 0 -57.5 18t-21.5 47q0 32 24.5 60t69.5 49h-9q-48 0 -91.5 11.5t-76.5 42.5q-22 21 -36.5 43t-22.5 50.5t-11.5 66t-3.5 88.5v314z" />
    <glyph glyph-name="Wcircumflex" unicode="&#x174;" horiz-adv-x="900" 
d="M0 0zM60 624q-14 39 -33.5 51t-35.5 13v20q20 -2 49 -2.5t58 -0.5q33 0 61.5 0.5t46.5 2.5v-20q-23 -2 -35.5 -9t-12.5 -27q0 -19 10 -48l153 -466l136 342l-48 144q-13 39 -29 51t-30 13v20q18 -2 44.5 -2.5t52.5 -0.5q39 0 73 0.5t55 2.5v-20q-36 -2 -52 -8.5
t-16 -27.5q0 -18 10 -48l144 -445l142 445q9 30 9 47q0 22 -16 28.5t-52 8.5v20q15 -2 39.5 -2.5t51.5 -0.5q17 0 35.5 0.5t31.5 2.5v-20q-8 0 -17.5 -3t-19 -9.5t-18 -19t-14.5 -32.5l-196 -629h-16l-152 451l-181 -451h-16zM462 840q-29 -19 -76 -38t-95 -32l-5 14
q66 23 115 58.5t72 73.5h18q23 -38 72 -73.5t115 -58.5l-5 -14q-30 6 -60.5 14.5t-58 17.5t-51.5 19t-41 19z" />
    <glyph glyph-name="Wgrave" unicode="&#x1e80;" horiz-adv-x="900" 
d="M0 0zM60 624q-14 39 -33.5 51t-35.5 13v20q20 -2 49 -2.5t58 -0.5q33 0 61.5 0.5t46.5 2.5v-20q-23 -2 -35.5 -9t-12.5 -27q0 -19 10 -48l153 -466l136 342l-48 144q-13 39 -29 51t-30 13v20q18 -2 44.5 -2.5t52.5 -0.5q39 0 73 0.5t55 2.5v-20q-36 -2 -52 -8.5
t-16 -27.5q0 -18 10 -48l144 -445l142 445q9 30 9 47q0 22 -16 28.5t-52 8.5v20q15 -2 39.5 -2.5t51.5 -0.5q17 0 35.5 0.5t31.5 2.5v-20q-8 0 -17.5 -3t-19 -9.5t-18 -19t-14.5 -32.5l-196 -629h-16l-152 451l-181 -451h-16zM552 772q-39 19 -69 32t-54 22.5l-43 17
t-35 17.5q-21 14 -25 29.5t4 28.5t24.5 16.5t36.5 -9.5q16 -10 31 -23.5l34 -31l43.5 -39t59.5 -47.5z" />
    <glyph glyph-name="Wacute" unicode="&#x1e82;" horiz-adv-x="900" 
d="M0 0zM60 624q-14 39 -33.5 51t-35.5 13v20q20 -2 49 -2.5t58 -0.5q33 0 61.5 0.5t46.5 2.5v-20q-23 -2 -35.5 -9t-12.5 -27q0 -19 10 -48l153 -466l136 342l-48 144q-13 39 -29 51t-30 13v20q18 -2 44.5 -2.5t52.5 -0.5q39 0 73 0.5t55 2.5v-20q-36 -2 -52 -8.5
t-16 -27.5q0 -18 10 -48l144 -445l142 445q9 30 9 47q0 22 -16 28.5t-52 8.5v20q15 -2 39.5 -2.5t51.5 -0.5q17 0 35.5 0.5t31.5 2.5v-20q-8 0 -17.5 -3t-19 -9.5t-18 -19t-14.5 -32.5l-196 -629h-16l-152 451l-181 -451h-16zM391 785q34 26 59 47.5l44 39l34 31t31 23.5
q20 13 36.5 9.5t24.5 -16.5t4 -28.5t-25 -29.5q-16 -10 -35 -17.5l-43 -17t-54 -22.5t-69 -32z" />
    <glyph glyph-name="Wdieresis" unicode="&#x1e84;" horiz-adv-x="900" 
d="M0 0zM60 624q-14 39 -33.5 51t-35.5 13v20q20 -2 49 -2.5t58 -0.5q33 0 61.5 0.5t46.5 2.5v-20q-23 -2 -35.5 -9t-12.5 -27q0 -19 10 -48l153 -466l136 342l-48 144q-13 39 -29 51t-30 13v20q18 -2 44.5 -2.5t52.5 -0.5q39 0 73 0.5t55 2.5v-20q-36 -2 -52 -8.5
t-16 -27.5q0 -18 10 -48l144 -445l142 445q9 30 9 47q0 22 -16 28.5t-52 8.5v20q15 -2 39.5 -2.5t51.5 -0.5q17 0 35.5 0.5t31.5 2.5v-20q-8 0 -17.5 -3t-19 -9.5t-18 -19t-14.5 -32.5l-196 -629h-16l-152 451l-181 -451h-16zM298 830q0 23 17 40.5t41 17.5q23 0 40.5 -17.5
t17.5 -40.5q0 -24 -17.5 -41t-40.5 -17q-24 0 -41 17t-17 41zM510 830q0 23 17 40.5t41 17.5q23 0 40.5 -17.5t17.5 -40.5q0 -24 -17.5 -41t-40.5 -17q-24 0 -41 17t-17 41z" />
    <glyph glyph-name="Yacute" unicode="&#xdd;" horiz-adv-x="587" 
d="M0 0zM176 20q25 1 41 4.5t25 12.5t12 25.5t3 43.5v150l-203 376q-20 37 -33.5 46.5t-24.5 9.5v21q39 -6 88 -6q33 0 70.5 2t69.5 4v-21q-19 0 -36 -1t-28 -4.5t-15 -11.5t3 -21l184 -352l176 351q7 14 4 22t-13.5 11.5t-26 4.5t-33.5 1v21q21 -2 44 -3t41 -1q37 0 57 4
v-21q-11 0 -24 -9t-33 -47l-174 -344v-182q0 -27 3 -43.5t12 -25.5t24.5 -12.5t41.5 -4.5v-20q-23 2 -57.5 2.5t-69.5 0.5q-39 0 -73 -0.5t-55 -2.5v20v0zM256 785q34 26 59 47.5l44 39l34 31t31 23.5q20 13 36.5 9.5t24.5 -16.5t4 -28.5t-25 -29.5q-16 -10 -35 -17.5
l-43 -17t-54 -22.5t-69 -32z" />
    <glyph glyph-name="Ygrave" unicode="&#x1ef2;" horiz-adv-x="587" 
d="M0 0zM176 20q25 1 41 4.5t25 12.5t12 25.5t3 43.5v150l-203 376q-20 37 -33.5 46.5t-24.5 9.5v21q39 -6 88 -6q33 0 70.5 2t69.5 4v-21q-19 0 -36 -1t-28 -4.5t-15 -11.5t3 -21l184 -352l176 351q7 14 4 22t-13.5 11.5t-26 4.5t-33.5 1v21q21 -2 44 -3t41 -1q37 0 57 4
v-21q-11 0 -24 -9t-33 -47l-174 -344v-182q0 -27 3 -43.5t12 -25.5t24.5 -12.5t41.5 -4.5v-20q-23 2 -57.5 2.5t-69.5 0.5q-39 0 -73 -0.5t-55 -2.5v20v0zM377 772q-39 19 -69 32t-54 22.5l-43 17t-35 17.5q-21 14 -25 29.5t4 28.5t24.5 16.5t36.5 -9.5q16 -10 31 -23.5
l34 -31l43.5 -39t59.5 -47.5z" />
    <glyph glyph-name="Ycircumflex" unicode="&#x176;" horiz-adv-x="587" 
d="M0 0zM176 20q25 1 41 4.5t25 12.5t12 25.5t3 43.5v150l-203 376q-20 37 -33.5 46.5t-24.5 9.5v21q39 -6 88 -6q33 0 70.5 2t69.5 4v-21q-19 0 -36 -1t-28 -4.5t-15 -11.5t3 -21l184 -352l176 351q7 14 4 22t-13.5 11.5t-26 4.5t-33.5 1v21q21 -2 44 -3t41 -1q37 0 57 4
v-21q-11 0 -24 -9t-33 -47l-174 -344v-182q0 -27 3 -43.5t12 -25.5t24.5 -12.5t41.5 -4.5v-20q-23 2 -57.5 2.5t-69.5 0.5q-39 0 -73 -0.5t-55 -2.5v20v0zM284 840q-29 -19 -76 -38t-95 -32l-5 14q66 23 115 58.5t72 73.5h18q23 -38 72 -73.5t115 -58.5l-5 -14
q-30 6 -60.5 14.5t-58 17.5t-51.5 19t-41 19z" />
    <glyph glyph-name="Ydieresis" unicode="&#x178;" horiz-adv-x="587" 
d="M0 0zM176 20q25 1 41 4.5t25 12.5t12 25.5t3 43.5v150l-203 376q-20 37 -33.5 46.5t-24.5 9.5v21q39 -6 88 -6q33 0 70.5 2t69.5 4v-21q-19 0 -36 -1t-28 -4.5t-15 -11.5t3 -21l184 -352l176 351q7 14 4 22t-13.5 11.5t-26 4.5t-33.5 1v21q21 -2 44 -3t41 -1q37 0 57 4
v-21q-11 0 -24 -9t-33 -47l-174 -344v-182q0 -27 3 -43.5t12 -25.5t24.5 -12.5t41.5 -4.5v-20q-23 2 -57.5 2.5t-69.5 0.5q-39 0 -73 -0.5t-55 -2.5v20v0zM141 830q0 23 17 40.5t41 17.5q23 0 40.5 -17.5t17.5 -40.5q0 -24 -17.5 -41t-40.5 -17q-24 0 -41 17t-17 41z
M353 830q0 23 17 40.5t41 17.5q23 0 40.5 -17.5t17.5 -40.5q0 -24 -17.5 -41t-40.5 -17q-24 0 -41 17t-17 41z" />
    <glyph glyph-name="Zacute" unicode="&#x179;" horiz-adv-x="591" 
d="M46 0zM203 685q-26 0 -45 -9.5t-33 -31.5t-23 -58t-13 -88h-23q2 16 2.5 37t0.5 45q0 19 -1.5 54.5t-5.5 73.5q28 -1 60 -1.5l65 -1t65 -0.5h59q57 0 122.5 0.5t120.5 2.5v-20l-399 -665h246q25 0 44.5 9.5t33.5 31.5t23 58t13 88h23q-3 -32 -3 -82q0 -19 1.5 -54.5
t5.5 -73.5q-28 1 -60 1.5l-65 1t-65 0.5h-59q-60 0 -125 -0.5t-122 -2.5v20l402 665h-245zM248 785q34 26 59 47.5l44 39l34 31t31 23.5q20 13 36.5 9.5t24.5 -16.5t4 -28.5t-25 -29.5q-16 -10 -35 -17.5l-43 -17t-54 -22.5t-69 -32z" />
    <glyph glyph-name="Zkreska" horiz-adv-x="591" 
d="M46 0zM203 685q-26 0 -45 -9.5t-33 -31.5t-23 -58t-13 -88h-23q2 16 2.5 37t0.5 45q0 19 -1.5 54.5t-5.5 73.5q28 -1 60 -1.5l65 -1t65 -0.5h59q57 0 122.5 0.5t120.5 2.5v-20l-399 -665h246q25 0 44.5 9.5t33.5 31.5t23 58t13 88h23q-3 -32 -3 -82q0 -19 1.5 -54.5
t5.5 -73.5q-28 1 -60 1.5l-65 1t-65 0.5h-59q-60 0 -125 -0.5t-122 -2.5v20l402 665h-245zM292 765q7 26 10.5 47.5t6 39.5t5 33.5t7.5 28.5q8 18 22.5 21.5t29.5 -1.5q13 -6 20 -20t-1 -31q-6 -13 -15 -25.5t-20.5 -27l-24.5 -31.5t-27 -40z" />
    <glyph glyph-name="Zdotaccent" unicode="&#x17b;" horiz-adv-x="591" 
d="M241 836q0 26 19 45t45 19t45 -19t19 -45t-19 -45t-45 -19t-45 19t-19 45zM203 685q-26 0 -45 -9.5t-33 -31.5t-23 -58t-13 -88h-23q2 16 2.5 37t0.5 45q0 19 -1.5 54.5t-5.5 73.5q28 -1 60 -1.5l65 -1t65 -0.5h59q57 0 122.5 0.5t120.5 2.5v-20l-399 -665h246
q25 0 44.5 9.5t33.5 31.5t23 58t13 88h23q-3 -32 -3 -82q0 -19 1.5 -54.5t5.5 -73.5q-28 1 -60 1.5l-65 1t-65 0.5h-59q-60 0 -125 -0.5t-122 -2.5v20l402 665h-245z" />
    <glyph glyph-name="Zcaron" unicode="&#x17d;" horiz-adv-x="591" 
d="M46 0zM203 685q-26 0 -45 -9.5t-33 -31.5t-23 -58t-13 -88h-23q2 16 2.5 37t0.5 45q0 19 -1.5 54.5t-5.5 73.5q28 -1 60 -1.5l65 -1t65 -0.5h59q57 0 122.5 0.5t120.5 2.5v-20l-399 -665h246q25 0 44.5 9.5t33.5 31.5t23 58t13 88h23q-3 -32 -3 -82q0 -19 1.5 -54.5
t5.5 -73.5q-28 1 -60 1.5l-65 1t-65 0.5h-59q-60 0 -125 -0.5t-122 -2.5v20l402 665h-245zM316 856q29 19 76 38t95 32l5 -14q-66 -23 -115 -58.5t-72 -73.5h-18q-23 38 -72 73.5t-115 58.5l5 14q30 -6 60 -14.5t58 -17.5t52 -19t41 -19z" />
    <glyph glyph-name="exclamdown.cap" horiz-adv-x="250" 
d="M116 515q0 -64 6 -134t12.5 -135.5l12.5 -121t6 -91.5q0 -17 -13 -31.5t-33 -14.5q-19 0 -32.5 14.5t-13.5 31.5q0 36 6 91.5l12.5 121t12.5 135.5t6 134h18zM61 658q0 26 19 45t45 19t45 -19t19 -45t-19 -45t-45 -19t-45 19t-19 45z" />
    <glyph glyph-name="questiondown.cap" horiz-adv-x="430" 
d="M251 6q24 0 52.5 7t45.5 29q-19 4 -30.5 17t-11.5 34q0 26 16 40t39 14t38 -15t15 -38q0 -21 -13 -39.5t-34 -32.5t-54.5 -25t-81.5 -11q-47 0 -85.5 12.5t-66.5 35.5t-43 56.5t-15 75.5t16.5 77.5t46 63t71 48t91.5 33.5v146h20v-155q-50 -18 -80.5 -40t-47.5 -46.5
t-22.5 -51.5t-5.5 -56q0 -95 39 -137t101 -42zM208 659q0 26 19 45t45 19t45 -19t19 -45t-19 -45t-45 -19t-45 19t-19 45z" />
    <glyph glyph-name="parenleft.cap" horiz-adv-x="278" 
d="M125 352q0 -66 7 -124t23.5 -110t43.5 -98.5t66 -88.5l-14 -13q-97 81 -153.5 188.5t-56.5 245.5t56.5 245t153.5 189l14 -13q-39 -42 -66 -88.5t-43.5 -98.5t-23.5 -110t-7 -124z" />
    <glyph glyph-name="parenright.cap" horiz-adv-x="278" 
d="M13 0zM153.008 352q0 -66 -7 -124q-6.99902 -58 -23.498 -110t-43.498 -98.5q-26.998 -46.5 -65.9951 -88.5l13.999 -13q96.9941 81 153.49 188.5q56.4971 107.5 56.4971 245.5t-56.4971 245q-56.4961 107 -153.49 189l-13.999 -13q38.9971 -42 65.9951 -88.5
q26.999 -46.5 43.498 -98.5t23.498 -110q7 -58 7 -124z" />
    <glyph glyph-name="bracketleft.cap" horiz-adv-x="289" 
d="M87 772h174v-19h-81v-798h81v-19h-174v836z" />
    <glyph glyph-name="bracketright.cap" horiz-adv-x="289" 
d="M28 0zM202.005 772h-173.989v-19h80.9951v-798h-80.9951v-19h173.989v836z" />
    <glyph glyph-name="braceleft.cap" horiz-adv-x="295" 
d="M102 123q0 64 -3.5 106t-12 67.5t-23 36.5t-37.5 13h-5v18h5q23 1 37.5 12t23 36.5t12 67.5t3.5 107q0 54 9 91t29.5 60t53.5 33.5t81 10.5v-19q-24 -1 -39.5 -7t-24.5 -24.5t-12.5 -53t-3.5 -91.5q0 -62 -11 -103.5t-30.5 -67.5t-46 -40t-58.5 -21q32 -8 58.5 -21.5
t46 -40t30.5 -67.5t11 -103q0 -60 3.5 -95.5t12.5 -53.5t24.5 -23.5t39.5 -5.5v-19q-48 0 -81 9.5t-53.5 32t-29.5 60.5t-9 95z" />
    <glyph glyph-name="braceright.cap" horiz-adv-x="295" 
d="M20 0zM193.006 123q0 64 3.5 106t11.999 67.5q8.5 25.5 22.999 36.5t37.498 13h4.99902v18h-4.99902q-22.999 1 -37.498 12t-22.999 36.5q-8.49902 25.5 -11.999 67.5t-3.5 107q0 54 -8.99902 91t-29.498 60t-53.4971 33.5t-80.9951 10.5v-19q23.999 -1 39.498 -7
t24.498 -24.5q9 -18.5 12.499 -53q3.5 -34.5 3.5 -91.5q0 -62 11 -103.5q10.999 -41.5 30.498 -67.5q19.498 -26 45.9971 -40q26.498 -14 58.4961 -21q-31.998 -8 -58.4961 -21.5q-26.499 -13.5 -45.9971 -40q-19.499 -26.5 -30.498 -67.5q-11 -41 -11 -103
q0 -60 -3.5 -95.5q-3.49902 -35.5 -12.499 -53.5q-8.99902 -18 -24.498 -23.5t-39.498 -5.5v-19q47.9971 0 80.9951 9.5t53.4971 32t29.498 60.5t8.99902 95z" />
    <glyph glyph-name="guilsinglleft.cap" horiz-adv-x="297" 
d="M78 355q24 -20 50 -54.5t49.5 -75t43 -81.5t30.5 -72h-18q-50 83 -105.5 156t-124.5 127v1q69 52 124.5 115.5t105.5 143.5h18q-11 -30 -30.5 -67.5t-43 -74t-49.5 -68t-50 -50.5z" />
    <glyph glyph-name="guilsinglright.cap" horiz-adv-x="297" 
d="M219 355q-24 19 -50 50.5t-49.5 68t-43 74t-30.5 67.5h18q50 -80 105.5 -143.5t124.5 -115.5v-1q-69 -54 -124.5 -127t-105.5 -156h-18q11 31 30.5 72t43 81.5t49.5 75t50 54.5z" />
    <glyph glyph-name="guillemotleft.cap" horiz-adv-x="472" 
d="M78 355q24 -20 50 -54.5t49.5 -75t43 -81.5t30.5 -72h-18q-50 83 -105.5 156t-124.5 127v1q69 52 124.5 115.5t105.5 143.5h18q-11 -30 -30.5 -67.5t-43 -74t-49.5 -68t-50 -50.5zM253 355q24 -20 50 -54.5t49.5 -75t43 -81.5t30.5 -72h-18q-50 83 -105.5 156t-124.5 127
v1q69 52 124.5 115.5t105.5 143.5h18q-11 -30 -30.5 -67.5t-43 -74t-49.5 -68t-50 -50.5z" />
    <glyph glyph-name="guillemotright.cap" horiz-adv-x="472" 
d="M394 355q-24 19 -50 50.5t-49.5 68t-43 74t-30.5 67.5h18q50 -80 105.5 -143.5t124.5 -115.5v-1q-69 -54 -124.5 -127t-105.5 -156h-18q11 31 30.5 72t43 81.5t49.5 75t50 54.5zM219 355q-24 19 -50 50.5t-49.5 68t-43 74t-30.5 67.5h18q50 -80 105.5 -143.5
t124.5 -115.5v-1q-69 -54 -124.5 -127t-105.5 -156h-18q11 31 30.5 72t43 81.5t49.5 75t50 54.5z" />
    <glyph glyph-name="periodcentered.cap" horiz-adv-x="246" 
d="M59 290zM59 354q0 26 19 45t45 19t45 -19t19 -45t-19 -45t-45 -19t-45 19t-19 45z" />
    <glyph glyph-name="bullet.cap" horiz-adv-x="377" 
d="M46 354q0 30 11 56t30.5 45.5t45 30.5t55.5 11t56 -11t45.5 -30.5t30.5 -45.5t11 -56t-11 -55.5t-30.5 -45t-45.5 -30.5t-56 -11t-55.5 11t-45 30.5t-30.5 45t-11 55.5z" />
    <glyph glyph-name="hyphen.cap" horiz-adv-x="493" 
d="M66 383h361v-58h-361v58z" />
    <glyph glyph-name="endash.cap" horiz-adv-x="569" 
d="M58 374h453v-40h-453v40z" />
    <glyph glyph-name="emdash.cap" horiz-adv-x="860" 
d="M58 374h744v-40h-744v40z" />
    <glyph glyph-name="asciicircum.cap" horiz-adv-x="442" 
d="M201 637q-29 -33 -74.5 -65.5t-93.5 -54.5l-8 14q66 32 115 83.5t72 108.5h18q23 -57 72 -108.5t115 -83.5l-8 -14q-60 22 -116.5 54.5t-91.5 65.5z" />
    <glyph glyph-name="caroncomb.cap" 
d="M0 780zM21 856q29 19 76 38t95 32l5 -14q-66 -23 -115 -58.5t-72 -73.5h-18q-23 38 -72 73.5t-115 58.5l5 14q30 -6 60 -14.5t58 -17.5t52 -19t41 -19z" />
    <glyph glyph-name="dieresiscomb.cap" 
d="M0 772zM-163 830q0 23 17 40.5t41 17.5q23 0 40.5 -17.5t17.5 -40.5q0 -24 -17.5 -41t-40.5 -17q-24 0 -41 17t-17 41zM49 830q0 23 17 40.5t41 17.5q23 0 40.5 -17.5t17.5 -40.5q0 -24 -17.5 -41t-40.5 -17q-24 0 -41 17t-17 41z" />
    <glyph glyph-name="tildecomb.cap" 
d="M0 772zM115 825q20 0 36.5 12t25.5 44l15 -3q-5 -50 -37 -78t-74 -28q-28 0 -52 12t-47 26.5t-46 26.5t-49 12q-21 0 -37 -12t-25 -44l-15 3q5 50 37 78t74 28q28 0 52 -12t47 -26.5t46 -26.5t49 -12z" />
    <glyph glyph-name="asciitilde.cap" horiz-adv-x="542" 
d="M381 291q-37 0 -68 12t-61 26.5t-60.5 26.5t-64.5 12q-30 0 -53 -13t-37 -45l-17 5q3 25 15.5 44.5t31.5 33t43 21t51 7.5q37 0 68 -12t61 -26.5t60 -26.5t65 -12q30 0 53 13t37 45l17 -5q-3 -25 -15.5 -44.5t-31.5 -33t-43 -21t-51 -7.5z" />
    <glyph glyph-name="brevecomb.cap" 
d="M0 782zM1 844q72 0 118 21t69 44l12 -11q-12 -20 -30.5 -40.5t-43 -37t-56 -27.5t-69.5 -11t-69.5 11t-56.5 27.5t-43 37t-30 40.5l13 10q23 -23 68.5 -43.5t117.5 -20.5z" />
    <glyph glyph-name="ringcomb.cap" 
d="M0 742zM1 925q39 0 68 -24.5t29 -66.5q0 -43 -29 -67.5t-68 -24.5q-19 0 -36.5 6.5t-30.5 18.5t-21 29t-8 38t8 38t21 28.5t30.5 18t36.5 6.5zM1 763q25 0 47 17.5t22 52.5t-22 53t-47 18q-24 0 -46 -18t-22 -53t22 -52.5t46 -17.5z" />
    <glyph glyph-name="dotaccentcomb.cap" 
d="M0 772zM-63 836q0 26 19 45t45 19t45 -19t19 -45t-19 -45t-45 -19t-45 19t-19 45z" />
    <glyph glyph-name="macroncomb.cap" 
d="M0 819zM177 844v-25h-352v25h352z" />
    <glyph glyph-name="gravecomb.cap" 
d="M0 772zM63 772q-39 19 -69 32t-54 22.5l-43 17t-35 17.5q-21 14 -25 29.5t4 28.5t24.5 16.5t36.5 -9.5q16 -10 31 -23.5l34 -31l43.5 -39t59.5 -47.5z" />
    <glyph glyph-name="acutecomb.cap" 
d="M0 772zM-68 785q34 26 59 47.5l44 39l34 31t31 23.5q20 13 36.5 9.5t24.5 -16.5t4 -28.5t-25 -29.5q-16 -10 -35 -17.5l-43 -17t-54 -22.5t-69 -32z" />
    <glyph glyph-name="hungarumlautcomb.cap" 
d="M0 772zM-106 784q36 36 62 74.5t55 63.5q18 16 34.5 14.5t26.5 -12.5q11 -12 9 -28t-21 -33q-15 -12 -33.5 -22l-39 -20.5l-42 -22t-42.5 -26.5zM81 784q36 36 62 74.5t55 63.5q18 16 34.5 14.5t26.5 -12.5q11 -12 9 -28t-21 -33q-15 -12 -33.5 -22l-39 -20.5l-42 -22
t-42.5 -26.5z" />
    <glyph glyph-name="circumflexcomb.cap" 
d="M0 770zM-19 840q-29 -19 -76 -38t-95 -32l-5 14q66 23 115 58.5t72 73.5h18q23 -38 72 -73.5t115 -58.5l-5 -14q-30 6 -60.5 14.5t-58 17.5t-51.5 19t-41 19z" />
    <glyph glyph-name="commaaccentcomb.cap" 
d="M0 -69zM-59 -122q0 23 16.5 38t39.5 15q29 0 47 -20.5t18 -49.5q0 -36 -17 -60.5t-65 -41.5l-7 18q23 7 42.5 23t19.5 40q-8 -7 -18.5 -11.5t-23.5 -4.5q-22 0 -37 14t-15 40z" />
    <glyph glyph-name="ogonekcomb.cap" 
d="M0 0zM-1 3q-30 -8 -49.5 -19.5t-31.5 -25t-17 -27.5t-5 -27q0 -20 11.5 -32t31.5 -12q19 0 35 9.5t26 23.5l15 -13q-23 -35 -51.5 -51.5t-61.5 -16.5q-36 0 -57.5 18t-21.5 47q0 39 36 71.5t102 54.5h38z" />
    <glyph glyph-name="cedillacomb.cap" 
d="M0 0zM-7 5l-26 -77q13 3 27.5 5t31.5 2q28 0 44.5 -12t16.5 -35q0 -21 -11 -35.5t-27.5 -23.5t-36.5 -13t-38 -4q-28 0 -48.5 3t-34.5 8l4 18q5 -1 15.5 -2t22.5 -1q15 0 30.5 2t29 7t22 13.5t8.5 22.5q0 28 -42 28q-8 0 -23 -1.5t-26 -5.5l34 101h27z" />
    <glyph glyph-name="dotlessi" unicode="&#x131;" horiz-adv-x="297" 
d="M197 93q0 -42 17 -57t59 -15v-21q-17 1 -51.5 2.5t-69.5 1.5t-69.5 -1.5t-51.5 -2.5v21q42 0 59 15t17 57v313q0 45 -16 66.5t-60 21.5v21q31 -3 62 -3q29 0 55.5 3t48.5 11v-433z" />
    <glyph glyph-name="dotlessj" unicode="&#x237;" horiz-adv-x="270" 
d="M200 115q0 -35 -2 -69t-7.5 -65.5t-16 -59t-27.5 -48.5q-24 -31 -56.5 -46t-64.5 -15q-35 0 -56 15q-22 17 -22 46q0 23 14.5 37.5t37.5 14.5t37.5 -11.5t14.5 -37.5q0 -34 -38 -48q5 -1 9 -1h8q34 0 56 23q11 13 17 33.5t6 51.5v471q0 45 -16 66.5t-60 21.5v21
q31 -3 62 -3q29 0 55.5 3t48.5 11v-411z" />
    <glyph glyph-name="at.cap" horiz-adv-x="860" 
d="M33 0zM622 103q8 0 25 3.5t38.5 14t44 29.5t41.5 49.5t31 74.5t12 104q0 64 -19.5 121.5t-59 101.5t-100.5 70t-145 26q-75 0 -142.5 -32.5t-118.5 -90.5t-80.5 -137t-29.5 -173q0 -95 25.5 -161t68.5 -107t98 -60t115 -19q47 0 96.5 10t91.5 38l7 -13q-38 -26 -90 -42.5
t-128 -16.5q-75 0 -142 22t-118 67t-80.5 112.5t-29.5 158.5q0 103 34.5 189t94 148t138 97t165.5 35q92 0 161 -26.5t115 -73t69 -109t23 -135.5q0 -66 -14.5 -113.5t-37 -80.5t-50.5 -53.5t-55 -31.5t-50.5 -15t-36.5 -4q-20 0 -35.5 4.5t-26.5 18.5q-12 15 -12 40.5
t4 51.5q-26 -64 -59.5 -89.5t-80.5 -25.5q-27 0 -50 9.5t-40 29.5t-26.5 50.5t-9.5 73.5t14 93.5t42 94t70.5 72.5t99.5 29q33 0 57 -14.5t32 -48.5l9 49q23 0 46.5 3t43.5 11l-68 -367q-7 -34 -1.5 -48t24.5 -14zM413 110q34 0 67.5 45.5t56.5 145.5l24 129q0 22 -6.5 37
t-16.5 24.5t-22.5 13.5t-23.5 4q-37 0 -65 -26.5t-47 -66.5t-28.5 -88t-9.5 -90q0 -66 18.5 -97t52.5 -31z" />
    <glyph glyph-name="a" unicode="a" horiz-adv-x="620" 
d="M393 218h-243l-51 -114q-11 -25 -13 -40.5t5.5 -25t23.5 -13.5t42 -5v-20q-15 2 -39.5 2.5t-51.5 0.5q-17 0 -35.5 -0.5t-31.5 -2.5v20q16 1 34 13.5t35 50.5l234 529h16l234 -529q17 -38 35 -50.5t34 -13.5v-20q-20 2 -49 2.5t-58 0.5q-39 0 -73 -0.5t-55 -2.5v20
q51 2 65.5 18t-7.5 66zM159 238h225l-112 254z" />
    <glyph glyph-name="b" unicode="b" horiz-adv-x="601" 
d="M303 607q100 0 150.5 -38.5t50.5 -98.5q0 -44 -31.5 -83.5t-110.5 -60.5v-2q56 -7 93.5 -23t60 -38t31.5 -47.5t9 -51.5q0 -36 -15.5 -66t-45.5 -52t-72.5 -34t-96.5 -12q-21 0 -62.5 1.5t-99.5 1.5q-35 0 -69 -0.5t-55 -2.5v20q25 1 41 4.5t25 12.5t12 25.5t3 43.5v396
q0 28 -3 44.5t-12 25.5t-25 12t-41 4v20q21 -2 55 -2.5t67 -0.5q45 0 84.5 1t56.5 1zM278 588q-20 0 -32.5 -3.5t-19.5 -13.5t-9.5 -26.5t-2.5 -42.5v-176h57q41 0 67.5 10t42 28t21.5 42.5t6 52.5q0 63 -30 96t-100 33zM214 309v-203q0 -26 2.5 -42.5t9.5 -25.5t20 -12
t33 -3q94 0 135.5 37t41.5 108q0 67 -39 104t-129 37h-74z" />
    <glyph glyph-name="c" unicode="c" horiz-adv-x="641" 
d="M350 -14q-67 0 -121.5 21t-93.5 60.5t-60.5 97.5t-21.5 133q0 73 22 132.5t61.5 102t94.5 66t120 23.5q54 0 89 -19.5t65 -45.5q38 -32 45 51h23q-2 -34 -3 -82t-1 -128h-23q-5 27 -10 46t-11 33t-13 25.5t-16 23.5q-29 38 -67.5 57t-81.5 19q-44 0 -80 -20.5
t-61.5 -59.5t-39 -94.5t-13.5 -125.5q0 -72 15.5 -127.5t43 -93t64 -56.5t78.5 -19q43 0 83.5 19t69.5 57q10 13 17 26.5t12 29t9 35.5t8 47h23q0 -83 1 -134t3 -86h-23q-4 43 -14.5 55.5t-30.5 -4.5q-16 -13 -32.5 -25t-36 -21t-42.5 -14t-51 -5z" />
    <glyph glyph-name="d" unicode="d" horiz-adv-x="681" 
d="M626 312q0 -71 -21.5 -128.5t-62.5 -98t-101 -63t-137 -22.5q-11 0 -28.5 0.5t-37 1l-39 1t-35.5 0.5q-35 0 -69 -0.5t-55 -2.5v20q25 1 41 4.5t25 12.5t12 25.5t3 43.5v396q0 28 -3 44.5t-12 25.5t-25 12t-41 4v20q21 -2 55 -3t67 0q35 1 78.5 2t72.5 1
q158 0 235.5 -75.5t77.5 -220.5zM526 308q0 71 -12 124t-40 88t-73.5 52.5t-112.5 17.5q-23 0 -37.5 -3.5t-22.5 -13.5t-11 -26.5t-3 -42.5v-400q0 -26 3 -43t11 -26.5t23 -13t38 -3.5q70 0 115.5 19t72.5 55.5t38 90.5t11 125z" />
    <glyph glyph-name="e" unicode="e" horiz-adv-x="591" 
d="M214 316h98q24 1 37 12t19 27t8 33t4 30h23q-2 -23 -2.5 -39.5t-0.5 -29.5v-23v-20v-20.5t1 -23t2 -29t3 -39.5h-23q-2 18 -4.5 36.5t-10 33t-21.5 23.5t-40 9h-93v-190q0 -27 3 -43.5t12 -25.5t24.5 -11.5t41.5 -2.5h103q37 0 57.5 8.5t32 28t16 51.5t8.5 79h23
q-2 -14 -2.5 -32.5t-0.5 -39.5q0 -17 1.5 -50t5.5 -68q-24 1 -52.5 1.5l-57.5 1t-57 0.5h-52h-55t-71 -0.5l-78 -1t-76 -1.5v20q25 1 41 4.5t25 12.5t12 25.5t3 43.5v396q0 27 -3 43.5t-12 25.5t-25 12.5t-41 4.5v20q36 -1 76 -1.5l78 -1t71 -0.5h55q44 0 99 0.5t100 2.5
q-4 -32 -5.5 -62t-1.5 -46q0 -18 0.5 -34.5t2.5 -27.5h-23q-4 41 -9 69t-16 45.5t-29.5 25t-49.5 7.5h-93q-26 0 -41.5 -2.5t-24.5 -11.5t-12 -25.5t-3 -43.5v-186z" />
    <glyph glyph-name="f" unicode="f" horiz-adv-x="549" 
d="M214 316h98q24 1 37 12t19 27t8 33t4 30h23q-2 -23 -2.5 -39.5t-0.5 -29.5v-23v-20v-20.5t1 -23t2 -29t3 -39.5h-23q-2 18 -4.5 36t-9.5 32t-20 23.5t-37 10.5h-98v-190q0 -27 4 -43.5t15 -25.5t30.5 -12.5t51.5 -4.5v-20q-26 2 -66 2.5t-81 0.5q-39 0 -73 -0.5t-55 -2.5
v20q25 1 41 4.5t25 12.5t12 25.5t3 43.5v396q0 27 -3 43.5t-12 25.5t-25 12.5t-41 4.5v20q36 -1 76 -1.5l78 -1t71 -0.5h55q44 0 99 0.5t100 2.5q-4 -32 -5.5 -62t-1.5 -46q0 -18 0.5 -34.5t2.5 -27.5h-23q-4 41 -9 69t-16 45.5t-29.5 25t-49.5 7.5h-93q-26 0 -41.5 -2.5
t-24.5 -11.5t-12 -25.5t-3 -43.5v-186z" />
    <glyph glyph-name="g" unicode="g" horiz-adv-x="679" 
d="M578 0h-20q-2 24 -15 24q-7 0 -21.5 -6.5t-22.5 -9.5q-20 -7 -54.5 -14.5t-76.5 -7.5q-152 0 -233 80t-81 226q0 76 22 137t61.5 104t94.5 66t120 23q31 0 55 -5.5t43 -14.5t35 -20.5t31 -24.5q20 -16 30 -5.5t15 56.5h23q-2 -32 -3 -78t-1 -122h-23q-7 33 -18 63.5
t-32 54.5q-29 34 -65.5 56t-91.5 22q-45 0 -81.5 -21t-62 -60t-39 -95t-13.5 -125q0 -156 57 -226.5t166 -70.5q23 0 42 2t35 6q18 5 24.5 13.5t6.5 24.5v86q0 30 -4 48.5t-15 28.5t-31 14t-51 5v20q27 -2 67 -2.5t74 -0.5q68 0 104 3v-20q-16 -1 -26 -4t-15.5 -12
t-7.5 -25.5t-2 -44.5v-148z" />
    <glyph glyph-name="h" unicode="h" horiz-adv-x="733" 
d="M121 502q0 27 -3 43.5t-12 25.5t-25 12.5t-41 4.5v20q21 -2 55 -2.5t73 -0.5q35 0 69.5 0.5t57.5 2.5v-20q-26 -1 -41.5 -4.5t-24.5 -12.5t-12 -25.5t-3 -43.5v-177h305v177q0 27 -3 43.5t-12 25.5t-25 12.5t-41 4.5v20q23 -2 57.5 -2.5t69.5 -0.5q39 0 73 0.5t55 2.5
v-20q-26 -1 -41.5 -4.5t-24.5 -12.5t-12 -25.5t-3 -43.5v-396q0 -27 3 -43.5t12 -25.5t24.5 -12.5t41.5 -4.5v-20q-21 2 -55 2.5t-73 0.5q-35 0 -69.5 -0.5t-57.5 -2.5v20q25 1 41 4.5t25 12.5t12 25.5t3 43.5v199h-305v-199q0 -27 3 -43.5t12 -25.5t24.5 -12.5t41.5 -4.5
v-20q-23 2 -57.5 2.5t-69.5 0.5q-39 0 -73 -0.5t-55 -2.5v20q25 1 41 4.5t25 12.5t12 25.5t3 43.5v396z" />
    <glyph glyph-name="i" unicode="i" horiz-adv-x="335" 
d="M214 106q0 -27 3 -43.5t12 -25.5t24.5 -12.5t41.5 -4.5v-20q-23 2 -57.5 2.5t-69.5 0.5q-39 0 -73 -0.5t-55 -2.5v20q25 1 41 4.5t25 12.5t12 25.5t3 43.5v396q0 27 -3 43.5t-12 25.5t-25 12.5t-41 4.5v20q21 -2 55 -2.5t73 -0.5q35 0 69.5 0.5t57.5 2.5v-20
q-26 -1 -41.5 -4.5t-24.5 -12.5t-12 -25.5t-3 -43.5v-396z" />
    <glyph glyph-name="j" unicode="j" horiz-adv-x="320" 
d="M3 -168q36 0 59 22.5t35 61.5q5 16 8 34t5 44.5t3 62.5t1 88v357q0 27 -3 43.5t-12 25.5t-25 12.5t-41 4.5v20q21 -2 55 -2.5t73 -0.5q35 0 69.5 0.5t57.5 2.5v-20q-26 -1 -41.5 -4.5t-24.5 -12.5t-12 -25.5t-3 -43.5v-266q0 -31 -0.5 -66.5t-2.5 -70t-5 -67t-9 -57.5
q-8 -35 -24 -64t-40 -51t-55.5 -34t-71.5 -12q-17 0 -35 3.5t-32 12.5q-12 8 -19.5 19.5t-7.5 28.5q0 20 14 34t34 14t34.5 -14t14.5 -34q0 -13 -7.5 -25t-18.5 -19q5 -1 12 -1.5t15 -0.5z" />
    <glyph glyph-name="k" unicode="k" horiz-adv-x="627" 
d="M511 552q20 20 -3 27.5t-74 9.5v19q27 -2 59.5 -2.5t58.5 -0.5q42 0 71 3v-19q-29 -2 -54 -16.5t-49 -38.5l-182 -174l226 -279q17 -22 36 -37t42 -24v-20q-24 2 -55.5 2.5t-56.5 0.5q-20 0 -51 -0.5t-76 -2.5v20q26 1 39.5 4t18 8.5t1.5 13.5t-12 19l-137 174
q-15 19 -26.5 32t-22 21.5t-22 13t-28.5 5.5v-205q0 -27 3 -43.5t12 -25.5t24.5 -12.5t41.5 -4.5v-20q-23 2 -57.5 2.5t-69.5 0.5q-39 0 -73 -0.5t-55 -2.5v20q25 1 41 4.5t25 12.5t12 25.5t3 43.5v396q0 27 -3 43.5t-12 25.5t-25 12.5t-41 4.5v20q21 -2 55 -2.5t73 -0.5
q35 0 69.5 0.5t57.5 2.5v-20q-26 -1 -41.5 -4.5t-24.5 -12.5t-12 -25.5t-3 -43.5v-171q32 1 62.5 14t71.5 51z" />
    <glyph glyph-name="l" unicode="l" horiz-adv-x="571" 
d="M214 106q0 -27 3 -43.5t12 -25.5t24.5 -11.5t41.5 -2.5h103q51 0 78.5 39t35.5 138h23q-3 -32 -3 -82q0 -17 1.5 -50t5.5 -68q-24 1 -52.5 1.5l-57.5 1t-57 0.5h-52h-55t-71 -0.5l-78 -1t-76 -1.5v20q25 1 41 4.5t25 12.5t12 25.5t3 43.5v396q0 27 -3 43.5t-12 25.5
t-25 12.5t-41 4.5v20q21 -2 55 -2.5t73 -0.5q35 0 69.5 0.5t57.5 2.5v-20q-26 -1 -41.5 -4.5t-24.5 -12.5t-12 -25.5t-3 -43.5v-396z" />
    <glyph glyph-name="m" unicode="m" horiz-adv-x="847" 
d="M633 605h47q35 0 69.5 0.5t57.5 2.5v-20q-26 -1 -41.5 -4.5t-24.5 -12.5t-12 -25.5t-3 -43.5v-396q0 -27 3 -43.5t12 -25.5t24.5 -12.5t41.5 -4.5v-20q-23 2 -57.5 2.5t-69.5 0.5q-39 0 -73 -0.5t-55 -2.5v20q25 1 41 4.5t25 12.5t12 25.5t3 43.5v437l-221 -548h-16
l-252 549v-438q0 -27 3 -43.5t12 -25.5t24.5 -12.5t41.5 -4.5v-20q-18 2 -42 2.5t-50 0.5t-51 -0.5t-42 -2.5v20q25 1 41 4.5t25 12.5t12 25.5t3 43.5v396q0 27 -3 43.5t-12 25.5t-25 12.5t-41 4.5v20q17 -2 42 -2.5t51 -0.5q25 0 49 0.5t43 2.5l215 -474z" />
    <glyph glyph-name="n" unicode="n" horiz-adv-x="681" 
d="M567 -5h-23l-400 554v-443q0 -27 3 -43.5t12 -25.5t24.5 -12.5t41.5 -4.5v-20q-18 2 -42 2.5t-50 0.5t-51 -0.5t-42 -2.5v20q25 1 41 4.5t25 12.5t12 25.5t3 43.5v396q0 27 -3 43.5t-12 25.5t-25 12.5t-41 4.5v20q17 -2 42 -2.5t51 -0.5q25 0 49 0.5t43 2.5l319 -444v338
q0 27 -3 43.5t-12 25.5t-25 12.5t-41 4.5v20q18 -2 42 -2.5t50 -0.5t51 0.5t42 2.5v-20q-26 -1 -41.5 -4.5t-24.5 -12.5t-12 -25.5t-3 -43.5v-507z" />
    <glyph glyph-name="o" unicode="o" horiz-adv-x="721" 
d="M53 298q0 73 23 132.5t63.5 102t97 66t124.5 23.5q69 0 125.5 -21t97 -60.5t62.5 -97.5t22 -133q0 -73 -23 -132.5t-63.5 -102t-97.5 -66t-124 -23.5q-69 0 -125.5 21t-97 60.5t-62.5 97.5t-22 133zM153 302q0 -69 16.5 -124t45 -93.5t67 -59.5t82.5 -21q46 0 84 22.5
t64.5 62.5t41 95.5t14.5 121.5q0 69 -16.5 124t-45 93.5t-67 59.5t-82.5 21q-47 0 -84.5 -22.5t-64 -62.5t-41 -95.5t-14.5 -121.5z" />
    <glyph glyph-name="p" unicode="p" horiz-adv-x="567" 
d="M214 246v-140q0 -27 3 -43.5t12 -25.5t24.5 -12.5t41.5 -4.5v-20q-23 2 -57.5 2.5t-69.5 0.5q-39 0 -73 -0.5t-55 -2.5v20q25 1 41 4.5t25 12.5t12 25.5t3 43.5v396q0 27 -3 43.5t-12 25.5t-25 12.5t-41 4.5v20q21 -2 55 -2.5t67 -0.5q24 0 47 0.5t43 0.5t36 0.5t25 0.5
q55 0 96.5 -12.5t69 -34.5t41.5 -52.5t14 -67.5q0 -32 -11.5 -66t-40.5 -62.5t-77.5 -47t-123.5 -18.5h-67zM214 266h57q50 0 82 13t50 35.5t24.5 52t6.5 62.5q0 79 -33 119t-113 40q-23 0 -37.5 -3.5t-22.5 -13.5t-11 -26.5t-3 -42.5v-236z" />
    <glyph glyph-name="q" unicode="q" horiz-adv-x="723" 
d="M54 298q0 73 23 132.5t63.5 102t97 66t124.5 23.5q69 0 125.5 -21t97 -60.5t62.5 -97.5t22 -133q0 -68 -20 -125t-56.5 -99t-87 -67.5t-111.5 -30.5v-1q-23 -3 -40.5 -8.5t-34 -12.5l-34 -14.5t-39.5 -13.5q40 -8 85.5 -16t90.5 -15q47 -8 88.5 -12.5t72.5 -4.5
q80 0 125.5 21t71.5 66l15 -6q-21 -78 -71 -118.5t-137 -40.5q-47 0 -95.5 13.5t-96.5 32l-94.5 37.5t-89.5 30q-20 -7 -41.5 -11t-41.5 -4t-33 4.5t-13 15.5q0 21 54 21q35 0 75 -8q35 10 60 22t53 23q-62 5 -111.5 28t-85 62.5t-54.5 94.5t-19 125zM154 302
q0 -69 16.5 -124t45 -93.5t67 -59.5t82.5 -21q46 0 84 22.5t64.5 62.5t41 95.5t14.5 121.5q0 69 -16.5 124t-45 93.5t-67 59.5t-82.5 21q-47 0 -84.5 -22.5t-64 -62.5t-41 -95.5t-14.5 -121.5z" />
    <glyph glyph-name="r" unicode="r" horiz-adv-x="624" 
d="M630 42q-18 -26 -42 -41t-60 -15q-25 0 -42.5 6.5t-30 17t-19.5 24t-11 28.5l-30 122q-7 29 -18 47t-26 28t-35 13.5t-45 3.5h-57v-170q0 -27 3 -43.5t12 -25.5t24.5 -12.5t41.5 -4.5v-20q-23 2 -57.5 2.5t-69.5 0.5q-39 0 -73 -0.5t-55 -2.5v20q25 1 41 4.5t25 12.5
t12 25.5t3 43.5v396q0 28 -3 44.5t-12 25.5t-25 12t-41 4v20q21 -2 55 -2.5t67 -0.5q45 0 84.5 1t56.5 1q58 0 101 -12t72 -33t43.5 -49t14.5 -60q0 -24 -9.5 -51t-32 -51t-60.5 -42.5t-96 -25.5q15 0 33 -3q24 -4 45 -10.5t37.5 -18.5t28 -31t18.5 -47l21 -88
q8 -35 17.5 -49.5t24.5 -14.5q14 0 28.5 10t26.5 24zM214 296h67q47 0 77 11.5t47 31t23 46.5t6 57q0 70 -35 108t-121 38q-20 0 -32.5 -3.5t-19.5 -13.5t-9.5 -26.5t-2.5 -42.5v-206z" />
    <glyph glyph-name="s" unicode="s" horiz-adv-x="536" 
d="M457 615q-1 -12 -2 -26t-1.5 -35t-1 -50.5t-0.5 -72.5h-23q-3 32 -13 63t-30 55t-49.5 39t-71.5 15q-54 0 -88 -28t-34 -71q0 -29 12.5 -49.5t34.5 -37t50.5 -32l60.5 -33.5q39 -21 72.5 -41t58 -43t38.5 -50.5t14 -61.5q0 -42 -16.5 -74t-44.5 -53.5t-65 -32t-79 -10.5
q-53 0 -84 11.5t-53 25.5t-34 14q-10 0 -14.5 -11t-7.5 -33h-23q1 14 2 32t1.5 43.5t0.5 61v83.5h23q3 -42 14 -79.5t32 -66t54.5 -45t81.5 -16.5q22 0 44.5 6.5t39.5 20t28 35t11 51.5q0 26 -12 46.5t-33 38.5t-50 34.5t-64 34.5q-34 17 -64.5 35.5t-53.5 41.5t-36.5 51
t-13.5 65q0 39 15.5 68t41.5 48.5t60 29.5t71 10q25 0 43 -3.5t32.5 -8.5t25.5 -11.5t21 -13.5q22 -14 34 -14q10 0 14.5 11.5t7.5 32.5h23z" />
    <glyph glyph-name="t" unicode="t" horiz-adv-x="631" 
d="M175 585q-51 0 -78.5 -39t-35.5 -138h-23q2 16 2.5 37t0.5 45q0 17 -1.5 50t-5.5 68q31 -1 67.5 -1.5l74 -1t73.5 -0.5h67h67t73 0.5l73.5 1t67.5 1.5q-4 -35 -5.5 -68t-1.5 -50q0 -24 0.5 -45.5t2.5 -36.5h-23q-8 99 -35.5 138t-78.5 39h-94v-469q0 -30 4 -48.5
t15 -28.5t30.5 -14t51.5 -5v-20q-26 2 -66 2.5t-81 0.5q-45 0 -84.5 -0.5t-63.5 -2.5v20q31 1 51 5t31 14t15 28.5t4 48.5v469h-94z" />
    <glyph glyph-name="u" unicode="u" horiz-adv-x="666" 
d="M110 502q0 27 -3 43.5t-12 25.5t-25 12.5t-41 4.5v20q21 -2 55 -2.5t73 -0.5q35 0 69.5 0.5t57.5 2.5v-20q-26 -1 -41.5 -4.5t-24.5 -12.5t-12 -25.5t-3 -43.5v-251q0 -48 4.5 -89.5t19.5 -73t44.5 -49.5t79.5 -18q54 0 89 18t55.5 50t29 76t8.5 95v242q0 27 -3 43.5
t-12 25.5t-25 12.5t-41 4.5v20q18 -2 42 -2.5t50 -0.5t51 0.5t42 2.5v-20q-26 -1 -41.5 -4.5t-24.5 -12.5t-12 -25.5t-3 -43.5v-231q0 -67 -9 -116t-32 -86q-23 -38 -68.5 -60.5t-104.5 -22.5q-45 0 -86 9.5t-72 34.5q-22 20 -36.5 41.5t-22.5 49t-11.5 63t-3.5 84.5v234z
" />
    <glyph glyph-name="v" unicode="v" horiz-adv-x="618" 
d="M233 588q-51 -2 -66 -18t8 -66l171 -389l174 389q22 49 7.5 65.5t-65.5 18.5v20q15 -2 39.5 -2.5t51.5 -0.5q17 0 35.5 0.5t31.5 2.5v-20q-16 -1 -34 -13.5t-35 -50.5l-234 -529h-16l-234 529q-17 38 -35 50.5t-34 13.5v20q20 -2 49 -2.5t58 -0.5q39 0 73 0.5t55 2.5v-20
v0z" />
    <glyph glyph-name="w" unicode="w" horiz-adv-x="875" 
d="M231 588q-26 -1 -41.5 -4.5t-22.5 -12.5t-5 -25t11 -42l142 -387l121 287l-48 120q-16 38 -34.5 50.5t-34.5 13.5v20q20 -2 49 -2.5t58 -0.5q39 0 73 0.5t55 2.5v-20q-26 -1 -41.5 -5t-22.5 -13t-5.5 -25t11.5 -41l144 -381l131 381q9 26 10.5 42t-5 25t-22.5 12.5
t-41 4.5v20q15 -2 39.5 -2.5t51.5 -0.5q18 0 36.5 0.5t30.5 2.5v-20q-16 -1 -35.5 -13t-33.5 -51l-184 -529h-16l-154 381l-163 -381h-16l-204 529q-15 38 -34 50.5t-35 13.5v20q20 -2 49 -2.5t58 -0.5q39 0 73 0.5t55 2.5v-20v0z" />
    <glyph glyph-name="x" unicode="x" horiz-adv-x="614" 
d="M22 609q11 -1 34.5 -2.5t46.5 -1.5q20 0 41 0.5t39.5 1t34.5 1.5t26 1v-21q-42 0 -56 -7t1 -27l146 -201l132 173q23 31 9.5 46.5t-70.5 15.5v20q29 -2 59 -2.5t54 -0.5q43 0 67 3v-20q-22 -2 -40 -10.5t-40 -36.5l-159 -206l193 -264q10 -14 17.5 -23t14 -15t13.5 -8.5
t17 -3.5v-21q-11 1 -34.5 2.5t-46.5 1.5q-20 0 -41 -0.5t-39.5 -1t-34.5 -1.5t-26 -1v21q42 0 56 7t-1 27l-156 214l-143 -187q-23 -31 -10 -46.5t70 -15.5v-20q-29 2 -59 2.5t-54 0.5q-43 0 -67 -3v20q22 2 40 10.5t40 36.5l169 221l-181 250q-20 28 -31.5 38t-30.5 12v21z
" />
    <glyph glyph-name="y" unicode="y" horiz-adv-x="579" 
d="M254 210l-193 322q-20 37 -33.5 46.5t-24.5 9.5v21q39 -6 88 -6q33 0 70.5 2t69.5 4v-21q-19 0 -36 -1t-28.5 -5t-15.5 -11.5t4 -20.5l174 -291l166 290q8 14 5 22t-13.5 11.5t-26.5 4.5t-34 1v21q21 -2 44 -3t41 -1q37 0 57 4v-21q-11 0 -24 -9t-33 -47l-164 -293v-133
q0 -27 3 -43.5t12 -25.5t24.5 -12.5t41.5 -4.5v-20q-23 2 -57.5 2.5t-69.5 0.5q-39 0 -73 -0.5t-55 -2.5v20q25 1 41 4.5t25 12.5t12 25.5t3 43.5v104z" />
    <glyph glyph-name="z" unicode="z" horiz-adv-x="575" 
d="M293 605q55 0 112.5 0.5t110.5 2.5v-20l-353 -565h220q25 0 44.5 8.5t33.5 28t23 51.5t13 79h23q-3 -32 -3 -82q0 -16 1.5 -46t5.5 -62q-27 1 -57.5 1.5l-62 1t-62.5 0.5h-57q-57 0 -117.5 -0.5t-115.5 -2.5v20l353 565h-210q-26 0 -45 -8.5t-33 -28t-23 -51.5t-13 -79
h-23q2 16 2.5 37t0.5 45q0 16 -1.5 46t-5.5 62q27 -1 57.5 -1.5l62 -1t62.5 -0.5h57z" />
    <glyph glyph-name="thorn" unicode="&#xfe;" horiz-adv-x="569" 
d="M214 488q34 0 62 1t42 1q55 0 96.5 -12.5t69 -34.5t41.5 -52.5t14 -67.5q0 -32 -11.5 -66t-40.5 -62.5t-77.5 -47t-123.5 -18.5h-72v-23q0 -27 3 -43.5t12 -25.5t24.5 -12.5t41.5 -4.5v-20q-23 2 -57.5 2.5t-69.5 0.5q-39 0 -73 -0.5t-55 -2.5v20q25 1 41 4.5t25 12.5
t12 25.5t3 43.5v396q0 27 -3 43.5t-12 25.5t-25 12.5t-41 4.5v20q21 -2 55 -2.5t73 -0.5q35 0 69.5 0.5t57.5 2.5v-20q-26 -1 -41.5 -4.5t-24.5 -12.5t-12 -25.5t-3 -43.5v-14zM293 471q-26 0 -44.5 -0.5t-34.5 -0.5v-321h62q46 0 77.5 13t50.5 35.5t27 52t8 62.5
q0 159 -146 159z" />
    <glyph glyph-name="aacute" unicode="&#xe1;" horiz-adv-x="620" 
d="M0 0zM393 218h-243l-51 -114q-11 -25 -13 -40.5t5.5 -25t23.5 -13.5t42 -5v-20q-15 2 -39.5 2.5t-51.5 0.5q-17 0 -35.5 -0.5t-31.5 -2.5v20q16 1 34 13.5t35 50.5l234 529h16l234 -529q17 -38 35 -50.5t34 -13.5v-20q-20 2 -49 2.5t-58 0.5q-39 0 -73 -0.5t-55 -2.5v20
q51 2 65.5 18t-7.5 66zM159 238h225l-112 254zM280 721q34 26 59 47.5l44 39l34 31t31 23.5q20 13 36.5 9.5t24.5 -16.5t4 -28.5t-25 -29.5q-16 -10 -35 -17.5l-43 -17t-54 -22.5t-69 -32z" />
    <glyph glyph-name="acute" unicode="&#xb4;" horiz-adv-x="275" 
d="M82 721q34 26 59 47.5l44 39l34 31t31 23.5q20 13 36.5 9.5t24.5 -16.5t4 -28.5t-25 -29.5q-16 -10 -35 -17.5l-43 -17t-54 -22.5t-69 -32z" />
    <glyph glyph-name="abreve" unicode="&#x103;" horiz-adv-x="620" 
d="M0 0zM393 218h-243l-51 -114q-11 -25 -13 -40.5t5.5 -25t23.5 -13.5t42 -5v-20q-15 2 -39.5 2.5t-51.5 0.5q-17 0 -35.5 -0.5t-31.5 -2.5v20q16 1 34 13.5t35 50.5l234 529h16l234 -529q17 -38 35 -50.5t34 -13.5v-20q-20 2 -49 2.5t-58 0.5q-39 0 -73 -0.5t-55 -2.5v20
q51 2 65.5 18t-7.5 66zM159 238h225l-112 254zM319 763q68 0 111.5 21t65.5 44l12 -11q-11 -20 -28.5 -40.5t-41 -37t-53.5 -27.5t-66 -11t-66 11t-53.5 27.5t-41 37t-28.5 40.5l13 10q22 -23 65 -43.5t111 -20.5z" />
    <glyph glyph-name="breve" unicode="&#x2d8;" horiz-adv-x="448" 
d="M224 763q68 0 111.5 21t65.5 44l12 -11q-11 -20 -28.5 -40.5t-41 -37t-53.5 -27.5t-66 -11t-66 11t-53.5 27.5t-41 37t-28.5 40.5l13 10q22 -23 65 -43.5t111 -20.5z" />
    <glyph glyph-name="acircumflex" unicode="&#xe2;" horiz-adv-x="620" 
d="M0 0zM393 218h-243l-51 -114q-11 -25 -13 -40.5t5.5 -25t23.5 -13.5t42 -5v-20q-15 2 -39.5 2.5t-51.5 0.5q-17 0 -35.5 -0.5t-31.5 -2.5v20q16 1 34 13.5t35 50.5l234 529h16l234 -529q17 -38 35 -50.5t34 -13.5v-20q-20 2 -49 2.5t-58 0.5q-39 0 -73 -0.5t-55 -2.5v20
q51 2 65.5 18t-7.5 66zM159 238h225l-112 254zM301 778q-27 -19 -71.5 -38t-89.5 -32l-5 14q62 23 108.5 58.5t68.5 73.5h18q22 -38 68.5 -73.5t108.5 -58.5l-5 -14q-57 13 -112.5 32t-88.5 38z" />
    <glyph glyph-name="circumflex" unicode="&#x2c6;" horiz-adv-x="422" 
d="M191 778q-27 -19 -71.5 -38t-89.5 -32l-5 14q62 23 108.5 58.5t68.5 73.5h18q22 -38 68.5 -73.5t108.5 -58.5l-5 -14q-57 13 -112.5 32t-88.5 38z" />
    <glyph glyph-name="adieresis" unicode="&#xe4;" horiz-adv-x="620" 
d="M0 0zM393 218h-243l-51 -114q-11 -25 -13 -40.5t5.5 -25t23.5 -13.5t42 -5v-20q-15 2 -39.5 2.5t-51.5 0.5q-17 0 -35.5 -0.5t-31.5 -2.5v20q16 1 34 13.5t35 50.5l234 529h16l234 -529q17 -38 35 -50.5t34 -13.5v-20q-20 2 -49 2.5t-58 0.5q-39 0 -73 -0.5t-55 -2.5v20
q51 2 65.5 18t-7.5 66zM159 238h225l-112 254zM156 772q0 23 17 40.5t41 17.5q23 0 40.5 -17.5t17.5 -40.5q0 -24 -17.5 -41t-40.5 -17q-24 0 -41 17t-17 41zM368 772q0 23 17 40.5t41 17.5q23 0 40.5 -17.5t17.5 -40.5q0 -24 -17.5 -41t-40.5 -17q-24 0 -41 17t-17 41z" />
    <glyph glyph-name="dieresis" unicode="&#xa8;" horiz-adv-x="378" 
d="M25 772q0 23 17 40.5t41 17.5q23 0 40.5 -17.5t17.5 -40.5q0 -24 -17.5 -41t-40.5 -17q-24 0 -41 17t-17 41zM237 772q0 23 17 40.5t41 17.5q23 0 40.5 -17.5t17.5 -40.5q0 -24 -17.5 -41t-40.5 -17q-24 0 -41 17t-17 41z" />
    <glyph glyph-name="agrave" unicode="&#xe0;" horiz-adv-x="620" 
d="M0 0zM393 218h-243l-51 -114q-11 -25 -13 -40.5t5.5 -25t23.5 -13.5t42 -5v-20q-15 2 -39.5 2.5t-51.5 0.5q-17 0 -35.5 -0.5t-31.5 -2.5v20q16 1 34 13.5t35 50.5l234 529h16l234 -529q17 -38 35 -50.5t34 -13.5v-20q-20 2 -49 2.5t-58 0.5q-39 0 -73 -0.5t-55 -2.5v20
q51 2 65.5 18t-7.5 66zM159 238h225l-112 254zM352 708q-39 19 -69 32t-54 22.5l-43 17t-35 17.5q-21 14 -25 29.5t4 28.5t24.5 16.5t36.5 -9.5q16 -10 31 -23.5l34 -31l43.5 -39t59.5 -47.5z" />
    <glyph glyph-name="grave" unicode="`" horiz-adv-x="275" 
d="M248 708q-39 19 -69 32t-54 22.5l-43 17t-35 17.5q-21 14 -25 29.5t4 28.5t24.5 16.5t36.5 -9.5q16 -10 31 -23.5l34 -31l43.5 -39t59.5 -47.5z" />
    <glyph glyph-name="amacron" unicode="&#x101;" horiz-adv-x="620" 
d="M0 0zM393 218h-243l-51 -114q-11 -25 -13 -40.5t5.5 -25t23.5 -13.5t42 -5v-20q-15 2 -39.5 2.5t-51.5 0.5q-17 0 -35.5 -0.5t-31.5 -2.5v20q16 1 34 13.5t35 50.5l234 529h16l234 -529q17 -38 35 -50.5t34 -13.5v-20q-20 2 -49 2.5t-58 0.5q-39 0 -73 -0.5t-55 -2.5v20
q51 2 65.5 18t-7.5 66zM159 238h225l-112 254zM479 772v-25h-352v25h352z" />
    <glyph glyph-name="macron" unicode="&#xaf;" horiz-adv-x="402" 
d="M377 772v-25h-352v25h352z" />
    <glyph glyph-name="aogonek" unicode="&#x105;" horiz-adv-x="620" 
d="M393 218h-243l-51 -114q-11 -25 -13 -40.5t5.5 -25t23.5 -13.5t42 -5v-20q-15 2 -39.5 2.5t-51.5 0.5q-17 0 -35.5 -0.5t-31.5 -2.5v20q16 1 34 13.5t35 50.5l234 529h16l234 -529q17 -38 35 -50.5t34 -13.5v-20q-5 0 -11.5 0.5t-12.5 0.5q-56 -16 -76.5 -44t-20.5 -53
q0 -20 11.5 -32t31.5 -12q19 0 35 9.5t26 23.5l15 -13q-23 -35 -51.5 -51.5t-61.5 -16.5q-36 0 -57.5 18t-21.5 47q0 39 35.5 71.5t101.5 53.5q-13 1 -25.5 1h-24.5q-39 0 -73 -0.5t-55 -2.5v20q51 2 65.5 18t-7.5 66zM159 238h225l-112 254z" />
    <glyph glyph-name="ogonek" unicode="&#x2db;" horiz-adv-x="242" 
d="M201 3q-30 -8 -49.5 -19.5t-31.5 -25t-17 -27.5t-5 -27q0 -20 11.5 -32t31.5 -12q19 0 35 9.5t26 23.5l15 -13q-23 -35 -51.5 -51.5t-61.5 -16.5q-36 0 -57.5 18t-21.5 47q0 39 36 71.5t102 54.5h38z" />
    <glyph glyph-name="aringacute" unicode="&#x1fb;" horiz-adv-x="620" 
d="M320 775q39 0 68 -24.5t29 -66.5t-26.5 -66t-63.5 -26l225 -508q17 -38 35 -50.5t34 -13.5v-20q-20 2 -49 2.5t-58 0.5q-39 0 -73 -0.5t-55 -2.5v20q51 2 65.5 18t-7.5 66l-51 114h-243l-51 -114q-11 -25 -13 -40.5t5.5 -25t23.5 -13.5t42 -5v-20q-15 2 -39.5 2.5
t-51.5 0.5q-17 0 -35.5 -0.5t-31.5 -2.5v20q16 1 34 13.5t35 50.5l226 511q-30 8 -50 31t-20 58q0 21 8 38t21 28.5t30.5 18t36.5 6.5zM320 613q25 0 47 17.5t22 52.5t-22 53t-47 18q-24 0 -46 -18t-22 -53q0 -34 20 -51t43 -19h3h2zM232 785q34 26 59 47.5l44 39l34 31
t31 23.5q20 13 36.5 9.5t24.5 -16.5t4 -28.5t-25 -29.5q-16 -10 -35 -17.5l-43 -17t-54 -22.5t-69 -32zM159 238h225l-112 254z" />
    <glyph glyph-name="ring" unicode="&#x2da;" horiz-adv-x="263" 
d="M131 865q39 0 68 -24.5t29 -66.5q0 -43 -29 -67.5t-68 -24.5q-19 0 -36.5 6.5t-30.5 18.5t-21 29t-8 38t8 38t21 28.5t30.5 18t36.5 6.5zM131 703q25 0 47 17.5t22 52.5t-22 53t-47 18q-24 0 -46 -18t-22 -53t22 -52.5t46 -17.5z" />
    <glyph glyph-name="aring" unicode="&#xe5;" horiz-adv-x="620" 
d="M0 0zM393 218h-243l-51 -114q-11 -25 -13 -40.5t5.5 -25t23.5 -13.5t42 -5v-20q-15 2 -39.5 2.5t-51.5 0.5q-17 0 -35.5 -0.5t-31.5 -2.5v20q16 1 34 13.5t35 50.5l234 529h16l234 -529q17 -38 35 -50.5t34 -13.5v-20q-20 2 -49 2.5t-58 0.5q-39 0 -73 -0.5t-55 -2.5v20
q51 2 65.5 18t-7.5 66zM159 238h225l-112 254zM309 865q39 0 68 -24.5t29 -66.5q0 -43 -29 -67.5t-68 -24.5q-19 0 -36.5 6.5t-30.5 18.5t-21 29t-8 38t8 38t21 28.5t30.5 18t36.5 6.5zM309 703q25 0 47 17.5t22 52.5t-22 53t-47 18q-24 0 -46 -18t-22 -53t22 -52.5
t46 -17.5z" />
    <glyph glyph-name="atilde" unicode="&#xe3;" horiz-adv-x="620" 
d="M0 0zM393 218h-243l-51 -114q-11 -25 -13 -40.5t5.5 -25t23.5 -13.5t42 -5v-20q-15 2 -39.5 2.5t-51.5 0.5q-17 0 -35.5 -0.5t-31.5 -2.5v20q16 1 34 13.5t35 50.5l234 529h16l234 -529q17 -38 35 -50.5t34 -13.5v-20q-20 2 -49 2.5t-58 0.5q-39 0 -73 -0.5t-55 -2.5v20
q51 2 65.5 18t-7.5 66zM159 238h225l-112 254zM428 761q23 0 41 13t29 45l17 -5q-11 -50 -40 -78t-71 -28q-28 0 -52 12t-47.5 26.5t-46.5 26.5t-48 12q-24 0 -41.5 -13t-28.5 -45l-17 5q11 50 40 78t71 28q28 0 52 -12t47.5 -26.5t46.5 -26.5t48 -12z" />
    <glyph glyph-name="tilde" unicode="&#x2dc;" horiz-adv-x="482" 
d="M350 761q23 0 41 13t29 45l17 -5q-11 -50 -40 -78t-71 -28q-28 0 -52 12t-47.5 26.5t-46.5 26.5t-48 12q-24 0 -41.5 -13t-28.5 -45l-17 5q11 50 40 78t71 28q28 0 52 -12t47.5 -26.5t46.5 -26.5t48 -12z" />
    <glyph glyph-name="cacute" unicode="&#x107;" horiz-adv-x="641" 
d="M53 0zM350 -14q-67 0 -121.5 21t-93.5 60.5t-60.5 97.5t-21.5 133q0 73 22 132.5t61.5 102t94.5 66t120 23.5q54 0 89 -19.5t65 -45.5q38 -32 45 51h23q-2 -34 -3 -82t-1 -128h-23q-5 27 -10 46t-11 33t-13 25.5t-16 23.5q-29 38 -67.5 57t-81.5 19q-44 0 -80 -20.5
t-61.5 -59.5t-39 -94.5t-13.5 -125.5q0 -72 15.5 -127.5t43 -93t64 -56.5t78.5 -19q43 0 83.5 19t69.5 57q10 13 17 26.5t12 29t9 35.5t8 47h23q0 -83 1 -134t3 -86h-23q-4 43 -14.5 55.5t-30.5 -4.5q-16 -13 -32.5 -25t-36 -21t-42.5 -14t-51 -5zM264 721q34 26 59 47.5
l44 39l34 31t31 23.5q20 13 36.5 9.5t24.5 -16.5t4 -28.5t-25 -29.5q-16 -10 -35 -17.5l-43 -17t-54 -22.5t-69 -32z" />
    <glyph glyph-name="ccedilla" unicode="&#xe7;" horiz-adv-x="642" 
d="M513 51q-16 -13 -32.5 -24.5t-35.5 -20.5t-42 -14.5t-51 -5.5l-19 -58q13 3 27.5 5t31.5 2q28 0 44.5 -12t16.5 -35q0 -21 -11 -35.5t-27.5 -23.5t-36.5 -13t-38 -4q-28 0 -48.5 3t-34.5 8l4 18q5 -1 15.5 -2t22.5 -1q15 0 30.5 2t29 7t22 13.5t8.5 22.5q0 28 -42 28
q-8 0 -23 -1.5t-26 -5.5l28 83q-62 4 -112 26.5t-85.5 62t-55 95.5t-19.5 127q0 73 22 132.5t61.5 102t94.5 66t120 23.5q54 0 89 -19.5t65 -45.5q38 -32 45 51h23q-2 -34 -3 -82t-1 -128h-23q-5 27 -10 46t-11 33t-13 25.5t-16 23.5q-29 38 -67.5 57t-81.5 19
q-44 0 -80 -20.5t-61.5 -59.5t-39 -94.5t-13.5 -125.5q0 -72 15.5 -127.5t43 -93t64 -56.5t78.5 -19q43 0 83.5 19t69.5 57q10 13 17 26.5t12 29t9 35.5t8 47h23q0 -83 1 -134t3 -86h-23q-4 43 -14.5 55.5t-30.5 -4.5z" />
    <glyph glyph-name="cedilla" unicode="&#xb8;" horiz-adv-x="228" 
d="M119 5l-26 -77q13 3 27.5 5t31.5 2q28 0 44.5 -12t16.5 -35q0 -21 -11 -35.5t-27.5 -23.5t-36.5 -13t-38 -4q-28 0 -48.5 3t-34.5 8l4 18q5 -1 15.5 -2t22.5 -1q15 0 30.5 2t29 7t22 13.5t8.5 22.5q0 28 -42 28q-8 0 -23 -1.5t-26 -5.5l34 101h27z" />
    <glyph glyph-name="ckreska" horiz-adv-x="641" 
d="M53 0zM350 -14q-67 0 -121.5 21t-93.5 60.5t-60.5 97.5t-21.5 133q0 73 22 132.5t61.5 102t94.5 66t120 23.5q54 0 89 -19.5t65 -45.5q38 -32 45 51h23q-2 -34 -3 -82t-1 -128h-23q-5 27 -10 46t-11 33t-13 25.5t-16 23.5q-29 38 -67.5 57t-81.5 19q-44 0 -80 -20.5
t-61.5 -59.5t-39 -94.5t-13.5 -125.5q0 -72 15.5 -127.5t43 -93t64 -56.5t78.5 -19q43 0 83.5 19t69.5 57q10 13 17 26.5t12 29t9 35.5t8 47h23q0 -83 1 -134t3 -86h-23q-4 43 -14.5 55.5t-30.5 -4.5q-16 -13 -32.5 -25t-36 -21t-42.5 -14t-51 -5zM330 705q7 26 10.5 47.5
t6 39.5t5 33.5t7.5 28.5q8 18 22.5 21.5t29.5 -1.5q13 -6 20 -20t-1 -31q-6 -13 -15 -25.5t-20.5 -27l-24.5 -31.5t-27 -40z" />
    <glyph glyph-name="kreska" horiz-adv-x="154" 
d="M25 705q7 26 10.5 47.5t6 39.5t5 33.5t7.5 28.5q8 18 22.5 21.5t29.5 -1.5q13 -6 20 -20t-1 -31q-6 -13 -15 -25.5t-20.5 -27l-24.5 -31.5t-27 -40z" />
    <glyph glyph-name="ccaron" unicode="&#x10d;" horiz-adv-x="641" 
d="M53 0zM350 -14q-67 0 -121.5 21t-93.5 60.5t-60.5 97.5t-21.5 133q0 73 22 132.5t61.5 102t94.5 66t120 23.5q54 0 89 -19.5t65 -45.5q38 -32 45 51h23q-2 -34 -3 -82t-1 -128h-23q-5 27 -10 46t-11 33t-13 25.5t-16 23.5q-29 38 -67.5 57t-81.5 19q-44 0 -80 -20.5
t-61.5 -59.5t-39 -94.5t-13.5 -125.5q0 -72 15.5 -127.5t43 -93t64 -56.5t78.5 -19q43 0 83.5 19t69.5 57q10 13 17 26.5t12 29t9 35.5t8 47h23q0 -83 1 -134t3 -86h-23q-4 43 -14.5 55.5t-30.5 -4.5q-16 -13 -32.5 -25t-36 -21t-42.5 -14t-51 -5zM373 776q27 19 71.5 38
t89.5 32l5 -14q-62 -23 -108.5 -58.5t-68.5 -73.5h-18q-22 38 -68.5 73.5t-108.5 58.5l5 14q57 -13 112.5 -32t88.5 -38z" />
    <glyph glyph-name="caron" unicode="&#x2c7;" horiz-adv-x="422" 
d="M231 776q27 19 71.5 38t89.5 32l5 -14q-62 -23 -108.5 -58.5t-68.5 -73.5h-18q-22 38 -68.5 73.5t-108.5 58.5l5 14q57 -13 112.5 -32t88.5 -38z" />
    <glyph glyph-name="ccircumflex" unicode="&#x109;" horiz-adv-x="641" 
d="M53 0zM350 -14q-67 0 -121.5 21t-93.5 60.5t-60.5 97.5t-21.5 133q0 73 22 132.5t61.5 102t94.5 66t120 23.5q54 0 89 -19.5t65 -45.5q38 -32 45 51h23q-2 -34 -3 -82t-1 -128h-23q-5 27 -10 46t-11 33t-13 25.5t-16 23.5q-29 38 -67.5 57t-81.5 19q-44 0 -80 -20.5
t-61.5 -59.5t-39 -94.5t-13.5 -125.5q0 -72 15.5 -127.5t43 -93t64 -56.5t78.5 -19q43 0 83.5 19t69.5 57q10 13 17 26.5t12 29t9 35.5t8 47h23q0 -83 1 -134t3 -86h-23q-4 43 -14.5 55.5t-30.5 -4.5q-16 -13 -32.5 -25t-36 -21t-42.5 -14t-51 -5zM335 778
q-27 -19 -71.5 -38t-89.5 -32l-5 14q62 23 108.5 58.5t68.5 73.5h18q22 -38 68.5 -73.5t108.5 -58.5l-5 -14q-57 13 -112.5 32t-88.5 38z" />
    <glyph glyph-name="cdotaccent" unicode="&#x10b;" horiz-adv-x="641" 
d="M53 0zM350 -14q-67 0 -121.5 21t-93.5 60.5t-60.5 97.5t-21.5 133q0 73 22 132.5t61.5 102t94.5 66t120 23.5q54 0 89 -19.5t65 -45.5q38 -32 45 51h23q-2 -34 -3 -82t-1 -128h-23q-5 27 -10 46t-11 33t-13 25.5t-16 23.5q-29 38 -67.5 57t-81.5 19q-44 0 -80 -20.5
t-61.5 -59.5t-39 -94.5t-13.5 -125.5q0 -72 15.5 -127.5t43 -93t64 -56.5t78.5 -19q43 0 83.5 19t69.5 57q10 13 17 26.5t12 29t9 35.5t8 47h23q0 -83 1 -134t3 -86h-23q-4 43 -14.5 55.5t-30.5 -4.5q-16 -13 -32.5 -25t-36 -21t-42.5 -14t-51 -5zM290 772q0 26 19 45t45 19
t45 -19t19 -45t-19 -45t-45 -19t-45 19t-19 45z" />
    <glyph glyph-name="dotaccent" unicode="&#x2d9;" horiz-adv-x="198" 
d="M35 772q0 26 19 45t45 19t45 -19t19 -45t-19 -45t-45 -19t-45 19t-19 45z" />
    <glyph glyph-name="dcaron" unicode="&#x10f;" horiz-adv-x="681" 
d="M40 0zM626 312q0 -71 -21.5 -128.5t-62.5 -98t-101 -63t-137 -22.5q-11 0 -28.5 0.5t-37 1l-39 1t-35.5 0.5q-35 0 -69 -0.5t-55 -2.5v20q25 1 41 4.5t25 12.5t12 25.5t3 43.5v396q0 28 -3 44.5t-12 25.5t-25 12t-41 4v20q21 -2 55 -3t67 0q35 1 78.5 2t72.5 1
q158 0 235.5 -75.5t77.5 -220.5zM526 308q0 71 -12 124t-40 88t-73.5 52.5t-112.5 17.5q-23 0 -37.5 -3.5t-22.5 -13.5t-11 -26.5t-3 -42.5v-400q0 -26 3 -43t11 -26.5t23 -13t38 -3.5q70 0 115.5 19t72.5 55.5t38 90.5t11 125zM337 776q27 19 71.5 38t89.5 32l5 -14
q-62 -23 -108.5 -58.5t-68.5 -73.5h-18q-22 38 -68.5 73.5t-108.5 58.5l5 14q57 -13 112.5 -32t88.5 -38z" />
    <glyph glyph-name="dcroat" unicode="&#x111;" horiz-adv-x="681" 
d="M626 312q0 -71 -21.5 -128.5t-62.5 -98t-101 -63t-137 -22.5q-11 0 -28.5 0.5t-37 1l-39 1t-35.5 0.5q-35 0 -69 -0.5t-55 -2.5v20q25 1 41 4.5t25 12.5t12 25.5t3 43.5v190h-81v20h81v186q0 28 -3 44.5t-12 25.5t-25 12t-41 4v20q21 -2 55 -3t67 0q35 1 78.5 2t72.5 1
q158 0 235.5 -75.5t77.5 -220.5zM526 308q0 71 -12 124t-40 88t-73.5 52.5t-112.5 17.5q-23 0 -37.5 -3.5t-22.5 -13.5t-11 -26.5t-3 -42.5v-188h138v-20h-138v-192q0 -26 3 -43t11 -26.5t23 -13t38 -3.5q70 0 115.5 19t72.5 55.5t38 90.5t11 125z" />
    <glyph glyph-name="eth" unicode="&#xf0;" horiz-adv-x="681" 
d="M626 312q0 -71 -21.5 -128.5t-62.5 -98t-101 -63t-137 -22.5q-11 0 -28.5 0.5t-37 1l-39 1t-35.5 0.5q-35 0 -69 -0.5t-55 -2.5v20q25 1 41 4.5t25 12.5t12 25.5t3 43.5v190h-81v20h81v186q0 28 -3 44.5t-12 25.5t-25 12t-41 4v20q21 -2 55 -3t67 0q35 1 78.5 2t72.5 1
q158 0 235.5 -75.5t77.5 -220.5zM526 308q0 71 -12 124t-40 88t-73.5 52.5t-112.5 17.5q-23 0 -37.5 -3.5t-22.5 -13.5t-11 -26.5t-3 -42.5v-188h138v-20h-138v-192q0 -26 3 -43t11 -26.5t23 -13t38 -3.5q70 0 115.5 19t72.5 55.5t38 90.5t11 125z" />
    <glyph glyph-name="eacute" unicode="&#xe9;" horiz-adv-x="591" 
d="M40 0zM214 316h98q24 1 37 12t19 27t8 33t4 30h23q-2 -23 -2.5 -39.5t-0.5 -29.5v-23v-20v-20.5t1 -23t2 -29t3 -39.5h-23q-2 18 -4.5 36.5t-10 33t-21.5 23.5t-40 9h-93v-190q0 -27 3 -43.5t12 -25.5t24.5 -11.5t41.5 -2.5h103q37 0 57.5 8.5t32 28t16 51.5t8.5 79h23
q-2 -14 -2.5 -32.5t-0.5 -39.5q0 -17 1.5 -50t5.5 -68q-24 1 -52.5 1.5l-57.5 1t-57 0.5h-52h-55t-71 -0.5l-78 -1t-76 -1.5v20q25 1 41 4.5t25 12.5t12 25.5t3 43.5v396q0 27 -3 43.5t-12 25.5t-25 12.5t-41 4.5v20q36 -1 76 -1.5l78 -1t71 -0.5h55q44 0 99 0.5t100 2.5
q-4 -32 -5.5 -62t-1.5 -46q0 -18 0.5 -34.5t2.5 -27.5h-23q-4 41 -9 69t-16 45.5t-29.5 25t-49.5 7.5h-93q-26 0 -41.5 -2.5t-24.5 -11.5t-12 -25.5t-3 -43.5v-186zM247 721q34 26 59 47.5l44 39l34 31t31 23.5q20 13 36.5 9.5t24.5 -16.5t4 -28.5t-25 -29.5
q-16 -10 -35 -17.5l-43 -17t-54 -22.5t-69 -32z" />
    <glyph glyph-name="ebreve" unicode="&#x115;" horiz-adv-x="591" 
d="M40 0zM214 316h98q24 1 37 12t19 27t8 33t4 30h23q-2 -23 -2.5 -39.5t-0.5 -29.5v-23v-20v-20.5t1 -23t2 -29t3 -39.5h-23q-2 18 -4.5 36.5t-10 33t-21.5 23.5t-40 9h-93v-190q0 -27 3 -43.5t12 -25.5t24.5 -11.5t41.5 -2.5h103q37 0 57.5 8.5t32 28t16 51.5t8.5 79h23
q-2 -14 -2.5 -32.5t-0.5 -39.5q0 -17 1.5 -50t5.5 -68q-24 1 -52.5 1.5l-57.5 1t-57 0.5h-52h-55t-71 -0.5l-78 -1t-76 -1.5v20q25 1 41 4.5t25 12.5t12 25.5t3 43.5v396q0 27 -3 43.5t-12 25.5t-25 12.5t-41 4.5v20q36 -1 76 -1.5l78 -1t71 -0.5h55q44 0 99 0.5t100 2.5
q-4 -32 -5.5 -62t-1.5 -46q0 -18 0.5 -34.5t2.5 -27.5h-23q-4 41 -9 69t-16 45.5t-29.5 25t-49.5 7.5h-93q-26 0 -41.5 -2.5t-24.5 -11.5t-12 -25.5t-3 -43.5v-186zM316 763q68 0 111.5 21t65.5 44l12 -11q-11 -20 -28.5 -40.5t-41 -37t-53.5 -27.5t-66 -11t-66 11
t-53.5 27.5t-41 37t-28.5 40.5l13 10q22 -23 65 -43.5t111 -20.5z" />
    <glyph glyph-name="ecaron" unicode="&#x11b;" horiz-adv-x="591" 
d="M40 0zM214 316h98q24 1 37 12t19 27t8 33t4 30h23q-2 -23 -2.5 -39.5t-0.5 -29.5v-23v-20v-20.5t1 -23t2 -29t3 -39.5h-23q-2 18 -4.5 36.5t-10 33t-21.5 23.5t-40 9h-93v-190q0 -27 3 -43.5t12 -25.5t24.5 -11.5t41.5 -2.5h103q37 0 57.5 8.5t32 28t16 51.5t8.5 79h23
q-2 -14 -2.5 -32.5t-0.5 -39.5q0 -17 1.5 -50t5.5 -68q-24 1 -52.5 1.5l-57.5 1t-57 0.5h-52h-55t-71 -0.5l-78 -1t-76 -1.5v20q25 1 41 4.5t25 12.5t12 25.5t3 43.5v396q0 27 -3 43.5t-12 25.5t-25 12.5t-41 4.5v20q36 -1 76 -1.5l78 -1t71 -0.5h55q44 0 99 0.5t100 2.5
q-4 -32 -5.5 -62t-1.5 -46q0 -18 0.5 -34.5t2.5 -27.5h-23q-4 41 -9 69t-16 45.5t-29.5 25t-49.5 7.5h-93q-26 0 -41.5 -2.5t-24.5 -11.5t-12 -25.5t-3 -43.5v-186zM336 776q27 19 71.5 38t89.5 32l5 -14q-62 -23 -108.5 -58.5t-68.5 -73.5h-18q-22 38 -68.5 73.5
t-108.5 58.5l5 14q57 -13 112.5 -32t88.5 -38z" />
    <glyph glyph-name="ecircumflex" unicode="&#xea;" horiz-adv-x="591" 
d="M40 0zM214 316h98q24 1 37 12t19 27t8 33t4 30h23q-2 -23 -2.5 -39.5t-0.5 -29.5v-23v-20v-20.5t1 -23t2 -29t3 -39.5h-23q-2 18 -4.5 36.5t-10 33t-21.5 23.5t-40 9h-93v-190q0 -27 3 -43.5t12 -25.5t24.5 -11.5t41.5 -2.5h103q37 0 57.5 8.5t32 28t16 51.5t8.5 79h23
q-2 -14 -2.5 -32.5t-0.5 -39.5q0 -17 1.5 -50t5.5 -68q-24 1 -52.5 1.5l-57.5 1t-57 0.5h-52h-55t-71 -0.5l-78 -1t-76 -1.5v20q25 1 41 4.5t25 12.5t12 25.5t3 43.5v396q0 27 -3 43.5t-12 25.5t-25 12.5t-41 4.5v20q36 -1 76 -1.5l78 -1t71 -0.5h55q44 0 99 0.5t100 2.5
q-4 -32 -5.5 -62t-1.5 -46q0 -18 0.5 -34.5t2.5 -27.5h-23q-4 41 -9 69t-16 45.5t-29.5 25t-49.5 7.5h-93q-26 0 -41.5 -2.5t-24.5 -11.5t-12 -25.5t-3 -43.5v-186zM293 778q-27 -19 -71.5 -38t-89.5 -32l-5 14q62 23 108.5 58.5t68.5 73.5h18q22 -38 68.5 -73.5
t108.5 -58.5l-5 -14q-57 13 -112.5 32t-88.5 38z" />
    <glyph glyph-name="edieresis" unicode="&#xeb;" horiz-adv-x="591" 
d="M40 0zM214 316h98q24 1 37 12t19 27t8 33t4 30h23q-2 -23 -2.5 -39.5t-0.5 -29.5v-23v-20v-20.5t1 -23t2 -29t3 -39.5h-23q-2 18 -4.5 36.5t-10 33t-21.5 23.5t-40 9h-93v-190q0 -27 3 -43.5t12 -25.5t24.5 -11.5t41.5 -2.5h103q37 0 57.5 8.5t32 28t16 51.5t8.5 79h23
q-2 -14 -2.5 -32.5t-0.5 -39.5q0 -17 1.5 -50t5.5 -68q-24 1 -52.5 1.5l-57.5 1t-57 0.5h-52h-55t-71 -0.5l-78 -1t-76 -1.5v20q25 1 41 4.5t25 12.5t12 25.5t3 43.5v396q0 27 -3 43.5t-12 25.5t-25 12.5t-41 4.5v20q36 -1 76 -1.5l78 -1t71 -0.5h55q44 0 99 0.5t100 2.5
q-4 -32 -5.5 -62t-1.5 -46q0 -18 0.5 -34.5t2.5 -27.5h-23q-4 41 -9 69t-16 45.5t-29.5 25t-49.5 7.5h-93q-26 0 -41.5 -2.5t-24.5 -11.5t-12 -25.5t-3 -43.5v-186zM142 772q0 23 17 40.5t41 17.5q23 0 40.5 -17.5t17.5 -40.5q0 -24 -17.5 -41t-40.5 -17q-24 0 -41 17
t-17 41zM354 772q0 23 17 40.5t41 17.5q23 0 40.5 -17.5t17.5 -40.5q0 -24 -17.5 -41t-40.5 -17q-24 0 -41 17t-17 41z" />
    <glyph glyph-name="edotaccent" unicode="&#x117;" horiz-adv-x="591" 
d="M40 0zM214 316h98q24 1 37 12t19 27t8 33t4 30h23q-2 -23 -2.5 -39.5t-0.5 -29.5v-23v-20v-20.5t1 -23t2 -29t3 -39.5h-23q-2 18 -4.5 36.5t-10 33t-21.5 23.5t-40 9h-93v-190q0 -27 3 -43.5t12 -25.5t24.5 -11.5t41.5 -2.5h103q37 0 57.5 8.5t32 28t16 51.5t8.5 79h23
q-2 -14 -2.5 -32.5t-0.5 -39.5q0 -17 1.5 -50t5.5 -68q-24 1 -52.5 1.5l-57.5 1t-57 0.5h-52h-55t-71 -0.5l-78 -1t-76 -1.5v20q25 1 41 4.5t25 12.5t12 25.5t3 43.5v396q0 27 -3 43.5t-12 25.5t-25 12.5t-41 4.5v20q36 -1 76 -1.5l78 -1t71 -0.5h55q44 0 99 0.5t100 2.5
q-4 -32 -5.5 -62t-1.5 -46q0 -18 0.5 -34.5t2.5 -27.5h-23q-4 41 -9 69t-16 45.5t-29.5 25t-49.5 7.5h-93q-26 0 -41.5 -2.5t-24.5 -11.5t-12 -25.5t-3 -43.5v-186zM253 772q0 26 19 45t45 19t45 -19t19 -45t-19 -45t-45 -19t-45 19t-19 45z" />
    <glyph glyph-name="egrave" unicode="&#xe8;" horiz-adv-x="591" 
d="M40 0zM214 316h98q24 1 37 12t19 27t8 33t4 30h23q-2 -23 -2.5 -39.5t-0.5 -29.5v-23v-20v-20.5t1 -23t2 -29t3 -39.5h-23q-2 18 -4.5 36.5t-10 33t-21.5 23.5t-40 9h-93v-190q0 -27 3 -43.5t12 -25.5t24.5 -11.5t41.5 -2.5h103q37 0 57.5 8.5t32 28t16 51.5t8.5 79h23
q-2 -14 -2.5 -32.5t-0.5 -39.5q0 -17 1.5 -50t5.5 -68q-24 1 -52.5 1.5l-57.5 1t-57 0.5h-52h-55t-71 -0.5l-78 -1t-76 -1.5v20q25 1 41 4.5t25 12.5t12 25.5t3 43.5v396q0 27 -3 43.5t-12 25.5t-25 12.5t-41 4.5v20q36 -1 76 -1.5l78 -1t71 -0.5h55q44 0 99 0.5t100 2.5
q-4 -32 -5.5 -62t-1.5 -46q0 -18 0.5 -34.5t2.5 -27.5h-23q-4 41 -9 69t-16 45.5t-29.5 25t-49.5 7.5h-93q-26 0 -41.5 -2.5t-24.5 -11.5t-12 -25.5t-3 -43.5v-186zM359 708q-39 19 -69 32t-54 22.5l-43 17t-35 17.5q-21 14 -25 29.5t4 28.5t24.5 16.5t36.5 -9.5
q16 -10 31 -23.5l34 -31l43.5 -39t59.5 -47.5z" />
    <glyph glyph-name="emacron" unicode="&#x113;" horiz-adv-x="591" 
d="M40 0zM214 316h98q24 1 37 12t19 27t8 33t4 30h23q-2 -23 -2.5 -39.5t-0.5 -29.5v-23v-20v-20.5t1 -23t2 -29t3 -39.5h-23q-2 18 -4.5 36.5t-10 33t-21.5 23.5t-40 9h-93v-190q0 -27 3 -43.5t12 -25.5t24.5 -11.5t41.5 -2.5h103q37 0 57.5 8.5t32 28t16 51.5t8.5 79h23
q-2 -14 -2.5 -32.5t-0.5 -39.5q0 -17 1.5 -50t5.5 -68q-24 1 -52.5 1.5l-57.5 1t-57 0.5h-52h-55t-71 -0.5l-78 -1t-76 -1.5v20q25 1 41 4.5t25 12.5t12 25.5t3 43.5v396q0 27 -3 43.5t-12 25.5t-25 12.5t-41 4.5v20q36 -1 76 -1.5l78 -1t71 -0.5h55q44 0 99 0.5t100 2.5
q-4 -32 -5.5 -62t-1.5 -46q0 -18 0.5 -34.5t2.5 -27.5h-23q-4 41 -9 69t-16 45.5t-29.5 25t-49.5 7.5h-93q-26 0 -41.5 -2.5t-24.5 -11.5t-12 -25.5t-3 -43.5v-186zM476 772v-25h-352v25h352z" />
    <glyph glyph-name="eogonek" unicode="&#x119;" horiz-adv-x="591" 
d="M214 316h93q26 0 39.5 11t20.5 26.5t9 33t4 31.5h23q-2 -23 -2.5 -39.5t-0.5 -29.5v-23v-20v-20.5t1 -23t2 -29t3 -39.5h-23q-2 18 -4.5 36.5t-10 33t-21.5 23.5t-40 9h-93v-190q0 -27 3 -43.5t12 -25.5t24.5 -11.5t41.5 -2.5h103q37 0 57.5 8.5t32 28t16 51.5t8.5 79h23
q-2 -14 -2.5 -32.5t-0.5 -39.5q0 -17 1.5 -50t5.5 -68q-8 0 -16 0.5t-17 0.5q-28 -8 -46.5 -19.5t-29.5 -24.5t-15.5 -27t-4.5 -26q0 -20 11.5 -32t31.5 -12q19 0 35 9.5t26 23.5l15 -13q-23 -35 -51.5 -51.5t-61.5 -16.5q-36 0 -57.5 18t-21.5 47q0 39 35 71t100 54
q-39 1 -79 1h-73h-55t-71 -0.5l-78 -1t-76 -1.5v20q25 1 41 4.5t25 12.5t12 25.5t3 43.5v396q0 27 -3 43.5t-12 25.5t-25 12.5t-41 4.5v20q36 -1 76 -1.5l78 -1t71 -0.5h55q44 0 99 0.5t100 2.5q-4 -32 -5.5 -62t-1.5 -46q0 -18 0.5 -34.5t2.5 -27.5h-23q-4 41 -9 69
t-16 45.5t-29.5 25t-49.5 7.5h-93q-26 0 -41.5 -2.5t-24.5 -11.5t-12 -25.5t-3 -43.5v-186z" />
    <glyph glyph-name="ae" unicode="&#xe6;" horiz-adv-x="789" 
d="M453 316h73q26 0 40 11t20.5 26.5t8.5 33t4 31.5h23q-2 -23 -2.5 -39.5t-0.5 -29.5v-23v-20v-20.5t1 -23t2 -29t3 -39.5h-23q-2 18 -4.5 36t-9.5 32t-20 23.5t-37 10.5h-78v-190q0 -27 3 -43.5t12 -25.5t24.5 -11.5t41.5 -2.5h63q37 0 57.5 8.5t32 28t16 51.5t8.5 79h23
q-2 -14 -2.5 -32.5t-0.5 -39.5q0 -17 1.5 -50t5.5 -68q-45 2 -100 2.5t-99 0.5h-47t-60.5 -0.5l-67 -1t-65.5 -1.5v20q19 1 31 4.5t19 12.5t9 25.5t2 43.5v190h-149l-108 -192q-26 -47 -12.5 -64.5t64.5 -19.5v-20q-15 2 -39.5 2.5t-51.5 0.5q-17 0 -35.5 -0.5t-31.5 -2.5
v20q16 1 32 15t37 49l278 488q-9 8 -24.5 11t-40.5 5v20q20 -1 41.5 -1.5t43.5 -0.5l30 53h23l-30 -54h152h42t47 0.5l47 1t43 1.5q-4 -32 -5.5 -62t-1.5 -46q0 -18 0.5 -34.5t2.5 -27.5h-23q-4 41 -9 69t-16 45.5t-29.5 25t-49.5 7.5h-53q-26 0 -41.5 -2.5t-24.5 -11.5
t-12 -25.5t-3 -43.5v-186zM360 502q0 33 -4 49l-133 -235h137v186z" />
    <glyph glyph-name="aeacute" unicode="&#x1fd;" horiz-adv-x="789" 
d="M0 0zM453 316h73q26 0 40 11t20.5 26.5t8.5 33t4 31.5h23q-2 -23 -2.5 -39.5t-0.5 -29.5v-23v-20v-20.5t1 -23t2 -29t3 -39.5h-23q-2 18 -4.5 36t-9.5 32t-20 23.5t-37 10.5h-78v-190q0 -27 3 -43.5t12 -25.5t24.5 -11.5t41.5 -2.5h63q37 0 57.5 8.5t32 28t16 51.5
t8.5 79h23q-2 -14 -2.5 -32.5t-0.5 -39.5q0 -17 1.5 -50t5.5 -68q-45 2 -100 2.5t-99 0.5h-47t-60.5 -0.5l-67 -1t-65.5 -1.5v20q19 1 31 4.5t19 12.5t9 25.5t2 43.5v190h-149l-108 -192q-26 -47 -12.5 -64.5t64.5 -19.5v-20q-15 2 -39.5 2.5t-51.5 0.5q-17 0 -35.5 -0.5
t-31.5 -2.5v20q16 1 32 15t37 49l278 488q-9 8 -24.5 11t-40.5 5v20q20 -1 41.5 -1.5t43.5 -0.5l30 53h23l-30 -54h152h42t47 0.5l47 1t43 1.5q-4 -32 -5.5 -62t-1.5 -46q0 -18 0.5 -34.5t2.5 -27.5h-23q-4 41 -9 69t-16 45.5t-29.5 25t-49.5 7.5h-53q-26 0 -41.5 -2.5
t-24.5 -11.5t-12 -25.5t-3 -43.5v-186zM360 502q0 33 -4 49l-133 -235h137v186zM355 721q34 26 59 47.5l44 39l34 31t31 23.5q20 13 36.5 9.5t24.5 -16.5t4 -28.5t-25 -29.5q-16 -10 -35 -17.5l-43 -17t-54 -22.5t-69 -32z" />
    <glyph glyph-name="gacute" unicode="&#x1f5;" horiz-adv-x="679" 
d="M54 0zM578 0h-20q-2 24 -15 24q-7 0 -21.5 -6.5t-22.5 -9.5q-20 -7 -54.5 -14.5t-76.5 -7.5q-152 0 -233 80t-81 226q0 76 22 137t61.5 104t94.5 66t120 23q31 0 55 -5.5t43 -14.5t35 -20.5t31 -24.5q20 -16 30 -5.5t15 56.5h23q-2 -32 -3 -78t-1 -122h-23
q-7 33 -18 63.5t-32 54.5q-29 34 -65.5 56t-91.5 22q-45 0 -81.5 -21t-62 -60t-39 -95t-13.5 -125q0 -156 57 -226.5t166 -70.5q23 0 42 2t35 6q18 5 24.5 13.5t6.5 24.5v86q0 30 -4 48.5t-15 28.5t-31 14t-51 5v20q27 -2 67 -2.5t74 -0.5q68 0 104 3v-20q-16 -1 -26 -4
t-15.5 -12t-7.5 -25.5t-2 -44.5v-148zM283 721q34 26 59 47.5l44 39l34 31t31 23.5q20 13 36.5 9.5t24.5 -16.5t4 -28.5t-25 -29.5q-16 -10 -35 -17.5l-43 -17t-54 -22.5t-69 -32z" />
    <glyph glyph-name="gbreve" unicode="&#x11f;" horiz-adv-x="679" 
d="M54 0zM578 0h-20q-2 24 -15 24q-7 0 -21.5 -6.5t-22.5 -9.5q-20 -7 -54.5 -14.5t-76.5 -7.5q-152 0 -233 80t-81 226q0 76 22 137t61.5 104t94.5 66t120 23q31 0 55 -5.5t43 -14.5t35 -20.5t31 -24.5q20 -16 30 -5.5t15 56.5h23q-2 -32 -3 -78t-1 -122h-23
q-7 33 -18 63.5t-32 54.5q-29 34 -65.5 56t-91.5 22q-45 0 -81.5 -21t-62 -60t-39 -95t-13.5 -125q0 -156 57 -226.5t166 -70.5q23 0 42 2t35 6q18 5 24.5 13.5t6.5 24.5v86q0 30 -4 48.5t-15 28.5t-31 14t-51 5v20q27 -2 67 -2.5t74 -0.5q68 0 104 3v-20q-16 -1 -26 -4
t-15.5 -12t-7.5 -25.5t-2 -44.5v-148zM362 763q68 0 111.5 21t65.5 44l12 -11q-11 -20 -28.5 -40.5t-41 -37t-53.5 -27.5t-66 -11t-66 11t-53.5 27.5t-41 37t-28.5 40.5l13 10q22 -23 65 -43.5t111 -20.5z" />
    <glyph glyph-name="gcircumflex" unicode="&#x11d;" horiz-adv-x="679" 
d="M54 0zM578 0h-20q-2 24 -15 24q-7 0 -21.5 -6.5t-22.5 -9.5q-20 -7 -54.5 -14.5t-76.5 -7.5q-152 0 -233 80t-81 226q0 76 22 137t61.5 104t94.5 66t120 23q31 0 55 -5.5t43 -14.5t35 -20.5t31 -24.5q20 -16 30 -5.5t15 56.5h23q-2 -32 -3 -78t-1 -122h-23
q-7 33 -18 63.5t-32 54.5q-29 34 -65.5 56t-91.5 22q-45 0 -81.5 -21t-62 -60t-39 -95t-13.5 -125q0 -156 57 -226.5t166 -70.5q23 0 42 2t35 6q18 5 24.5 13.5t6.5 24.5v86q0 30 -4 48.5t-15 28.5t-31 14t-51 5v20q27 -2 67 -2.5t74 -0.5q68 0 104 3v-20q-16 -1 -26 -4
t-15.5 -12t-7.5 -25.5t-2 -44.5v-148zM333 778q-27 -19 -71.5 -38t-89.5 -32l-5 14q62 23 108.5 58.5t68.5 73.5h18q22 -38 68.5 -73.5t108.5 -58.5l-5 -14q-57 13 -112.5 32t-88.5 38z" />
    <glyph glyph-name="gcommaaccent" unicode="&#x123;" horiz-adv-x="679" 
d="M54 0zM578 0h-20q-2 24 -15 24q-7 0 -21.5 -6.5t-22.5 -9.5q-20 -7 -54.5 -14.5t-76.5 -7.5q-152 0 -233 80t-81 226q0 76 22 137t61.5 104t94.5 66t120 23q31 0 55 -5.5t43 -14.5t35 -20.5t31 -24.5q20 -16 30 -5.5t15 56.5h23q-2 -32 -3 -78t-1 -122h-23
q-7 33 -18 63.5t-32 54.5q-29 34 -65.5 56t-91.5 22q-45 0 -81.5 -21t-62 -60t-39 -95t-13.5 -125q0 -156 57 -226.5t166 -70.5q23 0 42 2t35 6q18 5 24.5 13.5t6.5 24.5v86q0 30 -4 48.5t-15 28.5t-31 14t-51 5v20q27 -2 67 -2.5t74 -0.5q68 0 104 3v-20q-16 -1 -26 -4
t-15.5 -12t-7.5 -25.5t-2 -44.5v-148zM290 -122q0 23 16.5 38t39.5 15q29 0 47 -20.5t18 -49.5q0 -36 -17 -60.5t-65 -41.5l-7 18q23 7 43 23t19 40q-8 -7 -18.5 -11.5t-23.5 -4.5q-22 0 -37 14t-15 40z" />
    <glyph glyph-name="commaaccent" unicode="&#xf6c3;" horiz-adv-x="210" 
d="M43 -122q0 23 16.5 38t39.5 15q29 0 47 -20.5t18 -49.5q0 -36 -17 -60.5t-65 -41.5l-7 18q23 7 43 23t19 40q-8 -7 -18.5 -11.5t-23.5 -4.5q-22 0 -37 14t-15 40z" />
    <glyph glyph-name="gdotaccent" unicode="&#x121;" horiz-adv-x="679" 
d="M54 0zM578 0h-20q-2 24 -15 24q-7 0 -21.5 -6.5t-22.5 -9.5q-20 -7 -54.5 -14.5t-76.5 -7.5q-152 0 -233 80t-81 226q0 76 22 137t61.5 104t94.5 66t120 23q31 0 55 -5.5t43 -14.5t35 -20.5t31 -24.5q20 -16 30 -5.5t15 56.5h23q-2 -32 -3 -78t-1 -122h-23
q-7 33 -18 63.5t-32 54.5q-29 34 -65.5 56t-91.5 22q-45 0 -81.5 -21t-62 -60t-39 -95t-13.5 -125q0 -156 57 -226.5t166 -70.5q23 0 42 2t35 6q18 5 24.5 13.5t6.5 24.5v86q0 30 -4 48.5t-15 28.5t-31 14t-51 5v20q27 -2 67 -2.5t74 -0.5q68 0 104 3v-20q-16 -1 -26 -4
t-15.5 -12t-7.5 -25.5t-2 -44.5v-148zM299 772q0 26 19 45t45 19t45 -19t19 -45t-19 -45t-45 -19t-45 19t-19 45z" />
    <glyph glyph-name="hcircumflex" unicode="&#x125;" horiz-adv-x="733" 
d="M40 0zM121 502q0 27 -3 43.5t-12 25.5t-25 12.5t-41 4.5v20q21 -2 55 -2.5t73 -0.5q35 0 69.5 0.5t57.5 2.5v-20q-26 -1 -41.5 -4.5t-24.5 -12.5t-12 -25.5t-3 -43.5v-177h305v177q0 27 -3 43.5t-12 25.5t-25 12.5t-41 4.5v20q23 -2 57.5 -2.5t69.5 -0.5q39 0 73 0.5
t55 2.5v-20q-26 -1 -41.5 -4.5t-24.5 -12.5t-12 -25.5t-3 -43.5v-396q0 -27 3 -43.5t12 -25.5t24.5 -12.5t41.5 -4.5v-20q-21 2 -55 2.5t-73 0.5q-35 0 -69.5 -0.5t-57.5 -2.5v20q25 1 41 4.5t25 12.5t12 25.5t3 43.5v199h-305v-199q0 -27 3 -43.5t12 -25.5t24.5 -12.5
t41.5 -4.5v-20q-23 2 -57.5 2.5t-69.5 0.5q-39 0 -73 -0.5t-55 -2.5v20q25 1 41 4.5t25 12.5t12 25.5t3 43.5v396zM356 778q-27 -19 -71.5 -38t-89.5 -32l-5 14q62 23 108.5 58.5t68.5 73.5h18q22 -38 68.5 -73.5t108.5 -58.5l-5 -14q-57 13 -112.5 32t-88.5 38z" />
    <glyph glyph-name="hbar" unicode="&#x127;" horiz-adv-x="733" 
d="M121 443h-81v20h81v39q0 27 -3 43.5t-12 25.5t-25 12.5t-41 4.5v20q21 -2 55 -2.5t73 -0.5q35 0 69.5 0.5t57.5 2.5v-20q-26 -1 -41.5 -4.5t-24.5 -12.5t-12 -25.5t-3 -43.5v-39h305v39q0 27 -3 43.5t-12 25.5t-25 12.5t-41 4.5v20q23 -2 57.5 -2.5t69.5 -0.5
q39 0 73 0.5t55 2.5v-20q-26 -1 -41.5 -4.5t-24.5 -12.5t-12 -25.5t-3 -43.5v-39h81v-20h-81v-337q0 -27 3 -43.5t12 -25.5t24.5 -12.5t41.5 -4.5v-20q-21 2 -55 2.5t-73 0.5q-35 0 -69.5 -0.5t-57.5 -2.5v20q25 1 41 4.5t25 12.5t12 25.5t3 43.5v199h-305v-199
q0 -27 3 -43.5t12 -25.5t24.5 -12.5t41.5 -4.5v-20q-23 2 -57.5 2.5t-69.5 0.5q-39 0 -73 -0.5t-55 -2.5v20q25 1 41 4.5t25 12.5t12 25.5t3 43.5v337zM519 325v118h-305v-118h305z" />
    <glyph glyph-name="i.TRK" horiz-adv-x="335" 
d="M40 0zM214 106q0 -27 3 -43.5t12 -25.5t24.5 -12.5t41.5 -4.5v-20q-23 2 -57.5 2.5t-69.5 0.5q-39 0 -73 -0.5t-55 -2.5v20q25 1 41 4.5t25 12.5t12 25.5t3 43.5v396q0 27 -3 43.5t-12 25.5t-25 12.5t-41 4.5v20q21 -2 55 -2.5t73 -0.5q35 0 69.5 0.5t57.5 2.5v-20
q-26 -1 -41.5 -4.5t-24.5 -12.5t-12 -25.5t-3 -43.5v-396zM106 772q0 26 19 45t45 19t45 -19t19 -45t-19 -45t-45 -19t-45 19t-19 45z" />
    <glyph glyph-name="iacute" unicode="&#xed;" horiz-adv-x="335" 
d="M40 0zM214 106q0 -27 3 -43.5t12 -25.5t24.5 -12.5t41.5 -4.5v-20q-23 2 -57.5 2.5t-69.5 0.5q-39 0 -73 -0.5t-55 -2.5v20q25 1 41 4.5t25 12.5t12 25.5t3 43.5v396q0 27 -3 43.5t-12 25.5t-25 12.5t-41 4.5v20q21 -2 55 -2.5t73 -0.5q35 0 69.5 0.5t57.5 2.5v-20
q-26 -1 -41.5 -4.5t-24.5 -12.5t-12 -25.5t-3 -43.5v-396zM113 721q34 26 59 47.5l44 39l34 31t31 23.5q20 13 36.5 9.5t24.5 -16.5t4 -28.5t-25 -29.5q-16 -10 -35 -17.5l-43 -17t-54 -22.5t-69 -32z" />
    <glyph glyph-name="ibreve" unicode="&#x12d;" horiz-adv-x="335" 
d="M0 0zM210 106q0 -27 3 -43.5t12 -25.5t24.5 -12.5t41.5 -4.5v-20q-23 2 -57.5 2.5t-69.5 0.5q-39 0 -73 -0.5t-55 -2.5v20q25 1 41 4.5t25 12.5t12 25.5t3 43.5v396q0 27 -3 43.5t-12 25.5t-25 12.5t-41 4.5v20q21 -2 55 -2.5t73 -0.5q35 0 69.5 0.5t57.5 2.5v-20
q-26 -1 -41.5 -4.5t-24.5 -12.5t-12 -25.5t-3 -43.5v-396zM168 763q68 0 111.5 21t65.5 44l12 -11q-11 -20 -28.5 -40.5t-41 -37t-53.5 -27.5t-66 -11t-66 11t-53.5 27.5t-41 37t-28.5 40.5l13 10q22 -23 65 -43.5t111 -20.5z" />
    <glyph glyph-name="icircumflex" unicode="&#xee;" horiz-adv-x="335" 
d="M0 0zM210 106q0 -27 3 -43.5t12 -25.5t24.5 -12.5t41.5 -4.5v-20q-23 2 -57.5 2.5t-69.5 0.5q-39 0 -73 -0.5t-55 -2.5v20q25 1 41 4.5t25 12.5t12 25.5t3 43.5v396q0 27 -3 43.5t-12 25.5t-25 12.5t-41 4.5v20q21 -2 55 -2.5t73 -0.5q35 0 69.5 0.5t57.5 2.5v-20
q-26 -1 -41.5 -4.5t-24.5 -12.5t-12 -25.5t-3 -43.5v-396zM150 778q-27 -19 -71.5 -38t-89.5 -32l-5 14q62 23 108.5 58.5t68.5 73.5h18q22 -38 68.5 -73.5t108.5 -58.5l-5 -14q-57 13 -112.5 32t-88.5 38z" />
    <glyph glyph-name="idieresis" unicode="&#xef;" horiz-adv-x="335" 
d="M5 0zM210 106q0 -27 3 -43.5t12 -25.5t24.5 -12.5t41.5 -4.5v-20q-23 2 -57.5 2.5t-69.5 0.5q-39 0 -73 -0.5t-55 -2.5v20q25 1 41 4.5t25 12.5t12 25.5t3 43.5v396q0 27 -3 43.5t-12 25.5t-25 12.5t-41 4.5v20q21 -2 55 -2.5t73 -0.5q35 0 69.5 0.5t57.5 2.5v-20
q-26 -1 -41.5 -4.5t-24.5 -12.5t-12 -25.5t-3 -43.5v-396zM5 772q0 23 17 40.5t41 17.5q23 0 40.5 -17.5t17.5 -40.5q0 -24 -17.5 -41t-40.5 -17q-24 0 -41 17t-17 41zM217 772q0 23 17 40.5t41 17.5q23 0 40.5 -17.5t17.5 -40.5q0 -24 -17.5 -41t-40.5 -17q-24 0 -41 17
t-17 41z" />
    <glyph glyph-name="igrave" unicode="&#xec;" horiz-adv-x="335" 
d="M0 0zM210 106q0 -27 3 -43.5t12 -25.5t24.5 -12.5t41.5 -4.5v-20q-23 2 -57.5 2.5t-69.5 0.5q-39 0 -73 -0.5t-55 -2.5v20q25 1 41 4.5t25 12.5t12 25.5t3 43.5v396q0 27 -3 43.5t-12 25.5t-25 12.5t-41 4.5v20q21 -2 55 -2.5t73 -0.5q35 0 69.5 0.5t57.5 2.5v-20
q-26 -1 -41.5 -4.5t-24.5 -12.5t-12 -25.5t-3 -43.5v-396zM201 708q-39 19 -69 32t-54 22.5l-43 17t-35 17.5q-21 14 -25 29.5t4 28.5t24.5 16.5t36.5 -9.5q16 -10 31 -23.5l34 -31l43.5 -39t59.5 -47.5z" />
    <glyph glyph-name="imacron" unicode="&#x12b;" horiz-adv-x="335" 
d="M0 0zM210 106q0 -27 3 -43.5t12 -25.5t24.5 -12.5t41.5 -4.5v-20q-23 2 -57.5 2.5t-69.5 0.5q-39 0 -73 -0.5t-55 -2.5v20q25 1 41 4.5t25 12.5t12 25.5t3 43.5v396q0 27 -3 43.5t-12 25.5t-25 12.5t-41 4.5v20q21 -2 55 -2.5t73 -0.5q35 0 69.5 0.5t57.5 2.5v-20
q-26 -1 -41.5 -4.5t-24.5 -12.5t-12 -25.5t-3 -43.5v-396zM339 772v-25h-352v25h352z" />
    <glyph glyph-name="iogonek" unicode="&#x12f;" horiz-adv-x="335" 
d="M214 106q0 -27 3 -43.5t12 -25.5t24.5 -12.5t41.5 -4.5v-20h-9t-9 1q-55 -16 -75 -44t-20 -53q0 -20 11.5 -32t31.5 -12q19 0 35 9.5t26 23.5l15 -13q-23 -35 -51.5 -51.5t-61.5 -16.5q-36 0 -57.5 18t-21.5 47q0 39 35 71.5t100 53.5q-18 1 -37.5 1h-38.5
q-39 0 -73 -0.5t-55 -2.5v20q25 1 41 4.5t25 12.5t12 25.5t3 43.5v396q0 27 -3 43.5t-12 25.5t-25 12.5t-41 4.5v20q21 -2 55 -2.5t73 -0.5q35 0 69.5 0.5t57.5 2.5v-20q-26 -1 -41.5 -4.5t-24.5 -12.5t-12 -25.5t-3 -43.5v-396z" />
    <glyph glyph-name="itilde" unicode="&#x129;" horiz-adv-x="335" 
d="M0 0zM210 106q0 -27 3 -43.5t12 -25.5t24.5 -12.5t41.5 -4.5v-20q-23 2 -57.5 2.5t-69.5 0.5q-39 0 -73 -0.5t-55 -2.5v20q25 1 41 4.5t25 12.5t12 25.5t3 43.5v396q0 27 -3 43.5t-12 25.5t-25 12.5t-41 4.5v20q21 -2 55 -2.5t73 -0.5q35 0 69.5 0.5t57.5 2.5v-20
q-26 -1 -41.5 -4.5t-24.5 -12.5t-12 -25.5t-3 -43.5v-396zM277 761q23 0 41 13t29 45l17 -5q-11 -50 -40 -78t-71 -28q-28 0 -52 12t-47.5 26.5t-46.5 26.5t-48 12q-24 0 -41.5 -13t-28.5 -45l-17 5q11 50 40 78t71 28q28 0 52 -12t47.5 -26.5t46.5 -26.5t48 -12z" />
    <glyph glyph-name="ij" unicode="&#x133;" horiz-adv-x="662" 
d="M40 0zM214 106q0 -27 3 -43.5t12 -25.5t24.5 -12.5t41.5 -4.5v-20q-23 2 -57.5 2.5t-69.5 0.5q-39 0 -73 -0.5t-55 -2.5v20q25 1 41 4.5t25 12.5t12 25.5t3 43.5v396q0 27 -3 43.5t-12 25.5t-25 12.5t-41 4.5v20q21 -2 55 -2.5t73 -0.5q35 0 69.5 0.5t57.5 2.5v-20
q-26 -1 -41.5 -4.5t-24.5 -12.5t-12 -25.5t-3 -43.5v-396zM348 -168q36 0 59 22.5t35 61.5q5 16 8 34t5 44.5t3 62.5t1 88v357q0 27 -3 43.5t-12 25.5t-25 12.5t-41 4.5v20q21 -2 55 -2.5t73 -0.5q35 0 69.5 0.5t57.5 2.5v-20q-26 -1 -41.5 -4.5t-24.5 -12.5t-12 -25.5
t-3 -43.5v-266q0 -31 -0.5 -66.5t-2.5 -70t-5 -67t-9 -57.5q-8 -35 -24 -64t-40 -51t-55.5 -34t-71.5 -12q-17 0 -35 3.5t-32 12.5q-12 8 -19.5 19.5t-7.5 28.5q0 20 14 34t34 14t34.5 -14t14.5 -34q0 -13 -7.5 -25t-18.5 -19q5 -1 12 -1.5t15 -0.5z" />
    <glyph glyph-name="jcircumflex" unicode="&#x135;" horiz-adv-x="320" 
d="M0 0zM3 -168q36 0 59 22.5t35 61.5q5 16 8 34t5 44.5t3 62.5t1 88v357q0 27 -3 43.5t-12 25.5t-25 12.5t-41 4.5v20q21 -2 55 -2.5t73 -0.5q35 0 69.5 0.5t57.5 2.5v-20q-26 -1 -41.5 -4.5t-24.5 -12.5t-12 -25.5t-3 -43.5v-266q0 -31 -0.5 -66.5t-2.5 -70t-5 -67
t-9 -57.5q-8 -35 -24 -64t-40 -51t-55.5 -34t-71.5 -12q-17 0 -35 3.5t-32 12.5q-12 8 -19.5 19.5t-7.5 28.5q0 20 14 34t34 14t34.5 -14t14.5 -34q0 -13 -7.5 -25t-18.5 -19q5 -1 12 -1.5t15 -0.5zM145 778q-27 -19 -71.5 -38t-89.5 -32l-5 14q62 23 108.5 58.5t68.5 73.5
h18q22 -38 68.5 -73.5t108.5 -58.5l-5 -14q-57 13 -112.5 32t-88.5 38z" />
    <glyph glyph-name="kcommaaccent" unicode="&#x137;" horiz-adv-x="627" 
d="M40 0zM511 552q20 20 -3 27.5t-74 9.5v19q27 -2 59.5 -2.5t58.5 -0.5q42 0 71 3v-19q-29 -2 -54 -16.5t-49 -38.5l-182 -174l226 -279q17 -22 36 -37t42 -24v-20q-24 2 -55.5 2.5t-56.5 0.5q-20 0 -51 -0.5t-76 -2.5v20q26 1 39.5 4t18 8.5t1.5 13.5t-12 19l-137 174
q-15 19 -26.5 32t-22 21.5t-22 13t-28.5 5.5v-205q0 -27 3 -43.5t12 -25.5t24.5 -12.5t41.5 -4.5v-20q-23 2 -57.5 2.5t-69.5 0.5q-39 0 -73 -0.5t-55 -2.5v20q25 1 41 4.5t25 12.5t12 25.5t3 43.5v396q0 27 -3 43.5t-12 25.5t-25 12.5t-41 4.5v20q21 -2 55 -2.5t73 -0.5
q35 0 69.5 0.5t57.5 2.5v-20q-26 -1 -41.5 -4.5t-24.5 -12.5t-12 -25.5t-3 -43.5v-171q32 1 62.5 14t71.5 51zM292 -122q0 23 16.5 38t39.5 15q29 0 47 -20.5t18 -49.5q0 -36 -17 -60.5t-65 -41.5l-7 18q23 7 43 23t19 40q-8 -7 -18.5 -11.5t-23.5 -4.5q-22 0 -37 14t-15 40
z" />
    <glyph glyph-name="lacute" unicode="&#x13a;" horiz-adv-x="571" 
d="M40 0zM214 106q0 -27 3 -43.5t12 -25.5t24.5 -11.5t41.5 -2.5h103q51 0 78.5 39t35.5 138h23q-3 -32 -3 -82q0 -17 1.5 -50t5.5 -68q-24 1 -52.5 1.5l-57.5 1t-57 0.5h-52h-55t-71 -0.5l-78 -1t-76 -1.5v20q25 1 41 4.5t25 12.5t12 25.5t3 43.5v396q0 27 -3 43.5
t-12 25.5t-25 12.5t-41 4.5v20q21 -2 55 -2.5t73 -0.5q35 0 69.5 0.5t57.5 2.5v-20q-26 -1 -41.5 -4.5t-24.5 -12.5t-12 -25.5t-3 -43.5v-396zM133 721q34 26 59 47.5l44 39l34 31t31 23.5q20 13 36.5 9.5t24.5 -16.5t4 -28.5t-25 -29.5q-16 -10 -35 -17.5l-43 -17
t-54 -22.5t-69 -32z" />
    <glyph glyph-name="lcaron" unicode="&#x13e;" horiz-adv-x="572" 
d="M40 0zM214 106q0 -27 3 -43.5t12 -25.5t24.5 -11.5t41.5 -2.5h103q51 0 78.5 39t35.5 138h23q-3 -32 -3 -82q0 -17 1.5 -50t5.5 -68q-24 1 -52.5 1.5l-57.5 1t-57 0.5h-52h-55t-71 -0.5l-78 -1t-76 -1.5v20q25 1 41 4.5t25 12.5t12 25.5t3 43.5v396q0 27 -3 43.5
t-12 25.5t-25 12.5t-41 4.5v20q21 -2 55 -2.5t73 -0.5q35 0 69.5 0.5t57.5 2.5v-20q-26 -1 -41.5 -4.5t-24.5 -12.5t-12 -25.5t-3 -43.5v-396zM395 392q12 72 16 106.5t4 48.5q0 20 -5.5 30t-24.5 10v21q35 -4 58.5 -1.5t42.5 7.5q2 -5 3.5 -16t1.5 -20q0 -31 -23.5 -76
l-58.5 -114z" />
    <glyph glyph-name="hacek" horiz-adv-x="161" 
d="M65 392q12 72 16 106.5t4 48.5q0 20 -5.5 30t-24.5 10v21q35 -4 58.5 -1.5t42.5 7.5q2 -5 3.5 -16t1.5 -20q0 -31 -23.5 -76l-58.5 -114z" />
    <glyph glyph-name="lslash" unicode="&#x142;" horiz-adv-x="571" 
d="M214 281l197 112v-23l-197 -112v-152q0 -27 3 -43.5t12 -25.5t24.5 -11.5t41.5 -2.5h103q51 0 78.5 39t35.5 138h23q-3 -32 -3 -82q0 -17 1.5 -50t5.5 -68q-24 1 -52.5 1.5l-57.5 1t-57 0.5h-52h-55t-71 -0.5l-78 -1t-76 -1.5v20q25 1 41 4.5t25 12.5t12 25.5t3 43.5v110
l-81 -46v23l81 46v263q0 27 -3 43.5t-12 25.5t-25 12.5t-41 4.5v20q21 -2 55 -2.5t73 -0.5q35 0 69.5 0.5t57.5 2.5v-20q-26 -1 -41.5 -4.5t-24.5 -12.5t-12 -25.5t-3 -43.5v-221z" />
    <glyph glyph-name="lcommaaccent" unicode="&#x13c;" horiz-adv-x="570" 
d="M40 0zM214 106q0 -27 3 -43.5t12 -25.5t24.5 -11.5t41.5 -2.5h103q51 0 78.5 39t35.5 138h23q-3 -32 -3 -82q0 -17 1.5 -50t5.5 -68q-24 1 -52.5 1.5l-57.5 1t-57 0.5h-52h-55t-71 -0.5l-78 -1t-76 -1.5v20q25 1 41 4.5t25 12.5t12 25.5t3 43.5v396q0 27 -3 43.5
t-12 25.5t-25 12.5t-41 4.5v20q21 -2 55 -2.5t73 -0.5q35 0 69.5 0.5t57.5 2.5v-20q-26 -1 -41.5 -4.5t-24.5 -12.5t-12 -25.5t-3 -43.5v-396zM255 -122q0 23 16.5 38t39.5 15q29 0 47 -20.5t18 -49.5q0 -36 -17 -60.5t-65 -41.5l-7 18q23 7 43 23t19 40q-8 -7 -18.5 -11.5
t-23.5 -4.5q-22 0 -37 14t-15 40z" />
    <glyph glyph-name="ldot" unicode="&#x140;" horiz-adv-x="682" 
d="M40 0zM214 106q0 -27 3 -43.5t12 -25.5t24.5 -11.5t41.5 -2.5h103q51 0 78.5 39t35.5 138h23q-3 -32 -3 -82q0 -17 1.5 -50t5.5 -68q-24 1 -52.5 1.5l-57.5 1t-57 0.5h-52h-55t-71 -0.5l-78 -1t-76 -1.5v20q25 1 41 4.5t25 12.5t12 25.5t3 43.5v396q0 27 -3 43.5
t-12 25.5t-25 12.5t-41 4.5v20q21 -2 55 -2.5t73 -0.5q35 0 69.5 0.5t57.5 2.5v-20q-26 -1 -41.5 -4.5t-24.5 -12.5t-12 -25.5t-3 -43.5v-396zM555 306q0 26 19 45t45 19t45 -19t19 -45t-19 -45t-45 -19t-45 19t-19 45z" />
    <glyph glyph-name="nacute" unicode="&#x144;" horiz-adv-x="682" 
d="M40 0zM567 -5h-23l-400 554v-443q0 -27 3 -43.5t12 -25.5t24.5 -12.5t41.5 -4.5v-20q-18 2 -42 2.5t-50 0.5t-51 -0.5t-42 -2.5v20q25 1 41 4.5t25 12.5t12 25.5t3 43.5v396q0 27 -3 43.5t-12 25.5t-25 12.5t-41 4.5v20q17 -2 42 -2.5t51 -0.5q25 0 49 0.5t43 2.5
l319 -444v338q0 27 -3 43.5t-12 25.5t-25 12.5t-41 4.5v20q18 -2 42 -2.5t50 -0.5t51 0.5t42 2.5v-20q-26 -1 -41.5 -4.5t-24.5 -12.5t-12 -25.5t-3 -43.5v-507zM322 721q34 26 59 47.5l44 39l34 31t31 23.5q20 13 36.5 9.5t24.5 -16.5t4 -28.5t-25 -29.5q-16 -10 -35 -17.5
l-43 -17t-54 -22.5t-69 -32z" />
    <glyph glyph-name="nkreska" horiz-adv-x="682" 
d="M40 0zM567 -5h-23l-400 554v-443q0 -27 3 -43.5t12 -25.5t24.5 -12.5t41.5 -4.5v-20q-18 2 -42 2.5t-50 0.5t-51 -0.5t-42 -2.5v20q25 1 41 4.5t25 12.5t12 25.5t3 43.5v396q0 27 -3 43.5t-12 25.5t-25 12.5t-41 4.5v20q17 -2 42 -2.5t51 -0.5q25 0 49 0.5t43 2.5
l319 -444v338q0 27 -3 43.5t-12 25.5t-25 12.5t-41 4.5v20q18 -2 42 -2.5t50 -0.5t51 0.5t42 2.5v-20q-26 -1 -41.5 -4.5t-24.5 -12.5t-12 -25.5t-3 -43.5v-507zM340 705q7 26 10.5 47.5t6 39.5t5 33.5t7.5 28.5q8 18 22.5 21.5t29.5 -1.5q13 -6 20 -20t-1 -31
q-6 -13 -15 -25.5t-20.5 -27l-24.5 -31.5t-27 -40z" />
    <glyph glyph-name="ncaron" unicode="&#x148;" horiz-adv-x="682" 
d="M40 0zM567 -5h-23l-400 554v-443q0 -27 3 -43.5t12 -25.5t24.5 -12.5t41.5 -4.5v-20q-18 2 -42 2.5t-50 0.5t-51 -0.5t-42 -2.5v20q25 1 41 4.5t25 12.5t12 25.5t3 43.5v396q0 27 -3 43.5t-12 25.5t-25 12.5t-41 4.5v20q17 -2 42 -2.5t51 -0.5q25 0 49 0.5t43 2.5
l319 -444v338q0 27 -3 43.5t-12 25.5t-25 12.5t-41 4.5v20q18 -2 42 -2.5t50 -0.5t51 0.5t42 2.5v-20q-26 -1 -41.5 -4.5t-24.5 -12.5t-12 -25.5t-3 -43.5v-507zM381 776q27 19 71.5 38t89.5 32l5 -14q-62 -23 -108.5 -58.5t-68.5 -73.5h-18q-22 38 -68.5 73.5t-108.5 58.5
l5 14q57 -13 112.5 -32t88.5 -38z" />
    <glyph glyph-name="ncommaaccent" unicode="&#x146;" horiz-adv-x="682" 
d="M40 0zM567 -5h-23l-400 554v-443q0 -27 3 -43.5t12 -25.5t24.5 -12.5t41.5 -4.5v-20q-18 2 -42 2.5t-50 0.5t-51 -0.5t-42 -2.5v20q25 1 41 4.5t25 12.5t12 25.5t3 43.5v396q0 27 -3 43.5t-12 25.5t-25 12.5t-41 4.5v20q17 -2 42 -2.5t51 -0.5q25 0 49 0.5t43 2.5
l319 -444v338q0 27 -3 43.5t-12 25.5t-25 12.5t-41 4.5v20q18 -2 42 -2.5t50 -0.5t51 0.5t42 2.5v-20q-26 -1 -41.5 -4.5t-24.5 -12.5t-12 -25.5t-3 -43.5v-507zM298 -122q0 23 16.5 38t39.5 15q29 0 47 -20.5t18 -49.5q0 -36 -17 -60.5t-65 -41.5l-7 18q23 7 43 23t19 40
q-8 -7 -18.5 -11.5t-23.5 -4.5q-22 0 -37 14t-15 40z" />
    <glyph glyph-name="ntilde" unicode="&#xf1;" horiz-adv-x="682" 
d="M40 0zM567 -5h-23l-400 554v-443q0 -27 3 -43.5t12 -25.5t24.5 -12.5t41.5 -4.5v-20q-18 2 -42 2.5t-50 0.5t-51 -0.5t-42 -2.5v20q25 1 41 4.5t25 12.5t12 25.5t3 43.5v396q0 27 -3 43.5t-12 25.5t-25 12.5t-41 4.5v20q17 -2 42 -2.5t51 -0.5q25 0 49 0.5t43 2.5
l319 -444v338q0 27 -3 43.5t-12 25.5t-25 12.5t-41 4.5v20q18 -2 42 -2.5t50 -0.5t51 0.5t42 2.5v-20q-26 -1 -41.5 -4.5t-24.5 -12.5t-12 -25.5t-3 -43.5v-507zM470 761q23 0 41 13t29 45l17 -5q-11 -50 -40 -78t-71 -28q-28 0 -52 12t-47.5 26.5t-46.5 26.5t-48 12
q-24 0 -41.5 -13t-28.5 -45l-17 5q11 50 40 78t71 28q28 0 52 -12t47.5 -26.5t46.5 -26.5t48 -12z" />
    <glyph glyph-name="eng" unicode="&#x14b;" horiz-adv-x="681" 
d="M567 91q0 -86 -11 -140.5t-30.5 -85.5t-45 -42t-55.5 -11q-18 0 -34 3.5t-28.5 11t-20 19t-7.5 28.5q0 23 13.5 36.5t33.5 13.5t35 -13.5t15 -33.5q0 -14 -7.5 -26.5t-18.5 -19.5q5 -1 11 -1.5t12 -0.5q53 0 80 45t33 124l-398 551v-443q0 -27 3 -43.5t12 -25.5
t24.5 -12.5t41.5 -4.5v-20q-18 2 -42 2.5t-50 0.5t-51 -0.5t-42 -2.5v20q25 1 41 4.5t25 12.5t12 25.5t3 43.5v396q0 27 -3 43.5t-12 25.5t-25 12.5t-41 4.5v20q17 -2 42 -2.5t51 -0.5q25 0 49 0.5t43 2.5l319 -444v338q0 27 -3 43.5t-12 25.5t-25 12.5t-41 4.5v20
q18 -2 42 -2.5t50 -0.5t51 0.5t42 2.5v-20q-26 -1 -41.5 -4.5t-24.5 -12.5t-12 -25.5t-3 -43.5v-411z" />
    <glyph glyph-name="oacute" unicode="&#xf3;" horiz-adv-x="721" 
d="M53 0zM53 298q0 73 23 132.5t63.5 102t97 66t124.5 23.5q69 0 125.5 -21t97 -60.5t62.5 -97.5t22 -133q0 -73 -23 -132.5t-63.5 -102t-97.5 -66t-124 -23.5q-69 0 -125.5 21t-97 60.5t-62.5 97.5t-22 133zM153 302q0 -69 16.5 -124t45 -93.5t67 -59.5t82.5 -21
q46 0 84 22.5t64.5 62.5t41 95.5t14.5 121.5q0 69 -16.5 124t-45 93.5t-67 59.5t-82.5 21q-47 0 -84.5 -22.5t-64 -62.5t-41 -95.5t-14.5 -121.5zM326 721q34 26 59 47.5l44 39l34 31t31 23.5q20 13 36.5 9.5t24.5 -16.5t4 -28.5t-25 -29.5q-16 -10 -35 -17.5l-43 -17
t-54 -22.5t-69 -32z" />
    <glyph glyph-name="okreska" horiz-adv-x="721" 
d="M53 0zM53 298q0 73 23 132.5t63.5 102t97 66t124.5 23.5q69 0 125.5 -21t97 -60.5t62.5 -97.5t22 -133q0 -73 -23 -132.5t-63.5 -102t-97.5 -66t-124 -23.5q-69 0 -125.5 21t-97 60.5t-62.5 97.5t-22 133zM153 302q0 -69 16.5 -124t45 -93.5t67 -59.5t82.5 -21
q46 0 84 22.5t64.5 62.5t41 95.5t14.5 121.5q0 69 -16.5 124t-45 93.5t-67 59.5t-82.5 21q-47 0 -84.5 -22.5t-64 -62.5t-41 -95.5t-14.5 -121.5zM339 705q7 26 10.5 47.5t6 39.5t5 33.5t7.5 28.5q8 18 22.5 21.5t29.5 -1.5q13 -6 20 -20t-1 -31q-6 -13 -15 -25.5t-20.5 -27
l-24.5 -31.5t-27 -40z" />
    <glyph glyph-name="obreve" unicode="&#x14f;" horiz-adv-x="721" 
d="M53 0zM53 298q0 73 23 132.5t63.5 102t97 66t124.5 23.5q69 0 125.5 -21t97 -60.5t62.5 -97.5t22 -133q0 -73 -23 -132.5t-63.5 -102t-97.5 -66t-124 -23.5q-69 0 -125.5 21t-97 60.5t-62.5 97.5t-22 133zM153 302q0 -69 16.5 -124t45 -93.5t67 -59.5t82.5 -21
q46 0 84 22.5t64.5 62.5t41 95.5t14.5 121.5q0 69 -16.5 124t-45 93.5t-67 59.5t-82.5 21q-47 0 -84.5 -22.5t-64 -62.5t-41 -95.5t-14.5 -121.5zM365 763q68 0 111.5 21t65.5 44l12 -11q-11 -20 -28.5 -40.5t-41 -37t-53.5 -27.5t-66 -11t-66 11t-53.5 27.5t-41 37
t-28.5 40.5l13 10q22 -23 65 -43.5t111 -20.5z" />
    <glyph glyph-name="ocircumflex" unicode="&#xf4;" horiz-adv-x="721" 
d="M53 0zM53 298q0 73 23 132.5t63.5 102t97 66t124.5 23.5q69 0 125.5 -21t97 -60.5t62.5 -97.5t22 -133q0 -73 -23 -132.5t-63.5 -102t-97.5 -66t-124 -23.5q-69 0 -125.5 21t-97 60.5t-62.5 97.5t-22 133zM153 302q0 -69 16.5 -124t45 -93.5t67 -59.5t82.5 -21
q46 0 84 22.5t64.5 62.5t41 95.5t14.5 121.5q0 69 -16.5 124t-45 93.5t-67 59.5t-82.5 21q-47 0 -84.5 -22.5t-64 -62.5t-41 -95.5t-14.5 -121.5zM347 778q-27 -19 -71.5 -38t-89.5 -32l-5 14q62 23 108.5 58.5t68.5 73.5h18q22 -38 68.5 -73.5t108.5 -58.5l-5 -14
q-57 13 -112.5 32t-88.5 38z" />
    <glyph glyph-name="odieresis" unicode="&#xf6;" horiz-adv-x="721" 
d="M53 0zM53 298q0 73 23 132.5t63.5 102t97 66t124.5 23.5q69 0 125.5 -21t97 -60.5t62.5 -97.5t22 -133q0 -73 -23 -132.5t-63.5 -102t-97.5 -66t-124 -23.5q-69 0 -125.5 21t-97 60.5t-62.5 97.5t-22 133zM153 302q0 -69 16.5 -124t45 -93.5t67 -59.5t82.5 -21
q46 0 84 22.5t64.5 62.5t41 95.5t14.5 121.5q0 69 -16.5 124t-45 93.5t-67 59.5t-82.5 21q-47 0 -84.5 -22.5t-64 -62.5t-41 -95.5t-14.5 -121.5zM202 772q0 23 17 40.5t41 17.5q23 0 40.5 -17.5t17.5 -40.5q0 -24 -17.5 -41t-40.5 -17q-24 0 -41 17t-17 41zM414 772
q0 23 17 40.5t41 17.5q23 0 40.5 -17.5t17.5 -40.5q0 -24 -17.5 -41t-40.5 -17q-24 0 -41 17t-17 41z" />
    <glyph glyph-name="ograve" unicode="&#xf2;" horiz-adv-x="721" 
d="M53 0zM53 298q0 73 23 132.5t63.5 102t97 66t124.5 23.5q69 0 125.5 -21t97 -60.5t62.5 -97.5t22 -133q0 -73 -23 -132.5t-63.5 -102t-97.5 -66t-124 -23.5q-69 0 -125.5 21t-97 60.5t-62.5 97.5t-22 133zM153 302q0 -69 16.5 -124t45 -93.5t67 -59.5t82.5 -21
q46 0 84 22.5t64.5 62.5t41 95.5t14.5 121.5q0 69 -16.5 124t-45 93.5t-67 59.5t-82.5 21q-47 0 -84.5 -22.5t-64 -62.5t-41 -95.5t-14.5 -121.5zM398 708q-39 19 -69 32t-54 22.5l-43 17t-35 17.5q-21 14 -25 29.5t4 28.5t24.5 16.5t36.5 -9.5q16 -10 31 -23.5l34 -31
l43.5 -39t59.5 -47.5z" />
    <glyph glyph-name="ohungarumlaut" unicode="&#x151;" horiz-adv-x="721" 
d="M53 0zM53 298q0 73 23 132.5t63.5 102t97 66t124.5 23.5q69 0 125.5 -21t97 -60.5t62.5 -97.5t22 -133q0 -73 -23 -132.5t-63.5 -102t-97.5 -66t-124 -23.5q-69 0 -125.5 21t-97 60.5t-62.5 97.5t-22 133zM153 302q0 -69 16.5 -124t45 -93.5t67 -59.5t82.5 -21
q46 0 84 22.5t64.5 62.5t41 95.5t14.5 121.5q0 69 -16.5 124t-45 93.5t-67 59.5t-82.5 21q-47 0 -84.5 -22.5t-64 -62.5t-41 -95.5t-14.5 -121.5zM197 709q31 31 52.5 55.5t37.5 44.5l29.5 35.5t27.5 27.5q18 16 34.5 14.5t26.5 -12.5q11 -12 9 -28t-21 -33
q-15 -12 -32.5 -22.5l-40 -23l-50.5 -29t-64 -41.5zM384 709q31 31 52.5 55.5t37.5 44.5l29.5 35.5t27.5 27.5q18 16 34.5 14.5t26.5 -12.5q11 -12 9 -28t-21 -33q-15 -12 -32.5 -22.5l-40 -23l-50.5 -29t-64 -41.5z" />
    <glyph glyph-name="hungarumlaut" unicode="&#x2dd;" horiz-adv-x="455" 
d="M25 709q31 31 52.5 55.5t37.5 44.5l29.5 35.5t27.5 27.5q18 16 34.5 14.5t26.5 -12.5q11 -12 9 -28t-21 -33q-15 -12 -32.5 -22.5l-40 -23l-50.5 -29t-64 -41.5zM212 709q31 31 52.5 55.5t37.5 44.5l29.5 35.5t27.5 27.5q18 16 34.5 14.5t26.5 -12.5q11 -12 9 -28
t-21 -33q-15 -12 -32.5 -22.5l-40 -23l-50.5 -29t-64 -41.5z" />
    <glyph glyph-name="omacron" unicode="&#x14d;" horiz-adv-x="721" 
d="M53 0zM53 298q0 73 23 132.5t63.5 102t97 66t124.5 23.5q69 0 125.5 -21t97 -60.5t62.5 -97.5t22 -133q0 -73 -23 -132.5t-63.5 -102t-97.5 -66t-124 -23.5q-69 0 -125.5 21t-97 60.5t-62.5 97.5t-22 133zM153 302q0 -69 16.5 -124t45 -93.5t67 -59.5t82.5 -21
q46 0 84 22.5t64.5 62.5t41 95.5t14.5 121.5q0 69 -16.5 124t-45 93.5t-67 59.5t-82.5 21q-47 0 -84.5 -22.5t-64 -62.5t-41 -95.5t-14.5 -121.5zM540 772v-25h-352v25h352z" />
    <glyph glyph-name="otilde" unicode="&#xf5;" horiz-adv-x="721" 
d="M53 0zM53 298q0 73 23 132.5t63.5 102t97 66t124.5 23.5q69 0 125.5 -21t97 -60.5t62.5 -97.5t22 -133q0 -73 -23 -132.5t-63.5 -102t-97.5 -66t-124 -23.5q-69 0 -125.5 21t-97 60.5t-62.5 97.5t-22 133zM153 302q0 -69 16.5 -124t45 -93.5t67 -59.5t82.5 -21
q46 0 84 22.5t64.5 62.5t41 95.5t14.5 121.5q0 69 -16.5 124t-45 93.5t-67 59.5t-82.5 21q-47 0 -84.5 -22.5t-64 -62.5t-41 -95.5t-14.5 -121.5zM474 761q23 0 41 13t29 45l17 -5q-11 -50 -40 -78t-71 -28q-28 0 -52 12t-47.5 26.5t-46.5 26.5t-48 12q-24 0 -41.5 -13
t-28.5 -45l-17 5q11 50 40 78t71 28q28 0 52 -12t47.5 -26.5t46.5 -26.5t48 -12z" />
    <glyph glyph-name="oslash" unicode="&#xf8;" horiz-adv-x="721" 
d="M53 298q0 73 23 132.5t63.5 102t97 66t124.5 23.5q103 0 175 -45l71 103l19 -13l-70 -103q54 -39 83 -103t29 -151q0 -73 -23 -132.5t-63.5 -102t-97.5 -66t-124 -23.5q-96 0 -168 40l-66 -98l-22 14l66 98q-56 39 -86.5 103.5t-30.5 154.5zM153 302q0 -66 15 -119.5
t42 -91.5l290 440q-28 35 -64.5 54t-78.5 19q-47 0 -84.5 -22.5t-64 -62.5t-41 -95.5t-14.5 -121.5zM568 306q0 63 -14 115t-39 90l-289 -442q57 -65 138 -65q46 0 84 22.5t64.5 62.5t41 95.5t14.5 121.5z" />
    <glyph glyph-name="oslashacute" unicode="&#x1ff;" horiz-adv-x="721" 
d="M53 298q0 73 23 132.5t63.5 102t97 66t124.5 23.5q103 0 175 -45l71 103l19 -13l-70 -103q54 -39 83 -103t29 -151q0 -73 -23 -132.5t-63.5 -102t-97.5 -66t-124 -23.5q-96 0 -168 40l-66 -98l-22 14l66 98q-56 39 -86.5 103.5t-30.5 154.5zM329 721q34 26 59 47.5l44 39
l34 31t31 23.5q20 13 36.5 9.5t24.5 -16.5t4 -28.5t-25 -29.5q-16 -10 -35 -17.5l-43 -17t-54 -22.5t-69 -32zM568 306q0 63 -14 115t-39 90l-289 -442q57 -65 138 -65q46 0 84 22.5t64.5 62.5t41 95.5t14.5 121.5zM153 302q0 -66 15 -119.5t42 -91.5l290 440
q-28 35 -64.5 54t-78.5 19q-47 0 -84.5 -22.5t-64 -62.5t-41 -95.5t-14.5 -121.5z" />
    <glyph glyph-name="oe" unicode="&#x153;" horiz-adv-x="930" 
d="M452 1q-39 -15 -82 -15q-71 0 -129.5 21t-100 60.5t-64.5 97.5t-23 133q0 73 23.5 132.5t65.5 102t100.5 66t128.5 23.5q47 0 88 -15q30 -1 60.5 -1.5t58.5 -0.5h52h41h45t49 0.5l49.5 1t45.5 1.5q-4 -35 -5.5 -68t-1.5 -50q0 -15 0.5 -28.5t2.5 -23.5h-23q-4 41 -9 69
t-16 45.5t-29.5 25t-49.5 7.5h-63q-26 0 -41.5 -2.5t-24.5 -11.5t-12 -25.5t-3 -43.5v-186h78q24 1 37 12t19 27t8 33t4 30h23q-2 -23 -2.5 -39.5t-0.5 -29.5v-23v-20v-20.5t1 -23t2 -29t3 -39.5h-23q-2 18 -4.5 36.5t-10 33t-21.5 23.5t-40 9h-73v-190q0 -27 3 -43.5
t12 -25.5t24.5 -11.5t41.5 -2.5h73q37 0 57.5 8.5t32 28t16 51.5t8.5 79h23q-2 -14 -2.5 -32.5t-0.5 -39.5q0 -17 1.5 -50t5.5 -68q-23 1 -50 1.5l-55 1t-54.5 0.5h-49.5h-42.5h-54.5t-60.5 -0.5t-61.5 -1.5zM492 502q0 27 -10 46.5t-27 32t-40 18t-48 5.5
q-49 0 -88.5 -22.5t-67.5 -62.5t-43 -95.5t-15 -121.5q0 -69 17 -124t47 -93.5t70.5 -59.5t86.5 -21q19 0 40 5.5t38.5 18t28.5 32t11 46.5v396z" />
    <glyph glyph-name="racute" unicode="&#x155;" horiz-adv-x="624" 
d="M40 0zM630 42q-18 -26 -42 -41t-60 -15q-25 0 -42.5 6.5t-30 17t-19.5 24t-11 28.5l-30 122q-7 29 -18 47t-26 28t-35 13.5t-45 3.5h-57v-170q0 -27 3 -43.5t12 -25.5t24.5 -12.5t41.5 -4.5v-20q-23 2 -57.5 2.5t-69.5 0.5q-39 0 -73 -0.5t-55 -2.5v20q25 1 41 4.5
t25 12.5t12 25.5t3 43.5v396q0 28 -3 44.5t-12 25.5t-25 12t-41 4v20q21 -2 55 -2.5t67 -0.5q45 0 84.5 1t56.5 1q58 0 101 -12t72 -33t43.5 -49t14.5 -60q0 -24 -9.5 -51t-32 -51t-60.5 -42.5t-96 -25.5q15 0 33 -3q24 -4 45 -10.5t37.5 -18.5t28 -31t18.5 -47l21 -88
q8 -35 17.5 -49.5t24.5 -14.5q14 0 28.5 10t26.5 24zM214 296h67q47 0 77 11.5t47 31t23 46.5t6 57q0 70 -35 108t-121 38q-20 0 -32.5 -3.5t-19.5 -13.5t-9.5 -26.5t-2.5 -42.5v-206zM277 721q34 26 59 47.5l44 39l34 31t31 23.5q20 13 36.5 9.5t24.5 -16.5t4 -28.5
t-25 -29.5q-16 -10 -35 -17.5l-43 -17t-54 -22.5t-69 -32z" />
    <glyph glyph-name="rcaron" unicode="&#x159;" horiz-adv-x="624" 
d="M40 0zM630 42q-18 -26 -42 -41t-60 -15q-25 0 -42.5 6.5t-30 17t-19.5 24t-11 28.5l-30 122q-7 29 -18 47t-26 28t-35 13.5t-45 3.5h-57v-170q0 -27 3 -43.5t12 -25.5t24.5 -12.5t41.5 -4.5v-20q-23 2 -57.5 2.5t-69.5 0.5q-39 0 -73 -0.5t-55 -2.5v20q25 1 41 4.5
t25 12.5t12 25.5t3 43.5v396q0 28 -3 44.5t-12 25.5t-25 12t-41 4v20q21 -2 55 -2.5t67 -0.5q45 0 84.5 1t56.5 1q58 0 101 -12t72 -33t43.5 -49t14.5 -60q0 -24 -9.5 -51t-32 -51t-60.5 -42.5t-96 -25.5q15 0 33 -3q24 -4 45 -10.5t37.5 -18.5t28 -31t18.5 -47l21 -88
q8 -35 17.5 -49.5t24.5 -14.5q14 0 28.5 10t26.5 24zM214 296h67q47 0 77 11.5t47 31t23 46.5t6 57q0 70 -35 108t-121 38q-20 0 -32.5 -3.5t-19.5 -13.5t-9.5 -26.5t-2.5 -42.5v-206zM336 776q27 19 71.5 38t89.5 32l5 -14q-62 -23 -108.5 -58.5t-68.5 -73.5h-18
q-22 38 -68.5 73.5t-108.5 58.5l5 14q57 -13 112.5 -32t88.5 -38z" />
    <glyph glyph-name="rcommaaccent" unicode="&#x157;" horiz-adv-x="623" 
d="M40 0zM630 42q-18 -26 -42 -41t-60 -15q-25 0 -42.5 6.5t-30 17t-19.5 24t-11 28.5l-30 122q-7 29 -18 47t-26 28t-35 13.5t-45 3.5h-57v-170q0 -27 3 -43.5t12 -25.5t24.5 -12.5t41.5 -4.5v-20q-23 2 -57.5 2.5t-69.5 0.5q-39 0 -73 -0.5t-55 -2.5v20q25 1 41 4.5
t25 12.5t12 25.5t3 43.5v396q0 28 -3 44.5t-12 25.5t-25 12t-41 4v20q21 -2 55 -2.5t67 -0.5q45 0 84.5 1t56.5 1q58 0 101 -12t72 -33t43.5 -49t14.5 -60q0 -24 -9.5 -51t-32 -51t-60.5 -42.5t-96 -25.5q15 0 33 -3q24 -4 45 -10.5t37.5 -18.5t28 -31t18.5 -47l21 -88
q8 -35 17.5 -49.5t24.5 -14.5q14 0 28.5 10t26.5 24zM214 296h67q47 0 77 11.5t47 31t23 46.5t6 57q0 70 -35 108t-121 38q-20 0 -32.5 -3.5t-19.5 -13.5t-9.5 -26.5t-2.5 -42.5v-206zM262 -122q0 23 16.5 38t39.5 15q29 0 47 -20.5t18 -49.5q0 -36 -17 -60.5t-65 -41.5
l-7 18q23 7 43 23t19 40q-8 -7 -18.5 -11.5t-23.5 -4.5q-22 0 -37 14t-15 40z" />
    <glyph glyph-name="sacute" unicode="&#x15b;" horiz-adv-x="536" 
d="M63 0zM457 615q-1 -12 -2 -26t-1.5 -35t-1 -50.5t-0.5 -72.5h-23q-3 32 -13 63t-30 55t-49.5 39t-71.5 15q-54 0 -88 -28t-34 -71q0 -29 12.5 -49.5t34.5 -37t50.5 -32l60.5 -33.5q39 -21 72.5 -41t58 -43t38.5 -50.5t14 -61.5q0 -42 -16.5 -74t-44.5 -53.5t-65 -32
t-79 -10.5q-53 0 -84 11.5t-53 25.5t-34 14q-10 0 -14.5 -11t-7.5 -33h-23q1 14 2 32t1.5 43.5t0.5 61v83.5h23q3 -42 14 -79.5t32 -66t54.5 -45t81.5 -16.5q22 0 44.5 6.5t39.5 20t28 35t11 51.5q0 26 -12 46.5t-33 38.5t-50 34.5t-64 34.5q-34 17 -64.5 35.5t-53.5 41.5
t-36.5 51t-13.5 65q0 39 15.5 68t41.5 48.5t60 29.5t71 10q25 0 43 -3.5t32.5 -8.5t25.5 -11.5t21 -13.5q22 -14 34 -14q10 0 14.5 11.5t7.5 32.5h23zM227 721q34 26 59 47.5l44 39l34 31t31 23.5q20 13 36.5 9.5t24.5 -16.5t4 -28.5t-25 -29.5q-16 -10 -35 -17.5l-43 -17
t-54 -22.5t-69 -32z" />
    <glyph glyph-name="skreska" horiz-adv-x="536" 
d="M63 0zM457 615q-1 -12 -2 -26t-1.5 -35t-1 -50.5t-0.5 -72.5h-23q-3 32 -13 63t-30 55t-49.5 39t-71.5 15q-54 0 -88 -28t-34 -71q0 -29 12.5 -49.5t34.5 -37t50.5 -32l60.5 -33.5q39 -21 72.5 -41t58 -43t38.5 -50.5t14 -61.5q0 -42 -16.5 -74t-44.5 -53.5t-65 -32
t-79 -10.5q-53 0 -84 11.5t-53 25.5t-34 14q-10 0 -14.5 -11t-7.5 -33h-23q1 14 2 32t1.5 43.5t0.5 61v83.5h23q3 -42 14 -79.5t32 -66t54.5 -45t81.5 -16.5q22 0 44.5 6.5t39.5 20t28 35t11 51.5q0 26 -12 46.5t-33 38.5t-50 34.5t-64 34.5q-34 17 -64.5 35.5t-53.5 41.5
t-36.5 51t-13.5 65q0 39 15.5 68t41.5 48.5t60 29.5t71 10q25 0 43 -3.5t32.5 -8.5t25.5 -11.5t21 -13.5q22 -14 34 -14q10 0 14.5 11.5t7.5 32.5h23zM249 705q7 26 10.5 47.5t6 39.5t5 33.5t7.5 28.5q8 18 22.5 21.5t29.5 -1.5q13 -6 20 -20t-1 -31q-6 -13 -15 -25.5
t-20.5 -27l-24.5 -31.5t-27 -40z" />
    <glyph glyph-name="scaron" unicode="&#x161;" horiz-adv-x="536" 
d="M63 0zM457 615q-1 -12 -2 -26t-1.5 -35t-1 -50.5t-0.5 -72.5h-23q-3 32 -13 63t-30 55t-49.5 39t-71.5 15q-54 0 -88 -28t-34 -71q0 -29 12.5 -49.5t34.5 -37t50.5 -32l60.5 -33.5q39 -21 72.5 -41t58 -43t38.5 -50.5t14 -61.5q0 -42 -16.5 -74t-44.5 -53.5t-65 -32
t-79 -10.5q-53 0 -84 11.5t-53 25.5t-34 14q-10 0 -14.5 -11t-7.5 -33h-23q1 14 2 32t1.5 43.5t0.5 61v83.5h23q3 -42 14 -79.5t32 -66t54.5 -45t81.5 -16.5q22 0 44.5 6.5t39.5 20t28 35t11 51.5q0 26 -12 46.5t-33 38.5t-50 34.5t-64 34.5q-34 17 -64.5 35.5t-53.5 41.5
t-36.5 51t-13.5 65q0 39 15.5 68t41.5 48.5t60 29.5t71 10q25 0 43 -3.5t32.5 -8.5t25.5 -11.5t21 -13.5q22 -14 34 -14q10 0 14.5 11.5t7.5 32.5h23zM306 776q27 19 71.5 38t89.5 32l5 -14q-62 -23 -108.5 -58.5t-68.5 -73.5h-18q-22 38 -68.5 73.5t-108.5 58.5l5 14
q57 -13 112.5 -32t88.5 -38z" />
    <glyph glyph-name="scedilla" unicode="&#x15f;" horiz-adv-x="537" 
d="M457 615q-1 -12 -2 -26t-1.5 -35t-1 -50.5t-0.5 -72.5h-23q-3 32 -13 63t-30 55t-49.5 39t-71.5 15q-54 0 -88 -28t-34 -71q0 -29 12.5 -49.5t34.5 -37t50.5 -32l60.5 -33.5q39 -21 72.5 -41t58 -43t38.5 -50.5t14 -61.5q0 -42 -16.5 -74t-44.5 -53.5t-65 -32t-79 -10.5
h-16l-19 -58q13 3 27.5 5t31.5 2q28 0 44.5 -12t16.5 -35q0 -21 -11 -35.5t-27.5 -23.5t-36.5 -13t-38 -4q-28 0 -48.5 3t-34.5 8l4 18q5 -1 15.5 -2t22.5 -1q15 0 30.5 2t29 7t22 13.5t8.5 22.5q0 28 -42 28q-8 0 -23 -1.5t-26 -5.5l28 85q-34 4 -56 13.5t-39 20.5
q-22 14 -34 14q-10 0 -14.5 -11t-7.5 -33h-23q1 14 2 32t1.5 43.5t0.5 61v83.5h23q3 -42 14 -79.5t32 -66t54.5 -45t81.5 -16.5q22 0 44.5 6.5t39.5 20t28 35t11 51.5q0 26 -12 46.5t-33 38.5t-50 34.5t-64 34.5q-34 17 -64.5 35.5t-53.5 41.5t-36.5 51t-13.5 65
q0 39 15.5 68t41.5 48.5t60 29.5t71 10q25 0 43 -3.5t32.5 -8.5t25.5 -11.5t21 -13.5q22 -14 34 -14q10 0 14.5 11.5t7.5 32.5h23z" />
    <glyph glyph-name="scircumflex" unicode="&#x15d;" horiz-adv-x="536" 
d="M63 0zM457 615q-1 -12 -2 -26t-1.5 -35t-1 -50.5t-0.5 -72.5h-23q-3 32 -13 63t-30 55t-49.5 39t-71.5 15q-54 0 -88 -28t-34 -71q0 -29 12.5 -49.5t34.5 -37t50.5 -32l60.5 -33.5q39 -21 72.5 -41t58 -43t38.5 -50.5t14 -61.5q0 -42 -16.5 -74t-44.5 -53.5t-65 -32
t-79 -10.5q-53 0 -84 11.5t-53 25.5t-34 14q-10 0 -14.5 -11t-7.5 -33h-23q1 14 2 32t1.5 43.5t0.5 61v83.5h23q3 -42 14 -79.5t32 -66t54.5 -45t81.5 -16.5q22 0 44.5 6.5t39.5 20t28 35t11 51.5q0 26 -12 46.5t-33 38.5t-50 34.5t-64 34.5q-34 17 -64.5 35.5t-53.5 41.5
t-36.5 51t-13.5 65q0 39 15.5 68t41.5 48.5t60 29.5t71 10q25 0 43 -3.5t32.5 -8.5t25.5 -11.5t21 -13.5q22 -14 34 -14q10 0 14.5 11.5t7.5 32.5h23zM248 778q-27 -19 -71.5 -38t-89.5 -32l-5 14q62 23 108.5 58.5t68.5 73.5h18q22 -38 68.5 -73.5t108.5 -58.5l-5 -14
q-57 13 -112.5 32t-88.5 38z" />
    <glyph glyph-name="uni0219" unicode="&#x219;" horiz-adv-x="536" 
d="M63 0zM457 615q-1 -12 -2 -26t-1.5 -35t-1 -50.5t-0.5 -72.5h-23q-3 32 -13 63t-30 55t-49.5 39t-71.5 15q-54 0 -88 -28t-34 -71q0 -29 12.5 -49.5t34.5 -37t50.5 -32l60.5 -33.5q39 -21 72.5 -41t58 -43t38.5 -50.5t14 -61.5q0 -42 -16.5 -74t-44.5 -53.5t-65 -32
t-79 -10.5q-53 0 -84 11.5t-53 25.5t-34 14q-10 0 -14.5 -11t-7.5 -33h-23q1 14 2 32t1.5 43.5t0.5 61v83.5h23q3 -42 14 -79.5t32 -66t54.5 -45t81.5 -16.5q22 0 44.5 6.5t39.5 20t28 35t11 51.5q0 26 -12 46.5t-33 38.5t-50 34.5t-64 34.5q-34 17 -64.5 35.5t-53.5 41.5
t-36.5 51t-13.5 65q0 39 15.5 68t41.5 48.5t60 29.5t71 10q25 0 43 -3.5t32.5 -8.5t25.5 -11.5t21 -13.5q22 -14 34 -14q10 0 14.5 11.5t7.5 32.5h23zM209 -122q0 23 16.5 38t39.5 15q29 0 47 -20.5t18 -49.5q0 -36 -17 -60.5t-65 -41.5l-7 18q23 7 43 23t19 40
q-8 -7 -18.5 -11.5t-23.5 -4.5q-22 0 -37 14t-15 40z" />
    <glyph glyph-name="germandbls" unicode="&#xdf;" horiz-adv-x="671" 
d="M402 5q31 0 54.5 13.5t39 36t23 51.5t7.5 60q0 81 -50 131t-136 62l157 216q-20 15 -52.5 22t-61.5 7q-35 0 -67.5 -11t-57 -38t-39.5 -73.5t-15 -117.5v-258q0 -25 2 -41.5t8 -26.5t17 -14t28 -4v-20q-11 0 -22 0.5t-23.5 1t-29 1t-39.5 0.5h-28.5t-31.5 -0.5t-30.5 -1
t-24.5 -1.5v20q25 1 41 4.5t25 12.5t12 25.5t3 43.5v197q0 166 68 242.5t193 76.5q63 0 113.5 -18t95.5 -53l-151 -199q40 -8 75.5 -24.5t62.5 -40t42.5 -55t15.5 -69.5q0 -36 -15 -68.5t-43 -56.5t-69 -38t-92 -14q-35 0 -57.5 5.5t-36.5 12.5q-26 13 -37.5 31t-11.5 38
q0 23 15 38t38 15t39 -14t16 -40q0 -22 -11.5 -34.5t-30.5 -16.5q4 -5 13.5 -8t20 -4.5t21 -2.5t17.5 -1z" />
    <glyph glyph-name="uni021B" unicode="&#x21b;" horiz-adv-x="630" 
d="M34 0zM175 585q-51 0 -78.5 -39t-35.5 -138h-23q2 16 2.5 37t0.5 45q0 17 -1.5 50t-5.5 68q31 -1 67.5 -1.5l74 -1t73.5 -0.5h67h67t73 0.5l73.5 1t67.5 1.5q-4 -35 -5.5 -68t-1.5 -50q0 -24 0.5 -45.5t2.5 -36.5h-23q-8 99 -35.5 138t-78.5 39h-94v-469q0 -30 4 -48.5
t15 -28.5t30.5 -14t51.5 -5v-20q-26 2 -66 2.5t-81 0.5q-45 0 -84.5 -0.5t-63.5 -2.5v20q31 1 51 5t31 14t15 28.5t4 48.5v469h-94zM257 -122q0 23 16.5 38t39.5 15q29 0 47 -20.5t18 -49.5q0 -36 -17 -60.5t-65 -41.5l-7 18q23 7 43 23t19 40q-8 -7 -18.5 -11.5t-23.5 -4.5
q-22 0 -37 14t-15 40z" />
    <glyph glyph-name="tcaron" unicode="&#x165;" horiz-adv-x="631" 
d="M34 0zM175 585q-51 0 -78.5 -39t-35.5 -138h-23q2 16 2.5 37t0.5 45q0 17 -1.5 50t-5.5 68q31 -1 67.5 -1.5l74 -1t73.5 -0.5h67h67t73 0.5l73.5 1t67.5 1.5q-4 -35 -5.5 -68t-1.5 -50q0 -24 0.5 -45.5t2.5 -36.5h-23q-8 99 -35.5 138t-78.5 39h-94v-469q0 -30 4 -48.5
t15 -28.5t30.5 -14t51.5 -5v-20q-26 2 -66 2.5t-81 0.5q-45 0 -84.5 -0.5t-63.5 -2.5v20q31 1 51 5t31 14t15 28.5t4 48.5v469h-94zM336 776q27 19 71.5 38t89.5 32l5 -14q-62 -23 -108.5 -58.5t-68.5 -73.5h-18q-22 38 -68.5 73.5t-108.5 58.5l5 14q57 -13 112.5 -32
t88.5 -38z" />
    <glyph glyph-name="tbar" unicode="&#x167;" horiz-adv-x="631" 
d="M175 585q-51 0 -78.5 -39t-35.5 -138h-23q2 16 2.5 37t0.5 45q0 17 -1.5 50t-5.5 68q31 -1 67.5 -1.5l74 -1t73.5 -0.5h67h67t73 0.5l73.5 1t67.5 1.5q-4 -35 -5.5 -68t-1.5 -50q0 -24 0.5 -45.5t2.5 -36.5h-23q-8 99 -35.5 138t-78.5 39h-94v-269h139v-20h-139v-180
q0 -30 4 -48.5t15 -28.5t30.5 -14t51.5 -5v-20q-26 2 -66 2.5t-81 0.5q-45 0 -84.5 -0.5t-63.5 -2.5v20q31 1 51 5t31 14t15 28.5t4 48.5v180h-141v20h141v269h-94z" />
    <glyph glyph-name="uni0163" unicode="&#x163;" horiz-adv-x="631" 
d="M175 585q-51 0 -78.5 -39t-35.5 -138h-23q2 16 2.5 37t0.5 45q0 17 -1.5 50t-5.5 68q31 -1 67.5 -1.5l74 -1t73.5 -0.5h67h67t73 0.5l73.5 1t67.5 1.5q-4 -35 -5.5 -68t-1.5 -50q0 -24 0.5 -45.5t2.5 -36.5h-23q-8 99 -35.5 138t-78.5 39h-94v-469q0 -30 4 -48.5
t15 -28.5t30.5 -14t51.5 -5v-20q-25 2 -61.5 2.5t-74.5 0.5l-25 -75q13 3 27.5 5t31.5 2q28 0 44.5 -12t16.5 -35q0 -21 -11 -35.5t-27.5 -23.5t-36.5 -13t-38 -4q-28 0 -48.5 3t-34.5 8l4 18q5 -1 15.5 -2t22.5 -1q15 0 30.5 2t29 7t22 13.5t8.5 22.5q0 28 -42 28
q-8 0 -23 -1.5t-26 -5.5l33 99q-41 0 -75.5 -0.5t-56.5 -2.5v20q31 1 51 5t31 14t15 28.5t4 48.5v469h-94z" />
    <glyph glyph-name="uacute" unicode="&#xfa;" horiz-adv-x="666" 
d="M29 0zM110 502q0 27 -3 43.5t-12 25.5t-25 12.5t-41 4.5v20q21 -2 55 -2.5t73 -0.5q35 0 69.5 0.5t57.5 2.5v-20q-26 -1 -41.5 -4.5t-24.5 -12.5t-12 -25.5t-3 -43.5v-251q0 -48 4.5 -89.5t19.5 -73t44.5 -49.5t79.5 -18q54 0 89 18t55.5 50t29 76t8.5 95v242
q0 27 -3 43.5t-12 25.5t-25 12.5t-41 4.5v20q18 -2 42 -2.5t50 -0.5t51 0.5t42 2.5v-20q-26 -1 -41.5 -4.5t-24.5 -12.5t-12 -25.5t-3 -43.5v-231q0 -67 -9 -116t-32 -86q-23 -38 -68.5 -60.5t-104.5 -22.5q-45 0 -86 9.5t-72 34.5q-22 20 -36.5 41.5t-22.5 49t-11.5 63
t-3.5 84.5v234zM292 721q34 26 59 47.5l44 39l34 31t31 23.5q20 13 36.5 9.5t24.5 -16.5t4 -28.5t-25 -29.5q-16 -10 -35 -17.5l-43 -17t-54 -22.5t-69 -32z" />
    <glyph glyph-name="ubreve" unicode="&#x16d;" horiz-adv-x="666" 
d="M29 0zM110 502q0 27 -3 43.5t-12 25.5t-25 12.5t-41 4.5v20q21 -2 55 -2.5t73 -0.5q35 0 69.5 0.5t57.5 2.5v-20q-26 -1 -41.5 -4.5t-24.5 -12.5t-12 -25.5t-3 -43.5v-251q0 -48 4.5 -89.5t19.5 -73t44.5 -49.5t79.5 -18q54 0 89 18t55.5 50t29 76t8.5 95v242
q0 27 -3 43.5t-12 25.5t-25 12.5t-41 4.5v20q18 -2 42 -2.5t50 -0.5t51 0.5t42 2.5v-20q-26 -1 -41.5 -4.5t-24.5 -12.5t-12 -25.5t-3 -43.5v-231q0 -67 -9 -116t-32 -86q-23 -38 -68.5 -60.5t-104.5 -22.5q-45 0 -86 9.5t-72 34.5q-22 20 -36.5 41.5t-22.5 49t-11.5 63
t-3.5 84.5v234zM351 763q68 0 111.5 21t65.5 44l12 -11q-11 -20 -28.5 -40.5t-41 -37t-53.5 -27.5t-66 -11t-66 11t-53.5 27.5t-41 37t-28.5 40.5l13 10q22 -23 65 -43.5t111 -20.5z" />
    <glyph glyph-name="ucircumflex" unicode="&#xfb;" horiz-adv-x="666" 
d="M29 0zM110 502q0 27 -3 43.5t-12 25.5t-25 12.5t-41 4.5v20q21 -2 55 -2.5t73 -0.5q35 0 69.5 0.5t57.5 2.5v-20q-26 -1 -41.5 -4.5t-24.5 -12.5t-12 -25.5t-3 -43.5v-251q0 -48 4.5 -89.5t19.5 -73t44.5 -49.5t79.5 -18q54 0 89 18t55.5 50t29 76t8.5 95v242
q0 27 -3 43.5t-12 25.5t-25 12.5t-41 4.5v20q18 -2 42 -2.5t50 -0.5t51 0.5t42 2.5v-20q-26 -1 -41.5 -4.5t-24.5 -12.5t-12 -25.5t-3 -43.5v-231q0 -67 -9 -116t-32 -86q-23 -38 -68.5 -60.5t-104.5 -22.5q-45 0 -86 9.5t-72 34.5q-22 20 -36.5 41.5t-22.5 49t-11.5 63
t-3.5 84.5v234zM337 778q-27 -19 -71.5 -38t-89.5 -32l-5 14q62 23 108.5 58.5t68.5 73.5h18q22 -38 68.5 -73.5t108.5 -58.5l-5 -14q-57 13 -112.5 32t-88.5 38z" />
    <glyph glyph-name="udieresis" unicode="&#xfc;" horiz-adv-x="666" 
d="M29 0zM110 502q0 27 -3 43.5t-12 25.5t-25 12.5t-41 4.5v20q21 -2 55 -2.5t73 -0.5q35 0 69.5 0.5t57.5 2.5v-20q-26 -1 -41.5 -4.5t-24.5 -12.5t-12 -25.5t-3 -43.5v-251q0 -48 4.5 -89.5t19.5 -73t44.5 -49.5t79.5 -18q54 0 89 18t55.5 50t29 76t8.5 95v242
q0 27 -3 43.5t-12 25.5t-25 12.5t-41 4.5v20q18 -2 42 -2.5t50 -0.5t51 0.5t42 2.5v-20q-26 -1 -41.5 -4.5t-24.5 -12.5t-12 -25.5t-3 -43.5v-231q0 -67 -9 -116t-32 -86q-23 -38 -68.5 -60.5t-104.5 -22.5q-45 0 -86 9.5t-72 34.5q-22 20 -36.5 41.5t-22.5 49t-11.5 63
t-3.5 84.5v234zM184 772q0 23 17 40.5t41 17.5q23 0 40.5 -17.5t17.5 -40.5q0 -24 -17.5 -41t-40.5 -17q-24 0 -41 17t-17 41zM396 772q0 23 17 40.5t41 17.5q23 0 40.5 -17.5t17.5 -40.5q0 -24 -17.5 -41t-40.5 -17q-24 0 -41 17t-17 41z" />
    <glyph glyph-name="ugrave" unicode="&#xf9;" horiz-adv-x="666" 
d="M29 0zM110 502q0 27 -3 43.5t-12 25.5t-25 12.5t-41 4.5v20q21 -2 55 -2.5t73 -0.5q35 0 69.5 0.5t57.5 2.5v-20q-26 -1 -41.5 -4.5t-24.5 -12.5t-12 -25.5t-3 -43.5v-251q0 -48 4.5 -89.5t19.5 -73t44.5 -49.5t79.5 -18q54 0 89 18t55.5 50t29 76t8.5 95v242
q0 27 -3 43.5t-12 25.5t-25 12.5t-41 4.5v20q18 -2 42 -2.5t50 -0.5t51 0.5t42 2.5v-20q-26 -1 -41.5 -4.5t-24.5 -12.5t-12 -25.5t-3 -43.5v-231q0 -67 -9 -116t-32 -86q-23 -38 -68.5 -60.5t-104.5 -22.5q-45 0 -86 9.5t-72 34.5q-22 20 -36.5 41.5t-22.5 49t-11.5 63
t-3.5 84.5v234zM404 708q-39 19 -69 32t-54 22.5l-43 17t-35 17.5q-21 14 -25 29.5t4 28.5t24.5 16.5t36.5 -9.5q16 -10 31 -23.5l34 -31l43.5 -39t59.5 -47.5z" />
    <glyph glyph-name="uhungarumlaut" unicode="&#x171;" horiz-adv-x="666" 
d="M29 0zM110 502q0 27 -3 43.5t-12 25.5t-25 12.5t-41 4.5v20q21 -2 55 -2.5t73 -0.5q35 0 69.5 0.5t57.5 2.5v-20q-26 -1 -41.5 -4.5t-24.5 -12.5t-12 -25.5t-3 -43.5v-251q0 -48 4.5 -89.5t19.5 -73t44.5 -49.5t79.5 -18q54 0 89 18t55.5 50t29 76t8.5 95v242
q0 27 -3 43.5t-12 25.5t-25 12.5t-41 4.5v20q18 -2 42 -2.5t50 -0.5t51 0.5t42 2.5v-20q-26 -1 -41.5 -4.5t-24.5 -12.5t-12 -25.5t-3 -43.5v-231q0 -67 -9 -116t-32 -86q-23 -38 -68.5 -60.5t-104.5 -22.5q-45 0 -86 9.5t-72 34.5q-22 20 -36.5 41.5t-22.5 49t-11.5 63
t-3.5 84.5v234zM203 709q31 31 52.5 55.5t37.5 44.5l29.5 35.5t27.5 27.5q18 16 34.5 14.5t26.5 -12.5q11 -12 9 -28t-21 -33q-15 -12 -32.5 -22.5l-40 -23l-50.5 -29t-64 -41.5zM390 709q31 31 52.5 55.5t37.5 44.5l29.5 35.5t27.5 27.5q18 16 34.5 14.5t26.5 -12.5
q11 -12 9 -28t-21 -33q-15 -12 -32.5 -22.5l-40 -23l-50.5 -29t-64 -41.5z" />
    </font>
</defs>
</svg>
